<svg width="747" height="930" viewBox="0 0 747 930" fill="none" xmlns="http://www.w3.org/2000/svg">
<rect width="747" height="930" fill="#F6F6F6"/>
<rect x="227" y="80" width="75" height="36" rx="18" fill="#71BC8F"/>
<path d="M243.786 100.423C243.916 102.125 245.358 103.232 247.45 103.232C249.706 103.232 251.135 102.077 251.135 100.266C251.135 98.8164 250.314 98.0234 248.271 97.5107L247.238 97.2373C245.878 96.8887 245.338 96.4443 245.338 95.6719C245.338 94.6738 246.206 94.0176 247.519 94.0176C248.749 94.0176 249.583 94.6191 249.754 95.6309H250.991C250.889 94.0381 249.467 92.9033 247.56 92.9033C245.475 92.9033 244.073 94.0381 244.073 95.7129C244.073 97.1143 244.846 97.9209 246.63 98.3721L247.895 98.7002C249.255 99.042 249.87 99.5752 249.87 100.416C249.87 101.394 248.893 102.111 247.566 102.111C246.165 102.111 245.181 101.455 245.03 100.423H243.786ZM255.975 96.54C257.144 96.54 257.923 97.4014 257.95 98.707H253.89C253.979 97.4014 254.799 96.54 255.975 96.54ZM257.916 101.093C257.608 101.742 256.966 102.091 256.016 102.091C254.765 102.091 253.951 101.168 253.89 99.7119V99.6572H259.188V99.2061C259.188 96.916 257.978 95.501 255.988 95.501C253.965 95.501 252.666 97.0049 252.666 99.3223C252.666 101.653 253.944 103.13 255.988 103.13C257.602 103.13 258.75 102.351 259.092 101.093H257.916ZM261.033 103H262.209V98.4336C262.209 97.3945 263.022 96.6426 264.144 96.6426C264.376 96.6426 264.8 96.6836 264.896 96.7109V95.5352C264.745 95.5146 264.499 95.501 264.308 95.501C263.33 95.501 262.482 96.0068 262.264 96.7246H262.154V95.6309H261.033V103ZM272.381 95.6309H271.123L269.106 101.701H268.997L266.98 95.6309H265.723L268.45 103H269.653L272.381 95.6309ZM276.619 96.54C277.788 96.54 278.567 97.4014 278.595 98.707H274.534C274.623 97.4014 275.443 96.54 276.619 96.54ZM278.561 101.093C278.253 101.742 277.61 102.091 276.66 102.091C275.409 102.091 274.596 101.168 274.534 99.7119V99.6572H279.832V99.2061C279.832 96.916 278.622 95.501 276.633 95.501C274.609 95.501 273.311 97.0049 273.311 99.3223C273.311 101.653 274.589 103.13 276.633 103.13C278.246 103.13 279.395 102.351 279.736 101.093H278.561ZM281.678 103H282.854V98.4336C282.854 97.3945 283.667 96.6426 284.788 96.6426C285.021 96.6426 285.444 96.6836 285.54 96.7109V95.5352C285.39 95.5146 285.144 95.501 284.952 95.501C283.975 95.501 283.127 96.0068 282.908 96.7246H282.799V95.6309H281.678V103Z" fill="#F6F6F6"/>
<rect x="264.25" y="128.25" width="0.5" height="785.5" fill="#97979F" stroke="#97979F" stroke-width="0.5"/>
<rect x="33" y="80" width="52" height="36" rx="18" fill="#71BC8F"/>
<path d="M50.2578 93.1357V103H53.6416C56.5742 103 58.2969 101.175 58.2969 98.0645C58.2969 94.9609 56.5674 93.1357 53.6416 93.1357H50.2578ZM51.4883 94.2432H53.5596C55.7471 94.2432 57.0391 95.665 57.0391 98.0781C57.0391 100.484 55.7607 101.893 53.5596 101.893H51.4883V94.2432ZM64.2783 103C66.377 103 67.6211 101.968 67.6211 100.231C67.6211 98.9258 66.7666 98.0029 65.4199 97.832V97.7227C66.3701 97.5518 67.1221 96.6221 67.1221 95.5967C67.1221 94.0859 66.0146 93.1357 64.2031 93.1357H60.4297V103H64.2783ZM61.6602 94.2227H63.9434C65.167 94.2227 65.8779 94.8037 65.8779 95.8086C65.8779 96.8545 65.1191 97.3877 63.6289 97.3877H61.6602V94.2227ZM61.6602 101.913V98.4473H63.9775C65.5498 98.4473 66.3564 99.0283 66.3564 100.17C66.3564 101.312 65.5771 101.913 64.0938 101.913H61.6602Z" fill="#F6F6F6"/>
<rect x="58.75" y="128.25" width="0.5" height="785.5" fill="#97979F" stroke="#97979F" stroke-width="0.5"/>
<rect x="172" y="494" width="185" height="120" rx="6" fill="#DADCE0"/>
<path d="M186.108 521.782C188.118 521.782 189.308 520.743 189.308 519V511.583H188.159V512.731H188.029C187.708 511.932 186.895 511.46 185.821 511.46C184.085 511.46 182.95 512.69 182.95 514.598V515.931C182.95 517.831 184.078 519.068 185.794 519.068C186.874 519.068 187.694 518.597 188.022 517.817H188.146V518.973C188.146 520.162 187.428 520.818 186.129 520.818C185.138 520.818 184.393 520.415 184.242 519.8H183.094C183.244 521.03 184.393 521.782 186.108 521.782ZM184.119 515.767V514.748C184.119 513.388 184.912 512.506 186.143 512.506C187.366 512.506 188.152 513.381 188.152 514.748V515.767C188.152 517.134 187.366 518.016 186.143 518.016C184.912 518.016 184.119 517.127 184.119 515.767ZM196.984 517.086C196.779 517.735 196.089 518.132 195.152 518.132C193.888 518.132 193.081 517.257 193.081 515.896V515.596H198.133V514.871C198.133 512.725 196.998 511.446 195.07 511.446C193.184 511.446 191.933 512.731 191.933 514.687V515.801C191.933 517.913 193.115 519.137 195.152 519.137C196.711 519.137 197.887 518.31 198.112 517.086H196.984ZM195.063 512.444C196.26 512.444 196.984 513.299 196.984 514.714H193.081C193.081 513.292 193.826 512.444 195.063 512.444ZM202.371 509.594V511.604H200.396V512.595H202.371V516.792C202.371 518.337 203.226 519.034 205.064 519.034C205.42 519.034 206.322 519 206.507 518.966V517.981C206.309 518.002 205.563 518.022 205.146 518.022C204.101 518.022 203.533 517.585 203.533 516.778V512.595H206.527V511.604H203.52V509.594H202.371ZM212.516 518.063C210.916 518.063 210.082 516.99 210.082 514.946V513.189C210.082 511.146 210.916 510.072 212.509 510.072C213.773 510.072 214.655 510.968 214.696 512.301H215.92C215.879 510.195 214.594 508.931 212.516 508.931C210.198 508.931 208.852 510.496 208.852 513.189V514.946C208.852 517.64 210.198 519.205 212.516 519.205C214.532 519.205 215.913 517.913 215.913 516.006H214.696C214.662 517.277 213.828 518.063 212.516 518.063ZM224.185 519V518.036H221.737V508.671H218.06V509.635H220.575V518.036H218.039V519H224.185ZM229.729 509.765C230.275 509.765 230.692 509.354 230.692 508.808C230.692 508.268 230.275 507.857 229.729 507.857C229.182 507.857 228.765 508.268 228.765 508.808C228.765 509.354 229.182 509.765 229.729 509.765ZM232.839 519V518.036H230.385V511.583H226.714V512.547H229.236V518.036H226.693V519H232.839ZM240.256 517.086C240.051 517.735 239.36 518.132 238.424 518.132C237.159 518.132 236.353 517.257 236.353 515.896V515.596H241.404V514.871C241.404 512.725 240.27 511.446 238.342 511.446C236.455 511.446 235.204 512.731 235.204 514.687V515.801C235.204 517.913 236.387 519.137 238.424 519.137C239.982 519.137 241.158 518.31 241.384 517.086H240.256ZM238.335 512.444C239.531 512.444 240.256 513.299 240.256 514.714H236.353C236.353 513.292 237.098 512.444 238.335 512.444ZM243.872 519H245.034V514.632C245.034 513.367 245.854 512.513 247.078 512.513C248.233 512.513 248.78 513.142 248.78 514.481V519H249.942V514.188C249.942 512.41 249.067 511.446 247.454 511.446C246.326 511.446 245.479 511.966 245.082 512.889H244.986V511.583H243.872V519ZM254.297 509.594V511.604H252.321V512.595H254.297V516.792C254.297 518.337 255.151 519.034 256.99 519.034C257.346 519.034 258.248 519 258.433 518.966V517.981C258.234 518.002 257.489 518.022 257.072 518.022C256.026 518.022 255.459 517.585 255.459 516.778V512.595H258.453V511.604H255.445V509.594H254.297ZM266.766 519H268.037L264.858 509.136H263.573L260.395 519H261.618L262.479 516.17H265.911L266.766 519ZM264.182 510.585H264.216L265.597 515.138H262.794L264.182 510.585ZM275.905 511.583H274.743V515.951C274.743 517.216 273.923 518.07 272.699 518.07C271.544 518.07 270.997 517.441 270.997 516.102V511.583H269.835V516.396C269.835 518.173 270.71 519.137 272.323 519.137C273.451 519.137 274.299 518.617 274.695 517.694H274.791V519H275.905V511.583ZM280.26 509.594V511.604H278.284V512.595H280.26V516.792C280.26 518.337 281.114 519.034 282.953 519.034C283.309 519.034 284.211 519 284.396 518.966V517.981C284.197 518.002 283.452 518.022 283.035 518.022C281.989 518.022 281.422 517.585 281.422 516.778V512.595H284.416V511.604H281.408V509.594H280.26ZM287.137 519H288.299V514.639C288.299 513.374 289.126 512.52 290.35 512.52C291.512 512.52 292.059 513.155 292.059 514.488V519H293.221V514.194C293.221 512.424 292.346 511.453 290.732 511.453C289.598 511.453 288.743 511.973 288.354 512.896H288.258V508.671H287.137V519ZM299.435 519V510.243H302.415V509.136H295.251V510.243H298.231V519H299.435ZM307.487 519.137C309.449 519.137 310.7 517.858 310.7 515.855V514.734C310.7 512.731 309.449 511.453 307.487 511.453C305.525 511.453 304.274 512.731 304.274 514.734V515.855C304.274 517.858 305.525 519.137 307.487 519.137ZM307.487 512.479C308.759 512.479 309.552 513.381 309.552 514.837V515.746C309.552 517.209 308.759 518.104 307.487 518.104C306.216 518.104 305.423 517.209 305.423 515.746V514.837C305.423 513.381 306.216 512.479 307.487 512.479ZM314.904 514.912H314.815V508.671H313.653V519H314.815V516.3L315.841 515.315L318.37 519H319.751L316.668 514.522L319.546 511.583H318.138L314.904 514.912ZM326.799 517.086C326.594 517.735 325.903 518.132 324.967 518.132C323.702 518.132 322.896 517.257 322.896 515.896V515.596H327.947V514.871C327.947 512.725 326.812 511.446 324.885 511.446C322.998 511.446 321.747 512.731 321.747 514.687V515.801C321.747 517.913 322.93 519.137 324.967 519.137C326.525 519.137 327.701 518.31 327.927 517.086H326.799ZM324.878 512.444C326.074 512.444 326.799 513.299 326.799 514.714H322.896C322.896 513.292 323.641 512.444 324.878 512.444ZM330.415 519H331.577V514.632C331.577 513.367 332.397 512.513 333.621 512.513C334.776 512.513 335.323 513.142 335.323 514.481V519H336.485V514.188C336.485 512.41 335.61 511.446 333.997 511.446C332.869 511.446 332.021 511.966 331.625 512.889H331.529V511.583H330.415V519ZM340.614 514.064C340.614 516.389 341.312 518.398 342.672 519.943H343.827C342.412 517.954 341.817 516.211 341.817 514.064C341.817 511.918 342.412 510.175 343.827 508.186H342.672C341.312 509.73 340.614 511.747 340.614 514.064ZM206.575 531.959V530.653L200.696 534.119V535.131L206.575 538.597V537.291L201.872 534.687V534.563L206.575 531.959ZM211.538 539.13C212.618 539.13 213.425 538.686 213.78 537.893H213.896V539.007H215.004V533.928C215.004 532.383 214.006 531.494 212.263 531.494C210.745 531.494 209.597 532.308 209.46 533.497H210.602C210.793 532.861 211.395 532.499 212.249 532.499C213.281 532.499 213.849 533.012 213.849 533.941V534.611L211.812 534.714C210.123 534.803 209.18 535.582 209.18 536.895C209.18 538.241 210.123 539.13 211.538 539.13ZM211.873 538.111C210.937 538.111 210.355 537.633 210.355 536.854C210.355 536.081 210.902 535.637 211.941 535.589L213.849 535.5V536.375C213.849 537.366 212.994 538.111 211.873 538.111ZM221.409 531.46C220.35 531.46 219.577 531.897 219.188 532.718H219.064V531.583H217.916V541.502H219.099V537.852H219.229C219.55 538.665 220.336 539.123 221.409 539.123C223.125 539.123 224.246 537.886 224.246 535.985V534.604C224.246 532.697 223.125 531.46 221.409 531.46ZM221.074 532.526C222.298 532.526 223.077 533.401 223.077 534.769V535.835C223.077 537.202 222.298 538.084 221.074 538.084C219.851 538.084 219.071 537.209 219.071 535.835V534.769C219.071 533.401 219.851 532.526 221.074 532.526ZM230.063 531.46C229.004 531.46 228.231 531.897 227.842 532.718H227.719V531.583H226.57V541.502H227.753V537.852H227.883C228.204 538.665 228.99 539.123 230.063 539.123C231.779 539.123 232.9 537.886 232.9 535.985V534.604C232.9 532.697 231.779 531.46 230.063 531.46ZM229.729 532.526C230.952 532.526 231.731 533.401 231.731 534.769V535.835C231.731 537.202 230.952 538.084 229.729 538.084C228.505 538.084 227.726 537.209 227.726 535.835V534.769C227.726 533.401 228.505 532.526 229.729 532.526ZM241.869 535.165V534.085H234.637V535.165H241.869ZM247.037 529.765C247.584 529.765 248.001 529.354 248.001 528.808C248.001 528.268 247.584 527.857 247.037 527.857C246.49 527.857 246.073 528.268 246.073 528.808C246.073 529.354 246.49 529.765 247.037 529.765ZM250.147 539V538.036H247.693V531.583H244.022V532.547H246.545V538.036H244.002V539H250.147ZM255.097 539.123C256.156 539.123 256.936 538.686 257.318 537.865H257.448V539H258.59V528.671H257.407V532.731H257.284C256.963 531.918 256.17 531.46 255.097 531.46C253.381 531.46 252.26 532.697 252.26 534.598V535.979C252.26 537.886 253.381 539.123 255.097 539.123ZM255.438 538.063C254.215 538.063 253.429 537.182 253.429 535.814V534.748C253.429 533.381 254.215 532.506 255.438 532.506C256.655 532.506 257.441 533.381 257.441 534.748V535.814C257.441 537.188 256.655 538.063 255.438 538.063ZM261.276 531.959L265.973 534.563V534.687L261.276 537.291V538.597L267.155 535.131V534.119L261.276 530.653V531.959ZM272.248 541.27L273.533 536.826H271.995L271.147 541.27H272.248ZM206.575 551.959V550.653L200.696 554.119V555.131L206.575 558.597V557.291L201.872 554.687V554.563L206.575 551.959ZM209.59 553.586C209.59 554.639 210.253 555.315 211.593 555.623L212.693 555.876C213.637 556.088 213.999 556.402 213.999 556.99C213.999 557.701 213.356 558.159 212.345 558.159C211.388 558.159 210.731 557.763 210.561 557.079H209.378C209.508 558.351 210.622 559.137 212.304 559.137C214.061 559.137 215.202 558.248 215.202 556.881C215.202 555.808 214.546 555.179 213.104 554.851L212.058 554.611C211.128 554.406 210.745 554.085 210.745 553.518C210.745 552.841 211.354 552.403 212.297 552.403C213.165 552.403 213.787 552.8 213.924 553.449H215.045C214.908 552.212 213.862 551.439 212.317 551.439C210.684 551.439 209.59 552.301 209.59 553.586ZM222.947 557.086C222.742 557.735 222.052 558.132 221.115 558.132C219.851 558.132 219.044 557.257 219.044 555.896V555.596H224.096V554.871C224.096 552.725 222.961 551.446 221.033 551.446C219.146 551.446 217.896 552.731 217.896 554.687V555.801C217.896 557.913 219.078 559.137 221.115 559.137C222.674 559.137 223.85 558.31 224.075 557.086H222.947ZM221.026 552.444C222.223 552.444 222.947 553.299 222.947 554.714H219.044C219.044 553.292 219.789 552.444 221.026 552.444ZM232.688 553.894C232.497 552.369 231.376 551.439 229.735 551.439C227.719 551.439 226.543 552.677 226.543 554.803V555.773C226.543 557.899 227.719 559.137 229.735 559.137C231.376 559.137 232.504 558.214 232.688 556.703H231.54C231.396 557.551 230.672 558.091 229.715 558.091C228.423 558.091 227.705 557.216 227.705 555.623V554.953C227.705 553.36 228.423 552.479 229.715 552.479C230.672 552.479 231.396 553.025 231.54 553.894H232.688ZM237.959 555.678C237.959 553.791 238.93 552.656 240.57 552.656C240.974 552.656 241.452 552.738 241.794 552.861V551.556C241.548 551.453 241.145 551.392 240.721 551.392C239.292 551.392 238.369 552.103 238.096 553.477H237.945V551.583H235.177V552.513H236.824V558.07H235.327V559H240.256V558.07H237.959V555.678ZM248.91 557.086C248.705 557.735 248.015 558.132 247.078 558.132C245.813 558.132 245.007 557.257 245.007 555.896V555.596H250.059V554.871C250.059 552.725 248.924 551.446 246.996 551.446C245.109 551.446 243.858 552.731 243.858 554.687V555.801C243.858 557.913 245.041 559.137 247.078 559.137C248.637 559.137 249.812 558.31 250.038 557.086H248.91ZM246.989 552.444C248.186 552.444 248.91 553.299 248.91 554.714H245.007C245.007 553.292 245.752 552.444 246.989 552.444ZM254.297 549.594V551.604H252.321V552.595H254.297V556.792C254.297 558.337 255.151 559.034 256.99 559.034C257.346 559.034 258.248 559 258.433 558.966V557.981C258.234 558.002 257.489 558.022 257.072 558.022C256.026 558.022 255.459 557.585 255.459 556.778V552.595H258.453V551.604H255.445V549.594H254.297ZM261.276 551.959L265.973 554.563V554.687L261.276 557.291V558.597L267.155 555.131V554.119L261.276 550.653V551.959ZM272.248 561.27L273.533 556.826H271.995L271.147 561.27H272.248ZM206.671 571.583H205.509V575.951C205.509 577.216 204.688 578.07 203.465 578.07C202.31 578.07 201.763 577.441 201.763 576.102V571.583H200.601V576.396C200.601 578.173 201.476 579.137 203.089 579.137C204.217 579.137 205.064 578.617 205.461 577.694H205.557V579H206.671V571.583ZM209.59 573.586C209.59 574.639 210.253 575.315 211.593 575.623L212.693 575.876C213.637 576.088 213.999 576.402 213.999 576.99C213.999 577.701 213.356 578.159 212.345 578.159C211.388 578.159 210.731 577.763 210.561 577.079H209.378C209.508 578.351 210.622 579.137 212.304 579.137C214.061 579.137 215.202 578.248 215.202 576.881C215.202 575.808 214.546 575.179 213.104 574.851L212.058 574.611C211.128 574.406 210.745 574.085 210.745 573.518C210.745 572.841 211.354 572.403 212.297 572.403C213.165 572.403 213.787 572.8 213.924 573.449H215.045C214.908 572.212 213.862 571.439 212.317 571.439C210.684 571.439 209.59 572.301 209.59 573.586ZM222.947 577.086C222.742 577.735 222.052 578.132 221.115 578.132C219.851 578.132 219.044 577.257 219.044 575.896V575.596H224.096V574.871C224.096 572.725 222.961 571.446 221.033 571.446C219.146 571.446 217.896 572.731 217.896 574.687V575.801C217.896 577.913 219.078 579.137 221.115 579.137C222.674 579.137 223.85 578.31 224.075 577.086H222.947ZM221.026 572.444C222.223 572.444 222.947 573.299 222.947 574.714H219.044C219.044 573.292 219.789 572.444 221.026 572.444ZM229.305 575.678C229.305 573.791 230.275 572.656 231.916 572.656C232.319 572.656 232.798 572.738 233.14 572.861V571.556C232.894 571.453 232.49 571.392 232.066 571.392C230.638 571.392 229.715 572.103 229.441 573.477H229.291V571.583H226.522V572.513H228.17V578.07H226.673V579H231.602V578.07H229.305V575.678ZM246.442 579.123C247.502 579.123 248.281 578.686 248.664 577.865H248.794V579H249.936V568.671H248.753V572.731H248.63C248.309 571.918 247.516 571.46 246.442 571.46C244.727 571.46 243.605 572.697 243.605 574.598V575.979C243.605 577.886 244.727 579.123 246.442 579.123ZM246.784 578.063C245.561 578.063 244.774 577.182 244.774 575.814V574.748C244.774 573.381 245.561 572.506 246.784 572.506C248.001 572.506 248.787 573.381 248.787 574.748V575.814C248.787 577.188 248.001 578.063 246.784 578.063ZM257.564 577.086C257.359 577.735 256.669 578.132 255.732 578.132C254.468 578.132 253.661 577.257 253.661 575.896V575.596H258.713V574.871C258.713 572.725 257.578 571.446 255.65 571.446C253.764 571.446 252.513 572.731 252.513 574.687V575.801C252.513 577.913 253.695 579.137 255.732 579.137C257.291 579.137 258.467 578.31 258.692 577.086H257.564ZM255.644 572.444C256.84 572.444 257.564 573.299 257.564 574.714H253.661C253.661 573.292 254.406 572.444 255.644 572.444ZM262.951 569.594V571.604H260.976V572.595H262.951V576.792C262.951 578.337 263.806 579.034 265.645 579.034C266 579.034 266.902 579 267.087 578.966V577.981C266.889 578.002 266.144 578.022 265.727 578.022C264.681 578.022 264.113 577.585 264.113 576.778V572.595H267.107V571.604H264.1V569.594H262.951ZM272.118 579.13C273.198 579.13 274.005 578.686 274.36 577.893H274.477V579.007H275.584V573.928C275.584 572.383 274.586 571.494 272.843 571.494C271.325 571.494 270.177 572.308 270.04 573.497H271.182C271.373 572.861 271.975 572.499 272.829 572.499C273.861 572.499 274.429 573.012 274.429 573.941V574.611L272.392 574.714C270.703 574.803 269.76 575.582 269.76 576.895C269.76 578.241 270.703 579.13 272.118 579.13ZM272.453 578.111C271.517 578.111 270.936 577.633 270.936 576.854C270.936 576.081 271.482 575.637 272.521 575.589L274.429 575.5V576.375C274.429 577.366 273.574 578.111 272.453 578.111ZM281.654 569.765C282.201 569.765 282.618 569.354 282.618 568.808C282.618 568.268 282.201 567.857 281.654 567.857C281.107 567.857 280.69 568.268 280.69 568.808C280.69 569.354 281.107 569.765 281.654 569.765ZM284.765 579V578.036H282.311V571.583H278.64V572.547H281.162V578.036H278.619V579H284.765ZM293.419 579V578.036H290.972V568.671H287.294V569.635H289.81V578.036H287.273V579H293.419ZM296.133 573.586C296.133 574.639 296.796 575.315 298.136 575.623L299.236 575.876C300.18 576.088 300.542 576.402 300.542 576.99C300.542 577.701 299.899 578.159 298.888 578.159C297.931 578.159 297.274 577.763 297.104 577.079H295.921C296.051 578.351 297.165 579.137 298.847 579.137C300.604 579.137 301.745 578.248 301.745 576.881C301.745 575.808 301.089 575.179 299.646 574.851L298.601 574.611C297.671 574.406 297.288 574.085 297.288 573.518C297.288 572.841 297.896 572.403 298.84 572.403C299.708 572.403 300.33 572.8 300.467 573.449H301.588C301.451 572.212 300.405 571.439 298.86 571.439C297.227 571.439 296.133 572.301 296.133 573.586ZM187.817 594.064C187.817 591.747 187.12 589.73 185.76 588.186H184.604C186.02 590.175 186.614 591.918 186.614 594.064C186.614 596.211 186.02 597.954 184.604 599.943H185.76C187.12 598.398 187.817 596.389 187.817 594.064Z" fill="#121314"/>
<rect x="172" y="494" width="185" height="120" rx="6" stroke="#F6F6F6" stroke-width="4"/>
<path d="M276.04 642.303C275.932 642.557 276.049 642.851 276.303 642.96L280.439 644.732C280.693 644.841 280.987 644.723 281.096 644.47C281.205 644.216 281.087 643.922 280.833 643.813L277.157 642.237L278.732 638.561C278.841 638.307 278.723 638.013 278.47 637.904C278.216 637.795 277.922 637.913 277.813 638.167L276.04 642.303ZM276.339 624.473C278.395 625.172 280.648 626.167 282.56 627.383C284.484 628.607 285.999 630.015 286.668 631.516C286.998 632.256 287.122 633.016 286.993 633.797C286.864 634.58 286.476 635.421 285.727 636.311C284.218 638.104 281.289 640.046 276.314 642.036L276.686 642.964C281.711 640.954 284.824 638.937 286.492 636.955C287.332 635.957 287.816 634.955 287.98 633.959C288.144 632.961 287.981 632.004 287.582 631.109C286.793 629.339 285.079 627.8 283.096 626.539C281.102 625.27 278.772 624.244 276.661 623.527L276.339 624.473Z" fill="#121314"/>
<path d="M253.003 624.197C253.111 623.943 252.994 623.649 252.74 623.54L248.604 621.768C248.35 621.659 248.056 621.777 247.947 622.03C247.838 622.284 247.956 622.578 248.21 622.687L251.886 624.263L250.311 627.939C250.202 628.193 250.32 628.487 250.573 628.596C250.827 628.705 251.121 628.587 251.23 628.333L253.003 624.197ZM252.704 642.027C250.648 641.328 248.395 640.333 246.483 639.117C244.559 637.893 243.044 636.485 242.375 634.984C242.045 634.244 241.921 633.484 242.05 632.703C242.179 631.92 242.567 631.079 243.316 630.189C244.825 628.396 247.754 626.454 252.729 624.464L252.357 623.536C247.332 625.546 244.219 627.563 242.551 629.545C241.711 630.543 241.227 631.545 241.063 632.541C240.899 633.539 241.062 634.496 241.461 635.391C242.25 637.161 243.964 638.7 245.947 639.961C247.941 641.23 250.271 642.256 252.382 642.973L252.704 642.027Z" fill="#121314"/>
<rect x="435" y="80" width="71" height="36" rx="18" fill="#71BC8F"/>
<path d="M456.229 103.232C458.328 103.232 459.887 102.063 460.215 100.252H458.964C458.649 101.394 457.604 102.098 456.229 102.098C454.329 102.098 453.14 100.546 453.14 98.0713C453.14 95.5967 454.329 94.0381 456.223 94.0381C457.583 94.0381 458.636 94.8379 458.964 96.1094H460.215C459.921 94.209 458.301 92.9033 456.223 92.9033C453.543 92.9033 451.875 94.8857 451.875 98.0713C451.875 101.25 453.55 103.232 456.229 103.232ZM462.197 103H463.373V92.7051H462.197V103ZM465.684 103H466.859V95.6309H465.684V103ZM466.271 94.209C466.723 94.209 467.092 93.8398 467.092 93.3887C467.092 92.9375 466.723 92.5684 466.271 92.5684C465.82 92.5684 465.451 92.9375 465.451 93.3887C465.451 93.8398 465.82 94.209 466.271 94.209ZM472.041 96.54C473.21 96.54 473.989 97.4014 474.017 98.707H469.956C470.045 97.4014 470.865 96.54 472.041 96.54ZM473.982 101.093C473.675 101.742 473.032 102.091 472.082 102.091C470.831 102.091 470.018 101.168 469.956 99.7119V99.6572H475.254V99.2061C475.254 96.916 474.044 95.501 472.055 95.501C470.031 95.501 468.732 97.0049 468.732 99.3223C468.732 101.653 470.011 103.13 472.055 103.13C473.668 103.13 474.816 102.351 475.158 101.093H473.982ZM477.1 103H478.275V98.6387C478.275 97.3467 479.034 96.5605 480.21 96.5605C481.386 96.5605 481.946 97.1895 481.946 98.5156V103H483.122V98.2285C483.122 96.4785 482.199 95.501 480.545 95.501C479.417 95.501 478.699 95.9795 478.33 96.793H478.221V95.6309H477.1V103ZM485.768 93.7236V95.6309H484.578V96.6152H485.768V101.086C485.768 102.494 486.376 103.055 487.894 103.055C488.126 103.055 488.352 103.027 488.584 102.986V101.995C488.365 102.016 488.249 102.022 488.037 102.022C487.271 102.022 486.943 101.653 486.943 100.785V96.6152H488.584V95.6309H486.943V93.7236H485.768Z" fill="#F6F6F6"/>
<rect x="470.25" y="128.25" width="0.5" height="785.5" fill="#97979F" stroke="#97979F" stroke-width="0.5"/>
<rect x="621" y="80" width="110" height="36" rx="18" fill="#9A6AFF"/>
<path d="M642.229 103.232C644.328 103.232 645.887 102.063 646.215 100.252H644.964C644.649 101.394 643.604 102.098 642.229 102.098C640.329 102.098 639.14 100.546 639.14 98.0713C639.14 95.5967 640.329 94.0381 642.223 94.0381C643.583 94.0381 644.636 94.8379 644.964 96.1094H646.215C645.921 94.209 644.301 92.9033 642.223 92.9033C639.543 92.9033 637.875 94.8857 637.875 98.0713C637.875 101.25 639.55 103.232 642.229 103.232ZM651.157 103.13C653.256 103.13 654.555 101.681 654.555 99.3154C654.555 96.9434 653.256 95.501 651.157 95.501C649.059 95.501 647.76 96.9434 647.76 99.3154C647.76 101.681 649.059 103.13 651.157 103.13ZM651.157 102.07C649.763 102.07 648.977 101.059 648.977 99.3154C648.977 97.5654 649.763 96.5605 651.157 96.5605C652.552 96.5605 653.338 97.5654 653.338 99.3154C653.338 101.059 652.552 102.07 651.157 102.07ZM656.4 103H657.576V98.4336C657.576 97.3945 658.39 96.6426 659.511 96.6426C659.743 96.6426 660.167 96.6836 660.263 96.7109V95.5352C660.112 95.5146 659.866 95.501 659.675 95.501C658.697 95.501 657.85 96.0068 657.631 96.7246H657.521V95.6309H656.4V103ZM664.255 103.13C665.273 103.13 666.148 102.645 666.613 101.824H666.723V103H667.844V92.7051H666.668V96.793H666.565C666.148 95.9863 665.28 95.501 664.255 95.501C662.382 95.501 661.158 97.0049 661.158 99.3154C661.158 101.633 662.368 103.13 664.255 103.13ZM664.528 96.5605C665.861 96.5605 666.695 97.627 666.695 99.3154C666.695 101.018 665.868 102.07 664.528 102.07C663.182 102.07 662.375 101.038 662.375 99.3154C662.375 97.5996 663.188 96.5605 664.528 96.5605ZM673.907 97.6475C673.907 98.7139 674.536 99.3086 675.917 99.6436L677.182 99.9512C677.968 100.143 678.351 100.484 678.351 100.99C678.351 101.667 677.64 102.139 676.648 102.139C675.705 102.139 675.117 101.742 674.919 101.12H673.709C673.839 102.344 674.967 103.13 676.607 103.13C678.282 103.13 679.561 102.221 679.561 100.901C679.561 99.8418 678.891 99.2402 677.503 98.9053L676.368 98.6318C675.5 98.4199 675.09 98.1055 675.09 97.5996C675.09 96.9434 675.773 96.499 676.648 96.499C677.537 96.499 678.111 96.8887 678.269 97.4766H679.431C679.273 96.2666 678.2 95.501 676.655 95.501C675.09 95.501 673.907 96.4238 673.907 97.6475ZM684.346 96.54C685.515 96.54 686.294 97.4014 686.321 98.707H682.261C682.35 97.4014 683.17 96.54 684.346 96.54ZM686.287 101.093C685.979 101.742 685.337 102.091 684.387 102.091C683.136 102.091 682.322 101.168 682.261 99.7119V99.6572H687.559V99.2061C687.559 96.916 686.349 95.501 684.359 95.501C682.336 95.501 681.037 97.0049 681.037 99.3223C681.037 101.653 682.315 103.13 684.359 103.13C685.973 103.13 687.121 102.351 687.463 101.093H686.287ZM689.404 103H690.58V98.4336C690.58 97.3945 691.394 96.6426 692.515 96.6426C692.747 96.6426 693.171 96.6836 693.267 96.7109V95.5352C693.116 95.5146 692.87 95.501 692.679 95.501C691.701 95.501 690.854 96.0068 690.635 96.7246H690.525V95.6309H689.404V103ZM700.752 95.6309H699.494L697.478 101.701H697.368L695.352 95.6309H694.094L696.821 103H698.024L700.752 95.6309ZM704.99 96.54C706.159 96.54 706.938 97.4014 706.966 98.707H702.905C702.994 97.4014 703.814 96.54 704.99 96.54ZM706.932 101.093C706.624 101.742 705.981 102.091 705.031 102.091C703.78 102.091 702.967 101.168 702.905 99.7119V99.6572H708.203V99.2061C708.203 96.916 706.993 95.501 705.004 95.501C702.98 95.501 701.682 97.0049 701.682 99.3223C701.682 101.653 702.96 103.13 705.004 103.13C706.617 103.13 707.766 102.351 708.107 101.093H706.932ZM710.049 103H711.225V98.4336C711.225 97.3945 712.038 96.6426 713.159 96.6426C713.392 96.6426 713.815 96.6836 713.911 96.7109V95.5352C713.761 95.5146 713.515 95.501 713.323 95.501C712.346 95.501 711.498 96.0068 711.279 96.7246H711.17V95.6309H710.049V103Z" fill="#F6F6F6"/>
<rect x="675.75" y="128.25" width="0.5" height="785.5" fill="#97979F" stroke="#97979F" stroke-width="0.5"/>
<path d="M339.336 34V29.8516L343.258 22.7266H340.703L338.227 27.4453H338.086L335.602 22.7266H333.047L336.977 29.8516V34H339.336ZM347.258 34.1875C349.906 34.1875 351.5 32.5078 351.5 29.6875C351.5 26.8906 349.883 25.1953 347.258 25.1953C344.633 25.1953 343.016 26.8984 343.016 29.6875C343.016 32.5078 344.609 34.1875 347.258 34.1875ZM347.258 32.3281C346.039 32.3281 345.352 31.3672 345.352 29.6875C345.352 28.0312 346.047 27.0547 347.258 27.0547C348.461 27.0547 349.164 28.0312 349.164 29.6875C349.164 31.3594 348.469 32.3281 347.258 32.3281ZM361.156 25.3828H358.883V30.3516C358.883 31.5 358.273 32.2109 357.141 32.2109C356.094 32.2109 355.555 31.6016 355.555 30.4141V25.3828H353.281V31C353.281 33 354.438 34.1875 356.297 34.1875C357.602 34.1875 358.406 33.6172 358.812 32.6172H358.953V34H361.156V25.3828ZM363.438 34H365.711V29.2266C365.711 28.0156 366.562 27.2812 367.805 27.2812C368.172 27.2812 368.703 27.3516 368.883 27.4219V25.3516C368.688 25.2812 368.305 25.2422 367.992 25.2422C366.898 25.2422 366.008 25.8984 365.781 26.7578H365.641V25.3828H363.438V34ZM377.641 32.4219C376.852 32.4219 376.297 32.0312 376.297 31.3906C376.297 30.7734 376.773 30.4219 377.75 30.3516L379.492 30.2422V30.875C379.492 31.75 378.695 32.4219 377.641 32.4219ZM376.891 34.1328C378.008 34.1328 378.945 33.6641 379.391 32.875H379.531V34H381.734V28.1172C381.734 26.2734 380.445 25.1953 378.164 25.1953C376 25.1953 374.539 26.1953 374.391 27.7891H376.484C376.672 27.2734 377.219 26.9922 378.039 26.9922C378.977 26.9922 379.492 27.3984 379.492 28.1172V28.8203L377.406 28.9453C375.266 29.0703 374.07 29.9766 374.07 31.5391C374.07 33.1172 375.234 34.1328 376.891 34.1328ZM388.945 25.2422C387.758 25.2422 386.781 25.8281 386.312 26.7969H386.172V25.3828H383.969V36.8594H386.242V32.6797H386.383C386.805 33.5938 387.75 34.1328 388.984 34.1328C391.141 34.1328 392.461 32.4688 392.461 29.6875C392.461 26.8984 391.125 25.2422 388.945 25.2422ZM388.172 32.2344C386.969 32.2344 386.219 31.2734 386.219 29.6953C386.219 28.1172 386.969 27.1484 388.18 27.1484C389.391 27.1484 390.125 28.1094 390.125 29.6875C390.125 31.2812 389.398 32.2344 388.172 32.2344ZM399.289 25.2422C398.102 25.2422 397.125 25.8281 396.656 26.7969H396.516V25.3828H394.312V36.8594H396.586V32.6797H396.727C397.148 33.5938 398.094 34.1328 399.328 34.1328C401.484 34.1328 402.805 32.4688 402.805 29.6875C402.805 26.8984 401.469 25.2422 399.289 25.2422ZM398.516 32.2344C397.312 32.2344 396.562 31.2734 396.562 29.6953C396.562 28.1172 397.312 27.1484 398.523 27.1484C399.734 27.1484 400.469 28.1094 400.469 29.6875C400.469 31.2812 399.742 32.2344 398.516 32.2344Z" fill="#121314"/>
<path d="M663.172 34.2891C665.891 34.2891 667.875 32.6094 668.07 30.1719H665.773C665.547 31.4141 664.531 32.2109 663.18 32.2109C661.398 32.2109 660.297 30.7344 660.297 28.3594C660.297 25.9844 661.398 24.5156 663.172 24.5156C664.516 24.5156 665.539 25.3672 665.766 26.6641H668.062C667.891 24.2109 665.844 22.4375 663.172 22.4375C659.898 22.4375 657.883 24.6953 657.883 28.3594C657.883 32.0312 659.906 34.2891 663.172 34.2891ZM673.836 34.1875C676.484 34.1875 678.078 32.5078 678.078 29.6875C678.078 26.8906 676.461 25.1953 673.836 25.1953C671.211 25.1953 669.594 26.8984 669.594 29.6875C669.594 32.5078 671.188 34.1875 673.836 34.1875ZM673.836 32.3281C672.617 32.3281 671.93 31.3672 671.93 29.6875C671.93 28.0312 672.625 27.0547 673.836 27.0547C675.039 27.0547 675.742 28.0312 675.742 29.6875C675.742 31.3594 675.047 32.3281 673.836 32.3281ZM679.938 34H682.211V29.2266C682.211 28.0156 683.062 27.2812 684.305 27.2812C684.672 27.2812 685.203 27.3516 685.383 27.4219V25.3516C685.188 25.2812 684.805 25.2422 684.492 25.2422C683.398 25.2422 682.508 25.8984 682.281 26.7578H682.141V25.3828H679.938V34ZM689.789 34.1328C690.984 34.1328 691.961 33.5781 692.422 32.6484H692.562V34H694.766V22.0938H692.492V26.7578H692.359C691.914 25.8047 690.953 25.2422 689.789 25.2422C687.625 25.2422 686.281 26.9375 686.281 29.6797C686.281 32.4297 687.617 34.1328 689.789 34.1328ZM690.562 27.1484C691.773 27.1484 692.516 28.125 692.516 29.6953C692.516 31.2734 691.781 32.2344 690.562 32.2344C689.344 32.2344 688.617 31.2812 688.617 29.6875C688.617 28.1094 689.352 27.1484 690.562 27.1484Z" fill="#121314"/>
<rect x="277" y="192" width="181" height="36" rx="4" fill="#DADCE0"/>
<path d="M286.354 205.136V215H287.563V211.459H289.607C291.535 211.459 292.8 210.208 292.8 208.301C292.8 206.387 291.549 205.136 289.635 205.136H286.354ZM287.563 206.209H289.334C290.77 206.209 291.576 206.954 291.576 208.301C291.576 209.641 290.77 210.386 289.334 210.386H287.563V206.209ZM301.598 210.864V209.271C301.598 206.544 300.224 204.931 297.981 204.931C295.739 204.931 294.365 206.544 294.365 209.271V210.864C294.365 213.592 295.739 215.205 297.981 215.205C300.224 215.205 301.598 213.592 301.598 210.864ZM297.981 214.063C296.484 214.063 295.582 212.915 295.582 210.857V209.278C295.582 207.221 296.484 206.072 297.981 206.072C299.479 206.072 300.381 207.221 300.381 209.278V210.857C300.381 212.915 299.479 214.063 297.981 214.063ZM303.259 212.375C303.361 214.125 304.694 215.205 306.731 215.205C308.796 215.205 310.129 214.077 310.129 212.307C310.129 210.823 309.322 209.989 307.408 209.518L306.547 209.299C305.262 208.978 304.715 208.485 304.715 207.631C304.715 206.626 305.474 206.024 306.738 206.024C307.9 206.024 308.652 206.626 308.775 207.645H309.951C309.869 206.004 308.591 204.931 306.731 204.931C304.763 204.931 303.498 206.018 303.498 207.699C303.498 209.128 304.325 209.996 306.157 210.461L307.005 210.673C308.338 211.001 308.912 211.514 308.912 212.368C308.912 213.428 308.051 214.111 306.738 214.111C305.426 214.111 304.558 213.455 304.435 212.375H303.259ZM315.892 215V206.243H318.872V205.136H311.708V206.243H314.688V215H315.892ZM330.76 215.937L335.572 204.199H334.431L329.625 215.937H330.76ZM340.501 215.13C341.581 215.13 342.388 214.686 342.743 213.893H342.859V215.007H343.967V209.928C343.967 208.383 342.969 207.494 341.226 207.494C339.708 207.494 338.56 208.308 338.423 209.497H339.564C339.756 208.861 340.357 208.499 341.212 208.499C342.244 208.499 342.812 209.012 342.812 209.941V210.611L340.774 210.714C339.086 210.803 338.143 211.582 338.143 212.895C338.143 214.241 339.086 215.13 340.501 215.13ZM340.836 214.111C339.899 214.111 339.318 213.633 339.318 212.854C339.318 212.081 339.865 211.637 340.904 211.589L342.812 211.5V212.375C342.812 213.366 341.957 214.111 340.836 214.111ZM352.942 207.583H351.78V211.951C351.78 213.216 350.96 214.07 349.736 214.07C348.581 214.07 348.034 213.441 348.034 212.102V207.583H346.872V212.396C346.872 214.173 347.747 215.137 349.36 215.137C350.488 215.137 351.336 214.617 351.732 213.694H351.828V215H352.942V207.583ZM357.297 205.594V207.604H355.321V208.595H357.297V212.792C357.297 214.337 358.151 215.034 359.99 215.034C360.346 215.034 361.248 215 361.433 214.966V213.981C361.234 214.002 360.489 214.022 360.072 214.022C359.026 214.022 358.459 213.585 358.459 212.778V208.595H361.453V207.604H358.445V205.594H357.297ZM364.174 215H365.336V210.639C365.336 209.374 366.163 208.52 367.387 208.52C368.549 208.52 369.096 209.155 369.096 210.488V215H370.258V210.194C370.258 208.424 369.383 207.453 367.77 207.453C366.635 207.453 365.78 207.973 365.391 208.896H365.295V204.671H364.174V215ZM379.486 211.165V210.085H372.254V211.165H379.486ZM386.527 213.086C386.322 213.735 385.632 214.132 384.695 214.132C383.431 214.132 382.624 213.257 382.624 211.896V211.596H387.676V210.871C387.676 208.725 386.541 207.446 384.613 207.446C382.727 207.446 381.476 208.731 381.476 210.687V211.801C381.476 213.913 382.658 215.137 384.695 215.137C386.254 215.137 387.43 214.31 387.655 213.086H386.527ZM384.606 208.444C385.803 208.444 386.527 209.299 386.527 210.714H382.624C382.624 209.292 383.369 208.444 384.606 208.444ZM390.144 215H391.306V210.632C391.306 209.367 392.126 208.513 393.35 208.513C394.505 208.513 395.052 209.142 395.052 210.481V215H396.214V210.188C396.214 208.41 395.339 207.446 393.726 207.446C392.598 207.446 391.75 207.966 391.354 208.889H391.258V207.583H390.144V215ZM401.368 215.123C402.428 215.123 403.207 214.686 403.59 213.865H403.72V215H404.861V204.671H403.679V208.731H403.556C403.234 207.918 402.441 207.46 401.368 207.46C399.652 207.46 398.531 208.697 398.531 210.598V211.979C398.531 213.886 399.652 215.123 401.368 215.123ZM401.71 214.063C400.486 214.063 399.7 213.182 399.7 211.814V210.748C399.7 209.381 400.486 208.506 401.71 208.506C402.927 208.506 403.713 209.381 403.713 210.748V211.814C403.713 213.188 402.927 214.063 401.71 214.063ZM410.952 207.46C409.893 207.46 409.12 207.897 408.73 208.718H408.607V207.583H407.459V217.502H408.642V213.852H408.771C409.093 214.665 409.879 215.123 410.952 215.123C412.668 215.123 413.789 213.886 413.789 211.985V210.604C413.789 208.697 412.668 207.46 410.952 207.46ZM410.617 208.526C411.841 208.526 412.62 209.401 412.62 210.769V211.835C412.62 213.202 411.841 214.084 410.617 214.084C409.394 214.084 408.614 213.209 408.614 211.835V210.769C408.614 209.401 409.394 208.526 410.617 208.526ZM419.142 215.137C421.104 215.137 422.354 213.858 422.354 211.855V210.734C422.354 208.731 421.104 207.453 419.142 207.453C417.18 207.453 415.929 208.731 415.929 210.734V211.855C415.929 213.858 417.18 215.137 419.142 215.137ZM419.142 208.479C420.413 208.479 421.206 209.381 421.206 210.837V211.746C421.206 213.209 420.413 214.104 419.142 214.104C417.87 214.104 417.077 213.209 417.077 211.746V210.837C417.077 209.381 417.87 208.479 419.142 208.479ZM427.926 205.765C428.473 205.765 428.89 205.354 428.89 204.808C428.89 204.268 428.473 203.857 427.926 203.857C427.379 203.857 426.962 204.268 426.962 204.808C426.962 205.354 427.379 205.765 427.926 205.765ZM431.036 215V214.036H428.582V207.583H424.911V208.547H427.434V214.036H424.891V215H431.036ZM433.415 215H434.577V210.632C434.577 209.367 435.397 208.513 436.621 208.513C437.776 208.513 438.323 209.142 438.323 210.481V215H439.485V210.188C439.485 208.41 438.61 207.446 436.997 207.446C435.869 207.446 435.021 207.966 434.625 208.889H434.529V207.583H433.415V215ZM443.84 205.594V207.604H441.864V208.595H443.84V212.792C443.84 214.337 444.694 215.034 446.533 215.034C446.889 215.034 447.791 215 447.976 214.966V213.981C447.777 214.002 447.032 214.022 446.615 214.022C445.569 214.022 445.002 213.585 445.002 212.778V208.595H447.996V207.604H444.988V205.594H443.84Z" fill="#121314"/>
<path d="M276.646 239.646C276.451 239.842 276.451 240.158 276.646 240.354L279.828 243.536C280.024 243.731 280.34 243.731 280.536 243.536C280.731 243.34 280.731 243.024 280.536 242.828L277.707 240L280.536 237.172C280.731 236.976 280.731 236.66 280.536 236.464C280.34 236.269 280.024 236.269 279.828 236.464L276.646 239.646ZM458 239.5L277 239.5L277 240.5L458 240.5L458 239.5Z" fill="#121314"/>
<rect x="84" y="256" width="155" height="36" rx="4" fill="#DADCE0"/>
<path d="M98.6719 275.979C98.6719 277.271 97.8379 278.063 96.4912 278.063C94.8984 278.063 94.0645 276.99 94.0645 274.946V273.189C94.0645 271.146 94.8916 270.072 96.4844 270.072C97.7422 270.072 98.6172 270.94 98.6719 272.226H99.8887C99.8408 270.182 98.5557 268.931 96.5049 268.931C94.1875 268.931 92.8477 270.489 92.8477 273.189V274.946C92.8477 277.646 94.1875 279.205 96.5049 279.205C98.4941 279.205 99.8887 277.934 99.8887 276.081V273.982H96.3955V275.015H98.6719V275.979ZM106.984 277.086C106.779 277.735 106.089 278.132 105.152 278.132C103.888 278.132 103.081 277.257 103.081 275.896V275.596H108.133V274.871C108.133 272.725 106.998 271.446 105.07 271.446C103.184 271.446 101.933 272.731 101.933 274.687V275.801C101.933 277.913 103.115 279.137 105.152 279.137C106.711 279.137 107.887 278.31 108.112 277.086H106.984ZM105.063 272.444C106.26 272.444 106.984 273.299 106.984 274.714H103.081C103.081 273.292 103.826 272.444 105.063 272.444ZM112.371 269.594V271.604H110.396V272.595H112.371V276.792C112.371 278.337 113.226 279.034 115.064 279.034C115.42 279.034 116.322 279 116.507 278.966V277.981C116.309 278.002 115.563 278.022 115.146 278.022C114.101 278.022 113.533 277.585 113.533 276.778V272.595H116.527V271.604H113.52V269.594H112.371ZM133.979 271.583H132.817V275.951C132.817 277.216 131.997 278.07 130.773 278.07C129.618 278.07 129.071 277.441 129.071 276.102V271.583H127.909V276.396C127.909 278.173 128.784 279.137 130.397 279.137C131.525 279.137 132.373 278.617 132.77 277.694H132.865V279H133.979V271.583ZM136.898 273.586C136.898 274.639 137.562 275.315 138.901 275.623L140.002 275.876C140.945 276.088 141.308 276.402 141.308 276.99C141.308 277.701 140.665 278.159 139.653 278.159C138.696 278.159 138.04 277.763 137.869 277.079H136.687C136.816 278.351 137.931 279.137 139.612 279.137C141.369 279.137 142.511 278.248 142.511 276.881C142.511 275.808 141.854 275.179 140.412 274.851L139.366 274.611C138.437 274.406 138.054 274.085 138.054 273.518C138.054 272.841 138.662 272.403 139.605 272.403C140.474 272.403 141.096 272.8 141.232 273.449H142.354C142.217 272.212 141.171 271.439 139.626 271.439C137.992 271.439 136.898 272.301 136.898 273.586ZM150.256 277.086C150.051 277.735 149.36 278.132 148.424 278.132C147.159 278.132 146.353 277.257 146.353 275.896V275.596H151.404V274.871C151.404 272.725 150.27 271.446 148.342 271.446C146.455 271.446 145.204 272.731 145.204 274.687V275.801C145.204 277.913 146.387 279.137 148.424 279.137C149.982 279.137 151.158 278.31 151.384 277.086H150.256ZM148.335 272.444C149.531 272.444 150.256 273.299 150.256 274.714H146.353C146.353 273.292 147.098 272.444 148.335 272.444ZM156.613 275.678C156.613 273.791 157.584 272.656 159.225 272.656C159.628 272.656 160.106 272.738 160.448 272.861V271.556C160.202 271.453 159.799 271.392 159.375 271.392C157.946 271.392 157.023 272.103 156.75 273.477H156.6V271.583H153.831V272.513H155.479V278.07H153.981V279H158.91V278.07H156.613V275.678ZM173.751 279.123C174.811 279.123 175.59 278.686 175.973 277.865H176.103V279H177.244V268.671H176.062V272.731H175.938C175.617 271.918 174.824 271.46 173.751 271.46C172.035 271.46 170.914 272.697 170.914 274.598V275.979C170.914 277.886 172.035 279.123 173.751 279.123ZM174.093 278.063C172.869 278.063 172.083 277.182 172.083 275.814V274.748C172.083 273.381 172.869 272.506 174.093 272.506C175.31 272.506 176.096 273.381 176.096 274.748V275.814C176.096 277.188 175.31 278.063 174.093 278.063ZM184.873 277.086C184.668 277.735 183.978 278.132 183.041 278.132C181.776 278.132 180.97 277.257 180.97 275.896V275.596H186.021V274.871C186.021 272.725 184.887 271.446 182.959 271.446C181.072 271.446 179.821 272.731 179.821 274.687V275.801C179.821 277.913 181.004 279.137 183.041 279.137C184.6 279.137 185.775 278.31 186.001 277.086H184.873ZM182.952 272.444C184.148 272.444 184.873 273.299 184.873 274.714H180.97C180.97 273.292 181.715 272.444 182.952 272.444ZM190.26 269.594V271.604H188.284V272.595H190.26V276.792C190.26 278.337 191.114 279.034 192.953 279.034C193.309 279.034 194.211 279 194.396 278.966V277.981C194.197 278.002 193.452 278.022 193.035 278.022C191.989 278.022 191.422 277.585 191.422 276.778V272.595H194.416V271.604H191.408V269.594H190.26ZM199.427 279.13C200.507 279.13 201.313 278.686 201.669 277.893H201.785V279.007H202.893V273.928C202.893 272.383 201.895 271.494 200.151 271.494C198.634 271.494 197.485 272.308 197.349 273.497H198.49C198.682 272.861 199.283 272.499 200.138 272.499C201.17 272.499 201.737 273.012 201.737 273.941V274.611L199.7 274.714C198.012 274.803 197.068 275.582 197.068 276.895C197.068 278.241 198.012 279.13 199.427 279.13ZM199.762 278.111C198.825 278.111 198.244 277.633 198.244 276.854C198.244 276.081 198.791 275.637 199.83 275.589L201.737 275.5V276.375C201.737 277.366 200.883 278.111 199.762 278.111ZM208.963 269.765C209.51 269.765 209.927 269.354 209.927 268.808C209.927 268.268 209.51 267.857 208.963 267.857C208.416 267.857 207.999 268.268 207.999 268.808C207.999 269.354 208.416 269.765 208.963 269.765ZM212.073 279V278.036H209.619V271.583H205.948V272.547H208.471V278.036H205.928V279H212.073ZM220.728 279V278.036H218.28V268.671H214.603V269.635H217.118V278.036H214.582V279H220.728ZM223.441 273.586C223.441 274.639 224.104 275.315 225.444 275.623L226.545 275.876C227.488 276.088 227.851 276.402 227.851 276.99C227.851 277.701 227.208 278.159 226.196 278.159C225.239 278.159 224.583 277.763 224.412 277.079H223.229C223.359 278.351 224.474 279.137 226.155 279.137C227.912 279.137 229.054 278.248 229.054 276.881C229.054 275.808 228.397 275.179 226.955 274.851L225.909 274.611C224.979 274.406 224.597 274.085 224.597 273.518C224.597 272.841 225.205 272.403 226.148 272.403C227.017 272.403 227.639 272.8 227.775 273.449H228.896C228.76 272.212 227.714 271.439 226.169 271.439C224.535 271.439 223.441 272.301 223.441 273.586Z" fill="#121314"/>
<path d="M70.6465 303.646C70.4512 303.842 70.4512 304.158 70.6465 304.354L73.8284 307.536C74.0237 307.731 74.3403 307.731 74.5355 307.536C74.7308 307.34 74.7308 307.024 74.5355 306.828L71.7071 304L74.5355 301.172C74.7308 300.976 74.7308 300.66 74.5355 300.464C74.3403 300.269 74.0237 300.269 73.8284 300.464L70.6465 303.646ZM252 303.5L71 303.5L71 304.5L252 304.5L252 303.5Z" fill="#121314"/>
<path d="M252.354 319.646C252.549 319.842 252.549 320.158 252.354 320.354L249.172 323.536C248.976 323.731 248.66 323.731 248.464 323.536C248.269 323.34 248.269 323.024 248.464 322.828L251.293 320L248.464 317.172C248.269 316.976 248.269 316.66 248.464 316.464C248.66 316.269 248.976 316.269 249.172 316.464L252.354 319.646ZM71 319.5L252 319.5L252 320.5L71 320.5L71 319.5Z" fill="#121314"/>
<rect x="307.5" y="658" width="120" height="36" rx="4" fill="#DADCE0"/>
<path d="M320.203 677.069L322.042 681H323.402L321.393 676.823C322.514 676.454 323.231 675.395 323.231 674.103C323.231 672.271 322.008 671.136 320.053 671.136H316.744V681H317.934V677.069H320.203ZM317.934 672.209H319.943C321.263 672.209 322.015 672.906 322.015 674.13C322.015 675.36 321.249 676.051 319.889 676.051H317.934V672.209ZM330.484 679.086C330.279 679.735 329.589 680.132 328.652 680.132C327.388 680.132 326.581 679.257 326.581 677.896V677.596H331.633V676.871C331.633 674.725 330.498 673.446 328.57 673.446C326.684 673.446 325.433 674.731 325.433 676.687V677.801C325.433 679.913 326.615 681.137 328.652 681.137C330.211 681.137 331.387 680.31 331.612 679.086H330.484ZM328.563 674.444C329.76 674.444 330.484 675.299 330.484 676.714H326.581C326.581 675.292 327.326 674.444 328.563 674.444ZM335.871 671.594V673.604H333.896V674.595H335.871V678.792C335.871 680.337 336.726 681.034 338.564 681.034C338.92 681.034 339.822 681 340.007 680.966V679.981C339.809 680.002 339.063 680.022 338.646 680.022C337.601 680.022 337.033 679.585 337.033 678.778V674.595H340.027V673.604H337.02V671.594H335.871ZM348.825 673.583H347.663V677.951C347.663 679.216 346.843 680.07 345.619 680.07C344.464 680.07 343.917 679.441 343.917 678.102V673.583H342.755V678.396C342.755 680.173 343.63 681.137 345.243 681.137C346.371 681.137 347.219 680.617 347.615 679.694H347.711V681H348.825V673.583ZM354.15 677.678C354.15 675.791 355.121 674.656 356.762 674.656C357.165 674.656 357.644 674.738 357.985 674.861V673.556C357.739 673.453 357.336 673.392 356.912 673.392C355.483 673.392 354.561 674.103 354.287 675.477H354.137V673.583H351.368V674.513H353.016V680.07H351.519V681H356.447V680.07H354.15V677.678ZM360.063 681H361.226V676.632C361.226 675.367 362.046 674.513 363.27 674.513C364.425 674.513 364.972 675.142 364.972 676.481V681H366.134V676.188C366.134 674.41 365.259 673.446 363.646 673.446C362.518 673.446 361.67 673.966 361.273 674.889H361.178V673.583H360.063V681ZM379.143 671.594V673.604H377.167V674.595H379.143V678.792C379.143 680.337 379.997 681.034 381.836 681.034C382.191 681.034 383.094 681 383.278 680.966V679.981C383.08 680.002 382.335 680.022 381.918 680.022C380.872 680.022 380.305 679.585 380.305 678.778V674.595H383.299V673.604H380.291V671.594H379.143ZM389.062 681.137C391.023 681.137 392.274 679.858 392.274 677.855V676.734C392.274 674.731 391.023 673.453 389.062 673.453C387.1 673.453 385.849 674.731 385.849 676.734V677.855C385.849 679.858 387.1 681.137 389.062 681.137ZM389.062 674.479C390.333 674.479 391.126 675.381 391.126 676.837V677.746C391.126 679.209 390.333 680.104 389.062 680.104C387.79 680.104 386.997 679.209 386.997 677.746V676.837C386.997 675.381 387.79 674.479 389.062 674.479ZM396.479 676.912H396.39V670.671H395.228V681H396.39V678.3L397.415 677.315L399.944 681H401.325L398.242 676.522L401.12 673.583H399.712L396.479 676.912ZM408.373 679.086C408.168 679.735 407.478 680.132 406.541 680.132C405.276 680.132 404.47 679.257 404.47 677.896V677.596H409.521V676.871C409.521 674.725 408.387 673.446 406.459 673.446C404.572 673.446 403.321 674.731 403.321 676.687V677.801C403.321 679.913 404.504 681.137 406.541 681.137C408.1 681.137 409.275 680.31 409.501 679.086H408.373ZM406.452 674.444C407.648 674.444 408.373 675.299 408.373 676.714H404.47C404.47 675.292 405.215 674.444 406.452 674.444ZM411.989 681H413.151V676.632C413.151 675.367 413.972 674.513 415.195 674.513C416.351 674.513 416.897 675.142 416.897 676.481V681H418.06V676.188C418.06 674.41 417.185 673.446 415.571 673.446C414.443 673.446 413.596 673.966 413.199 674.889H413.104V673.583H411.989V681Z" fill="#121314"/>
<path d="M458.354 705.646C458.549 705.842 458.549 706.158 458.354 706.354L455.172 709.536C454.976 709.731 454.66 709.731 454.464 709.536C454.269 709.34 454.269 709.024 454.464 708.828L457.293 706L454.464 703.172C454.269 702.976 454.269 702.66 454.464 702.464C454.66 702.269 454.976 702.269 455.172 702.464L458.354 705.646ZM277 705.5L458 705.5L458 706.5L277 706.5L277 705.5Z" fill="#121314"/>
<rect x="483" y="722" width="181" height="36" rx="4" fill="#DADCE0"/>
<path d="M498.417 739.894C498.226 738.369 497.104 737.439 495.464 737.439C493.447 737.439 492.271 738.677 492.271 740.803V741.773C492.271 743.899 493.447 745.137 495.464 745.137C497.104 745.137 498.232 744.214 498.417 742.703H497.269C497.125 743.551 496.4 744.091 495.443 744.091C494.151 744.091 493.434 743.216 493.434 741.623V740.953C493.434 739.36 494.151 738.479 495.443 738.479C496.4 738.479 497.125 739.025 497.269 739.894H498.417ZM503.981 745.137C505.943 745.137 507.194 743.858 507.194 741.855V740.734C507.194 738.731 505.943 737.453 503.981 737.453C502.02 737.453 500.769 738.731 500.769 740.734V741.855C500.769 743.858 502.02 745.137 503.981 745.137ZM503.981 738.479C505.253 738.479 506.046 739.381 506.046 740.837V741.746C506.046 743.209 505.253 744.104 503.981 744.104C502.71 744.104 501.917 743.209 501.917 741.746V740.837C501.917 739.381 502.71 738.479 503.981 738.479ZM512.342 741.678C512.342 739.791 513.312 738.656 514.953 738.656C515.356 738.656 515.835 738.738 516.177 738.861V737.556C515.931 737.453 515.527 737.392 515.104 737.392C513.675 737.392 512.752 738.103 512.479 739.477H512.328V737.583H509.56V738.513H511.207V744.07H509.71V745H514.639V744.07H512.342V741.678ZM520.825 745.123C521.885 745.123 522.664 744.686 523.047 743.865H523.177V745H524.318V734.671H523.136V738.731H523.013C522.691 737.918 521.898 737.46 520.825 737.46C519.109 737.46 517.988 738.697 517.988 740.598V741.979C517.988 743.886 519.109 745.123 520.825 745.123ZM521.167 744.063C519.943 744.063 519.157 743.182 519.157 741.814V740.748C519.157 739.381 519.943 738.506 521.167 738.506C522.384 738.506 523.17 739.381 523.17 740.748V741.814C523.17 743.188 522.384 744.063 521.167 744.063ZM526.567 742.375C526.67 744.125 528.003 745.205 530.04 745.205C532.104 745.205 533.438 744.077 533.438 742.307C533.438 740.823 532.631 739.989 530.717 739.518L529.855 739.299C528.57 738.978 528.023 738.485 528.023 737.631C528.023 736.626 528.782 736.024 530.047 736.024C531.209 736.024 531.961 736.626 532.084 737.645H533.26C533.178 736.004 531.899 734.931 530.04 734.931C528.071 734.931 526.807 736.018 526.807 737.699C526.807 739.128 527.634 739.996 529.466 740.461L530.313 740.673C531.646 741.001 532.221 741.514 532.221 742.368C532.221 743.428 531.359 744.111 530.047 744.111C528.734 744.111 527.866 743.455 527.743 742.375H526.567ZM535.365 735.136V745H538.127C540.923 745 542.331 743.346 542.331 740.051C542.331 736.783 540.923 735.136 538.127 735.136H535.365ZM536.575 736.243H538.018C540.103 736.243 541.101 737.474 541.101 740.058C541.101 742.669 540.109 743.893 538.018 743.893H536.575V736.243ZM545.585 745V741.644L546.61 740.427L549.933 745H551.43L547.424 739.497L551.074 735.136H549.666L545.674 740.044H545.585V735.136H544.402V745H545.585ZM555.907 745.041C556.584 745.041 557.145 744.474 557.145 743.776C557.145 743.086 556.584 742.519 555.907 742.519C555.23 742.519 554.67 743.086 554.67 743.776C554.67 744.474 555.23 745.041 555.907 745.041ZM564.691 735.765C565.238 735.765 565.655 735.354 565.655 734.808C565.655 734.268 565.238 733.857 564.691 733.857C564.145 733.857 563.728 734.268 563.728 734.808C563.728 735.354 564.145 735.765 564.691 735.765ZM567.802 745V744.036H565.348V737.583H561.677V738.547H564.199V744.036H561.656V745H567.802ZM570.181 745H571.343V740.632C571.343 739.367 572.163 738.513 573.387 738.513C574.542 738.513 575.089 739.142 575.089 740.481V745H576.251V740.188C576.251 738.41 575.376 737.446 573.763 737.446C572.635 737.446 571.787 737.966 571.391 738.889H571.295V737.583H570.181V745ZM582 735.765C582.547 735.765 582.964 735.354 582.964 734.808C582.964 734.268 582.547 733.857 582 733.857C581.453 733.857 581.036 734.268 581.036 734.808C581.036 735.354 581.453 735.765 582 735.765ZM585.11 745V744.036H582.656V737.583H578.985V738.547H581.508V744.036H578.965V745H585.11ZM589.26 735.594V737.604H587.284V738.595H589.26V742.792C589.26 744.337 590.114 745.034 591.953 745.034C592.309 745.034 593.211 745 593.396 744.966V743.981C593.197 744.002 592.452 744.022 592.035 744.022C590.989 744.022 590.422 743.585 590.422 742.778V738.595H593.416V737.604H590.408V735.594H589.26ZM597.688 740.064C597.688 742.389 598.386 744.398 599.746 745.943H600.901C599.486 743.954 598.892 742.211 598.892 740.064C598.892 737.918 599.486 736.175 600.901 734.186H599.746C598.386 735.73 597.688 737.747 597.688 740.064ZM606.568 735.594V737.604H604.593V738.595H606.568V742.792C606.568 744.337 607.423 745.034 609.262 745.034C609.617 745.034 610.52 745 610.704 744.966V743.981C610.506 744.002 609.761 744.022 609.344 744.022C608.298 744.022 607.73 743.585 607.73 742.778V738.595H610.725V737.604H607.717V735.594H606.568ZM616.487 745.137C618.449 745.137 619.7 743.858 619.7 741.855V740.734C619.7 738.731 618.449 737.453 616.487 737.453C614.525 737.453 613.274 738.731 613.274 740.734V741.855C613.274 743.858 614.525 745.137 616.487 745.137ZM616.487 738.479C617.759 738.479 618.552 739.381 618.552 740.837V741.746C618.552 743.209 617.759 744.104 616.487 744.104C615.216 744.104 614.423 743.209 614.423 741.746V740.837C614.423 739.381 615.216 738.479 616.487 738.479ZM623.904 740.912H623.815V734.671H622.653V745H623.815V742.3L624.841 741.315L627.37 745H628.751L625.668 740.522L628.546 737.583H627.138L623.904 740.912ZM635.799 743.086C635.594 743.735 634.903 744.132 633.967 744.132C632.702 744.132 631.896 743.257 631.896 741.896V741.596H636.947V740.871C636.947 738.725 635.812 737.446 633.885 737.446C631.998 737.446 630.747 738.731 630.747 740.687V741.801C630.747 743.913 631.93 745.137 633.967 745.137C635.525 745.137 636.701 744.31 636.927 743.086H635.799ZM633.878 738.444C635.074 738.444 635.799 739.299 635.799 740.714H631.896C631.896 739.292 632.641 738.444 633.878 738.444ZM639.415 745H640.577V740.632C640.577 739.367 641.397 738.513 642.621 738.513C643.776 738.513 644.323 739.142 644.323 740.481V745H645.485V740.188C645.485 738.41 644.61 737.446 642.997 737.446C641.869 737.446 641.021 737.966 640.625 738.889H640.529V737.583H639.415V745ZM652.595 740.064C652.595 737.747 651.897 735.73 650.537 734.186H649.382C650.797 736.175 651.392 737.918 651.392 740.064C651.392 742.211 650.797 743.954 649.382 745.943H650.537C651.897 744.398 652.595 742.389 652.595 740.064Z" fill="#121314"/>
<path d="M664.354 769.646C664.549 769.842 664.549 770.158 664.354 770.354L661.172 773.536C660.976 773.731 660.66 773.731 660.464 773.536C660.269 773.34 660.269 773.024 660.464 772.828L663.293 770L660.464 767.172C660.269 766.976 660.269 766.66 660.464 766.464C660.66 766.269 660.976 766.269 661.172 766.464L664.354 769.646ZM483 769.5L664 769.5L664 770.5L483 770.5L483 769.5Z" fill="#121314"/>
<rect x="500.5" y="786" width="146" height="36" rx="4" fill="#DADCE0"/>
<path d="M516.443 804.864V803.271C516.443 800.544 515.069 798.931 512.827 798.931C510.585 798.931 509.211 800.544 509.211 803.271V804.864C509.211 807.592 510.585 809.205 512.827 809.205C515.069 809.205 516.443 807.592 516.443 804.864ZM512.827 808.063C511.33 808.063 510.428 806.915 510.428 804.857V803.278C510.428 801.221 511.33 800.072 512.827 800.072C514.324 800.072 515.227 801.221 515.227 803.278V804.857C515.227 806.915 514.324 808.063 512.827 808.063ZM521.946 801.46C520.887 801.46 520.114 801.897 519.725 802.718H519.602V801.583H518.453V811.502H519.636V807.852H519.766C520.087 808.665 520.873 809.123 521.946 809.123C523.662 809.123 524.783 807.886 524.783 805.985V804.604C524.783 802.697 523.662 801.46 521.946 801.46ZM521.611 802.526C522.835 802.526 523.614 803.401 523.614 804.769V805.835C523.614 807.202 522.835 808.084 521.611 808.084C520.388 808.084 519.608 807.209 519.608 805.835V804.769C519.608 803.401 520.388 802.526 521.611 802.526ZM532.139 807.086C531.934 807.735 531.243 808.132 530.307 808.132C529.042 808.132 528.235 807.257 528.235 805.896V805.596H533.287V804.871C533.287 802.725 532.152 801.446 530.225 801.446C528.338 801.446 527.087 802.731 527.087 804.687V805.801C527.087 807.913 528.27 809.137 530.307 809.137C531.865 809.137 533.041 808.31 533.267 807.086H532.139ZM530.218 802.444C531.414 802.444 532.139 803.299 532.139 804.714H528.235C528.235 803.292 528.98 802.444 530.218 802.444ZM535.755 809H536.917V804.632C536.917 803.367 537.737 802.513 538.961 802.513C540.116 802.513 540.663 803.142 540.663 804.481V809H541.825V804.188C541.825 802.41 540.95 801.446 539.337 801.446C538.209 801.446 537.361 801.966 536.965 802.889H536.869V801.583H535.755V809ZM560.104 801.583H558.97L557.965 807.53H557.842L556.646 801.59H555.552L554.355 807.53H554.232L553.228 801.583H552.093L553.686 809H554.8L556.058 803.217H556.14L557.397 809H558.512L560.104 801.583ZM566.756 807.086C566.551 807.735 565.86 808.132 564.924 808.132C563.659 808.132 562.853 807.257 562.853 805.896V805.596H567.904V804.871C567.904 802.725 566.77 801.446 564.842 801.446C562.955 801.446 561.704 802.731 561.704 804.687V805.801C561.704 807.913 562.887 809.137 564.924 809.137C566.482 809.137 567.658 808.31 567.884 807.086H566.756ZM564.835 802.444C566.031 802.444 566.756 803.299 566.756 804.714H562.853C562.853 803.292 563.598 802.444 564.835 802.444ZM573.872 809.123C575.588 809.123 576.709 807.886 576.709 805.979V804.598C576.709 802.697 575.588 801.46 573.872 801.46C572.799 801.46 572.013 801.918 571.685 802.731H571.562V798.671H570.379V809H571.521V807.865H571.65C572.033 808.686 572.812 809.123 573.872 809.123ZM573.53 808.063C572.313 808.063 571.534 807.188 571.534 805.814V804.748C571.534 803.381 572.313 802.506 573.53 802.506C574.761 802.506 575.54 803.381 575.54 804.748V805.814C575.54 807.182 574.761 808.063 573.53 808.063ZM588.016 803.586C588.016 804.639 588.679 805.315 590.019 805.623L591.119 805.876C592.062 806.088 592.425 806.402 592.425 806.99C592.425 807.701 591.782 808.159 590.771 808.159C589.813 808.159 589.157 807.763 588.986 807.079H587.804C587.934 808.351 589.048 809.137 590.729 809.137C592.486 809.137 593.628 808.248 593.628 806.881C593.628 805.808 592.972 805.179 591.529 804.851L590.483 804.611C589.554 804.406 589.171 804.085 589.171 803.518C589.171 802.841 589.779 802.403 590.723 802.403C591.591 802.403 592.213 802.8 592.35 803.449H593.471C593.334 802.212 592.288 801.439 590.743 801.439C589.109 801.439 588.016 802.301 588.016 803.586ZM599.37 809.137C601.332 809.137 602.583 807.858 602.583 805.855V804.734C602.583 802.731 601.332 801.453 599.37 801.453C597.408 801.453 596.157 802.731 596.157 804.734V805.855C596.157 807.858 597.408 809.137 599.37 809.137ZM599.37 802.479C600.642 802.479 601.435 803.381 601.435 804.837V805.746C601.435 807.209 600.642 808.104 599.37 808.104C598.099 808.104 597.306 807.209 597.306 805.746V804.837C597.306 803.381 598.099 802.479 599.37 802.479ZM611.114 803.894C610.923 802.369 609.802 801.439 608.161 801.439C606.145 801.439 604.969 802.677 604.969 804.803V805.773C604.969 807.899 606.145 809.137 608.161 809.137C609.802 809.137 610.93 808.214 611.114 806.703H609.966C609.822 807.551 609.098 808.091 608.141 808.091C606.849 808.091 606.131 807.216 606.131 805.623V804.953C606.131 803.36 606.849 802.479 608.141 802.479C609.098 802.479 609.822 803.025 609.966 803.894H611.114ZM615.441 804.912H615.353V798.671H614.19V809H615.353V806.3L616.378 805.315L618.907 809H620.288L617.205 804.522L620.083 801.583H618.675L615.441 804.912ZM627.336 807.086C627.131 807.735 626.44 808.132 625.504 808.132C624.239 808.132 623.433 807.257 623.433 805.896V805.596H628.484V804.871C628.484 802.725 627.35 801.446 625.422 801.446C623.535 801.446 622.284 802.731 622.284 804.687V805.801C622.284 807.913 623.467 809.137 625.504 809.137C627.062 809.137 628.238 808.31 628.464 807.086H627.336ZM625.415 802.444C626.611 802.444 627.336 803.299 627.336 804.714H623.433C623.433 803.292 624.178 802.444 625.415 802.444ZM632.723 799.594V801.604H630.747V802.595H632.723V806.792C632.723 808.337 633.577 809.034 635.416 809.034C635.771 809.034 636.674 809 636.858 808.966V807.981C636.66 808.002 635.915 808.022 635.498 808.022C634.452 808.022 633.885 807.585 633.885 806.778V802.595H636.879V801.604H633.871V799.594H632.723Z" fill="#121314"/>
<path d="M482.646 833.646C482.451 833.842 482.451 834.158 482.646 834.354L485.828 837.536C486.024 837.731 486.34 837.731 486.536 837.536C486.731 837.34 486.731 837.024 486.536 836.828L483.707 834L486.536 831.172C486.731 830.976 486.731 830.66 486.536 830.464C486.34 830.269 486.024 830.269 485.828 830.464L482.646 833.646ZM664 833.5L483 833.5L483 834.5L664 834.5L664 833.5Z" fill="#121314"/>
<rect x="522" y="850" width="103" height="36" rx="4" fill="#121314"/>
<path d="M537.267 865.959V864.653L531.388 868.119V869.131L537.267 872.597V871.291L532.563 868.687V868.563L537.267 865.959ZM539.604 870.375C539.707 872.125 541.04 873.205 543.077 873.205C545.142 873.205 546.475 872.077 546.475 870.307C546.475 868.823 545.668 867.989 543.754 867.518L542.893 867.299C541.607 866.978 541.061 866.485 541.061 865.631C541.061 864.626 541.819 864.024 543.084 864.024C544.246 864.024 544.998 864.626 545.121 865.645H546.297C546.215 864.004 544.937 862.931 543.077 862.931C541.108 862.931 539.844 864.018 539.844 865.699C539.844 867.128 540.671 867.996 542.503 868.461L543.351 868.673C544.684 869.001 545.258 869.514 545.258 870.368C545.258 871.428 544.396 872.111 543.084 872.111C541.771 872.111 540.903 871.455 540.78 870.375H539.604ZM551.766 863.765C552.312 863.765 552.729 863.354 552.729 862.808C552.729 862.268 552.312 861.857 551.766 861.857C551.219 861.857 550.802 862.268 550.802 862.808C550.802 863.354 551.219 863.765 551.766 863.765ZM554.876 873V872.036H552.422V865.583H548.751V866.547H551.273V872.036H548.73V873H554.876ZM559.825 873.123C560.885 873.123 561.664 872.686 562.047 871.865H562.177V873H563.318V862.671H562.136V866.731H562.013C561.691 865.918 560.898 865.46 559.825 865.46C558.109 865.46 556.988 866.697 556.988 868.598V869.979C556.988 871.886 558.109 873.123 559.825 873.123ZM560.167 872.063C558.943 872.063 558.157 871.182 558.157 869.814V868.748C558.157 867.381 558.943 866.506 560.167 866.506C561.384 866.506 562.17 867.381 562.17 868.748V869.814C562.17 871.188 561.384 872.063 560.167 872.063ZM570.947 871.086C570.742 871.735 570.052 872.132 569.115 872.132C567.851 872.132 567.044 871.257 567.044 869.896V869.596H572.096V868.871C572.096 866.725 570.961 865.446 569.033 865.446C567.146 865.446 565.896 866.731 565.896 868.687V869.801C565.896 871.913 567.078 873.137 569.115 873.137C570.674 873.137 571.85 872.31 572.075 871.086H570.947ZM569.026 866.444C570.223 866.444 570.947 867.299 570.947 868.714H567.044C567.044 867.292 567.789 866.444 569.026 866.444ZM578.063 873.123C579.779 873.123 580.9 871.886 580.9 869.979V868.598C580.9 866.697 579.779 865.46 578.063 865.46C576.99 865.46 576.204 865.918 575.876 866.731H575.753V862.671H574.57V873H575.712V871.865H575.842C576.225 872.686 577.004 873.123 578.063 873.123ZM577.722 872.063C576.505 872.063 575.726 871.188 575.726 869.814V868.748C575.726 867.381 576.505 866.506 577.722 866.506C578.952 866.506 579.731 867.381 579.731 868.748V869.814C579.731 871.182 578.952 872.063 577.722 872.063ZM585.501 873.13C586.581 873.13 587.388 872.686 587.743 871.893H587.859V873.007H588.967V867.928C588.967 866.383 587.969 865.494 586.226 865.494C584.708 865.494 583.56 866.308 583.423 867.497H584.564C584.756 866.861 585.357 866.499 586.212 866.499C587.244 866.499 587.812 867.012 587.812 867.941V868.611L585.774 868.714C584.086 868.803 583.143 869.582 583.143 870.895C583.143 872.241 584.086 873.13 585.501 873.13ZM585.836 872.111C584.899 872.111 584.318 871.633 584.318 870.854C584.318 870.081 584.865 869.637 585.904 869.589L587.812 869.5V870.375C587.812 871.366 586.957 872.111 585.836 872.111ZM594.613 869.678C594.613 867.791 595.584 866.656 597.225 866.656C597.628 866.656 598.106 866.738 598.448 866.861V865.556C598.202 865.453 597.799 865.392 597.375 865.392C595.946 865.392 595.023 866.103 594.75 867.477H594.6V865.583H591.831V866.513H593.479V872.07H591.981V873H596.91V872.07H594.613V869.678ZM601.723 873.937L606.535 862.199H605.394L600.588 873.937H601.723ZM609.276 865.959L613.973 868.563V868.687L609.276 871.291V872.597L615.155 869.131V868.119L609.276 864.653V865.959Z" fill="white"/>
<path d="M664.354 898.354C664.549 898.158 664.549 897.842 664.354 897.646L661.172 894.464C660.976 894.269 660.66 894.269 660.464 894.464C660.269 894.66 660.269 894.976 660.464 895.172L663.293 898L660.464 900.828C660.269 901.024 660.269 901.34 660.464 901.536C660.66 901.731 660.976 901.731 661.172 901.536L664.354 898.354ZM482.646 897.646C482.451 897.842 482.451 898.158 482.646 898.354L485.828 901.536C486.024 901.731 486.34 901.731 486.536 901.536C486.731 901.34 486.731 901.024 486.536 900.828L483.707 898L486.536 895.172C486.731 894.976 486.731 894.66 486.536 894.464C486.34 894.269 486.024 894.269 485.828 894.464L482.646 897.646ZM664 897.5L483 897.5L483 898.5L664 898.5L664 897.5Z" fill="#121314"/>
<rect x="79.5" y="416" width="164" height="36" rx="4" fill="#DADCE0"/>
<path d="M90.4463 439V434.7H94.6572V433.627H90.4463V430.243H95.0537V429.136H89.2363V439H90.4463ZM102.484 437.086C102.279 437.735 101.589 438.132 100.652 438.132C99.3877 438.132 98.5811 437.257 98.5811 435.896V435.596H103.633V434.871C103.633 432.725 102.498 431.446 100.57 431.446C98.6836 431.446 97.4326 432.731 97.4326 434.687V435.801C97.4326 437.913 98.6152 439.137 100.652 439.137C102.211 439.137 103.387 438.31 103.612 437.086H102.484ZM100.563 432.444C101.76 432.444 102.484 433.299 102.484 434.714H98.5811C98.5811 433.292 99.3262 432.444 100.563 432.444ZM107.871 429.594V431.604H105.896V432.595H107.871V436.792C107.871 438.337 108.726 439.034 110.564 439.034C110.92 439.034 111.822 439 112.007 438.966V437.981C111.809 438.002 111.063 438.022 110.646 438.022C109.601 438.022 109.033 437.585 109.033 436.778V432.595H112.027V431.604H109.02V429.594H107.871ZM120.88 433.894C120.688 432.369 119.567 431.439 117.927 431.439C115.91 431.439 114.734 432.677 114.734 434.803V435.773C114.734 437.899 115.91 439.137 117.927 439.137C119.567 439.137 120.695 438.214 120.88 436.703H119.731C119.588 437.551 118.863 438.091 117.906 438.091C116.614 438.091 115.896 437.216 115.896 435.623V434.953C115.896 433.36 116.614 432.479 117.906 432.479C118.863 432.479 119.588 433.025 119.731 433.894H120.88ZM123.402 439H124.564V434.639C124.564 433.374 125.392 432.52 126.615 432.52C127.777 432.52 128.324 433.155 128.324 434.488V439H129.486V434.194C129.486 432.424 128.611 431.453 126.998 431.453C125.863 431.453 125.009 431.973 124.619 432.896H124.523V428.671H123.402V439ZM143.979 438.063C142.379 438.063 141.545 436.99 141.545 434.946V433.189C141.545 431.146 142.379 430.072 143.972 430.072C145.236 430.072 146.118 430.968 146.159 432.301H147.383C147.342 430.195 146.057 428.931 143.979 428.931C141.661 428.931 140.314 430.496 140.314 433.189V434.946C140.314 437.64 141.661 439.205 143.979 439.205C145.995 439.205 147.376 437.913 147.376 436.006H146.159C146.125 437.277 145.291 438.063 143.979 438.063ZM152.407 439.137C154.369 439.137 155.62 437.858 155.62 435.855V434.734C155.62 432.731 154.369 431.453 152.407 431.453C150.445 431.453 149.194 432.731 149.194 434.734V435.855C149.194 437.858 150.445 439.137 152.407 439.137ZM152.407 432.479C153.679 432.479 154.472 433.381 154.472 434.837V435.746C154.472 437.209 153.679 438.104 152.407 438.104C151.136 438.104 150.343 437.209 150.343 435.746V434.837C150.343 433.381 151.136 432.479 152.407 432.479ZM160.768 435.678C160.768 433.791 161.738 432.656 163.379 432.656C163.782 432.656 164.261 432.738 164.603 432.861V431.556C164.356 431.453 163.953 431.392 163.529 431.392C162.101 431.392 161.178 432.103 160.904 433.477H160.754V431.583H157.985V432.513H159.633V438.07H158.136V439H163.064V438.07H160.768V435.678ZM169.251 439.123C170.311 439.123 171.09 438.686 171.473 437.865H171.603V439H172.744V428.671H171.562V432.731H171.438C171.117 431.918 170.324 431.46 169.251 431.46C167.535 431.46 166.414 432.697 166.414 434.598V435.979C166.414 437.886 167.535 439.123 169.251 439.123ZM169.593 438.063C168.369 438.063 167.583 437.182 167.583 435.814V434.748C167.583 433.381 168.369 432.506 169.593 432.506C170.81 432.506 171.596 433.381 171.596 434.748V435.814C171.596 437.188 170.81 438.063 169.593 438.063ZM184.324 433.586C184.324 434.639 184.987 435.315 186.327 435.623L187.428 435.876C188.371 436.088 188.733 436.402 188.733 436.99C188.733 437.701 188.091 438.159 187.079 438.159C186.122 438.159 185.466 437.763 185.295 437.079H184.112C184.242 438.351 185.356 439.137 187.038 439.137C188.795 439.137 189.937 438.248 189.937 436.881C189.937 435.808 189.28 435.179 187.838 434.851L186.792 434.611C185.862 434.406 185.479 434.085 185.479 433.518C185.479 432.841 186.088 432.403 187.031 432.403C187.899 432.403 188.521 432.8 188.658 433.449H189.779C189.643 432.212 188.597 431.439 187.052 431.439C185.418 431.439 184.324 432.301 184.324 433.586ZM197.682 437.086C197.477 437.735 196.786 438.132 195.85 438.132C194.585 438.132 193.778 437.257 193.778 435.896V435.596H198.83V434.871C198.83 432.725 197.695 431.446 195.768 431.446C193.881 431.446 192.63 432.731 192.63 434.687V435.801C192.63 437.913 193.812 439.137 195.85 439.137C197.408 439.137 198.584 438.31 198.81 437.086H197.682ZM195.761 432.444C196.957 432.444 197.682 433.299 197.682 434.714H193.778C193.778 433.292 194.523 432.444 195.761 432.444ZM207.423 433.894C207.231 432.369 206.11 431.439 204.47 431.439C202.453 431.439 201.277 432.677 201.277 434.803V435.773C201.277 437.899 202.453 439.137 204.47 439.137C206.11 439.137 207.238 438.214 207.423 436.703H206.274C206.131 437.551 205.406 438.091 204.449 438.091C203.157 438.091 202.439 437.216 202.439 435.623V434.953C202.439 433.36 203.157 432.479 204.449 432.479C205.406 432.479 206.131 433.025 206.274 433.894H207.423ZM212.693 435.678C212.693 433.791 213.664 432.656 215.305 432.656C215.708 432.656 216.187 432.738 216.528 432.861V431.556C216.282 431.453 215.879 431.392 215.455 431.392C214.026 431.392 213.104 432.103 212.83 433.477H212.68V431.583H209.911V432.513H211.559V438.07H210.062V439H214.99V438.07H212.693V435.678ZM223.645 437.086C223.439 437.735 222.749 438.132 221.812 438.132C220.548 438.132 219.741 437.257 219.741 435.896V435.596H224.793V434.871C224.793 432.725 223.658 431.446 221.73 431.446C219.844 431.446 218.593 432.731 218.593 434.687V435.801C218.593 437.913 219.775 439.137 221.812 439.137C223.371 439.137 224.547 438.31 224.772 437.086H223.645ZM221.724 432.444C222.92 432.444 223.645 433.299 223.645 434.714H219.741C219.741 433.292 220.486 432.444 221.724 432.444ZM229.031 429.594V431.604H227.056V432.595H229.031V436.792C229.031 438.337 229.886 439.034 231.725 439.034C232.08 439.034 232.982 439 233.167 438.966V437.981C232.969 438.002 232.224 438.022 231.807 438.022C230.761 438.022 230.193 437.585 230.193 436.778V432.595H233.188V431.604H230.18V429.594H229.031Z" fill="#121314"/>
<path d="M70.6465 463.646C70.4512 463.842 70.4512 464.158 70.6465 464.354L73.8284 467.536C74.0237 467.731 74.3403 467.731 74.5355 467.536C74.7308 467.34 74.7308 467.024 74.5355 466.828L71.7071 464L74.5355 461.172C74.7308 460.976 74.7308 460.66 74.5355 460.464C74.3403 460.269 74.0237 460.269 73.8284 460.464L70.6465 463.646ZM252 463.5L71 463.5L71 464.5L252 464.5L252 463.5Z" fill="#121314"/>
<path d="M252.354 479.646C252.549 479.842 252.549 480.158 252.354 480.354L249.172 483.536C248.976 483.731 248.66 483.731 248.464 483.536C248.269 483.34 248.269 483.024 248.464 482.828L251.293 480L248.464 477.172C248.269 476.976 248.269 476.66 248.464 476.464C248.66 476.269 248.976 476.269 249.172 476.464L252.354 479.646ZM71 479.5L252 479.5L252 480.5L71 480.5L71 479.5Z" fill="#121314"/>
<rect x="10.5" y="338" width="97" height="68" rx="34" fill="#F44548"/>
<path d="M36.7559 364.423C36.8857 366.125 38.3281 367.232 40.4199 367.232C42.6758 367.232 44.1045 366.077 44.1045 364.266C44.1045 362.816 43.2842 362.023 41.2402 361.511L40.208 361.237C38.8477 360.889 38.3076 360.444 38.3076 359.672C38.3076 358.674 39.1758 358.018 40.4883 358.018C41.7188 358.018 42.5527 358.619 42.7236 359.631H43.9609C43.8584 358.038 42.4365 356.903 40.5293 356.903C38.4443 356.903 37.043 358.038 37.043 359.713C37.043 361.114 37.8154 361.921 39.5996 362.372L40.8643 362.7C42.2246 363.042 42.8398 363.575 42.8398 364.416C42.8398 365.394 41.8623 366.111 40.5361 366.111C39.1348 366.111 38.1504 365.455 38 364.423H36.7559ZM48.9443 360.54C50.1133 360.54 50.8926 361.401 50.9199 362.707H46.8594C46.9482 361.401 47.7686 360.54 48.9443 360.54ZM50.8857 365.093C50.5781 365.742 49.9355 366.091 48.9854 366.091C47.7344 366.091 46.9209 365.168 46.8594 363.712V363.657H52.1572V363.206C52.1572 360.916 50.9473 359.501 48.958 359.501C46.9346 359.501 45.6357 361.005 45.6357 363.322C45.6357 365.653 46.9141 367.13 48.958 367.13C50.5713 367.13 51.7197 366.351 52.0615 365.093H50.8857ZM60.1006 361.887C59.8955 360.574 58.8018 359.501 57.0107 359.501C54.9463 359.501 53.6338 360.991 53.6338 363.288C53.6338 365.633 54.9531 367.13 57.0176 367.13C58.7881 367.13 59.8887 366.132 60.1006 364.778H58.9111C58.6924 365.612 58.002 366.07 57.0107 366.07C55.6982 366.07 54.8506 364.99 54.8506 363.288C54.8506 361.62 55.6846 360.561 57.0107 360.561C58.0703 360.561 58.7197 361.155 58.9111 361.887H60.1006ZM67.7979 359.631H66.6221V363.992C66.6221 365.284 65.9111 366.057 64.6123 366.057C63.4365 366.057 62.9443 365.441 62.9443 364.115V359.631H61.7686V364.402C61.7686 366.146 62.6299 367.13 64.2842 367.13C65.4121 367.13 66.1982 366.665 66.5674 365.845H66.6768V367H67.7979V359.631ZM70.0127 367H71.1885V362.434C71.1885 361.395 72.002 360.643 73.123 360.643C73.3555 360.643 73.7793 360.684 73.875 360.711V359.535C73.7246 359.515 73.4785 359.501 73.2871 359.501C72.3096 359.501 71.4619 360.007 71.2432 360.725H71.1338V359.631H70.0127V367ZM78.0791 360.54C79.248 360.54 80.0273 361.401 80.0547 362.707H75.9941C76.083 361.401 76.9033 360.54 78.0791 360.54ZM80.0205 365.093C79.7129 365.742 79.0703 366.091 78.1201 366.091C76.8691 366.091 76.0557 365.168 75.9941 363.712V363.657H81.292V363.206C81.292 360.916 80.082 359.501 78.0928 359.501C76.0693 359.501 74.7705 361.005 74.7705 363.322C74.7705 365.653 76.0488 367.13 78.0928 367.13C79.7061 367.13 80.8545 366.351 81.1963 365.093H80.0205ZM34.0078 387H35.1836V376.705H34.0078V387ZM40.4951 387.13C42.5938 387.13 43.8926 385.681 43.8926 383.315C43.8926 380.943 42.5938 379.501 40.4951 379.501C38.3965 379.501 37.0977 380.943 37.0977 383.315C37.0977 385.681 38.3965 387.13 40.4951 387.13ZM40.4951 386.07C39.1006 386.07 38.3145 385.059 38.3145 383.315C38.3145 381.565 39.1006 380.561 40.4951 380.561C41.8896 380.561 42.6758 381.565 42.6758 383.315C42.6758 385.059 41.8896 386.07 40.4951 386.07ZM51.8359 381.887C51.6309 380.574 50.5371 379.501 48.7461 379.501C46.6816 379.501 45.3691 380.991 45.3691 383.288C45.3691 385.633 46.6885 387.13 48.7529 387.13C50.5234 387.13 51.624 386.132 51.8359 384.778H50.6465C50.4277 385.612 49.7373 386.07 48.7461 386.07C47.4336 386.07 46.5859 384.99 46.5859 383.288C46.5859 381.62 47.4199 380.561 48.7461 380.561C49.8057 380.561 50.4551 381.155 50.6465 381.887H51.8359ZM55.8418 386.098C54.9873 386.098 54.3516 385.66 54.3516 384.908C54.3516 384.17 54.8438 383.78 55.9648 383.705L57.9473 383.575V384.252C57.9473 385.305 57.0518 386.098 55.8418 386.098ZM55.623 387.13C56.6074 387.13 57.4141 386.699 57.8926 385.913H58.002V387H59.123V381.955C59.123 380.424 58.1182 379.501 56.3203 379.501C54.748 379.501 53.5859 380.28 53.4287 381.463H54.6182C54.7822 380.882 55.3975 380.547 56.2793 380.547C57.3799 380.547 57.9473 381.046 57.9473 381.955V382.625L55.8213 382.755C54.1055 382.857 53.1348 383.616 53.1348 384.936C53.1348 386.282 54.1943 387.13 55.623 387.13ZM61.7891 377.724V379.631H60.5996V380.615H61.7891V385.086C61.7891 386.494 62.3975 387.055 63.915 387.055C64.1475 387.055 64.373 387.027 64.6055 386.986V385.995C64.3867 386.016 64.2705 386.022 64.0586 386.022C63.293 386.022 62.9648 385.653 62.9648 384.785V380.615H64.6055V379.631H62.9648V377.724H61.7891ZM66.4102 387H67.5859V379.631H66.4102V387ZM66.998 378.209C67.4492 378.209 67.8184 377.84 67.8184 377.389C67.8184 376.938 67.4492 376.568 66.998 376.568C66.5469 376.568 66.1777 376.938 66.1777 377.389C66.1777 377.84 66.5469 378.209 66.998 378.209ZM72.8564 387.13C74.9551 387.13 76.2539 385.681 76.2539 383.315C76.2539 380.943 74.9551 379.501 72.8564 379.501C70.7578 379.501 69.459 380.943 69.459 383.315C69.459 385.681 70.7578 387.13 72.8564 387.13ZM72.8564 386.07C71.4619 386.07 70.6758 385.059 70.6758 383.315C70.6758 381.565 71.4619 380.561 72.8564 380.561C74.251 380.561 75.0371 381.565 75.0371 383.315C75.0371 385.059 74.251 386.07 72.8564 386.07ZM78.0996 387H79.2754V382.639C79.2754 381.347 80.0342 380.561 81.21 380.561C82.3857 380.561 82.9463 381.189 82.9463 382.516V387H84.1221V382.229C84.1221 380.479 83.1992 379.501 81.5449 379.501C80.417 379.501 79.6992 379.979 79.3301 380.793H79.2207V379.631H78.0996V387Z" fill="#F6F6F6"/>
<rect x="10.5" y="338" width="97" height="68" rx="34" stroke="#F6F6F6" stroke-width="12"/>
<rect x="409" y="138" width="124" height="40" rx="6" fill="#121314"/>
<path d="M423.327 162.063C421.892 162.063 421.058 161.12 421.058 159.5V153.136H419.854V159.575C419.854 161.845 421.153 163.205 423.327 163.205C425.501 163.205 426.8 161.845 426.8 159.575V153.136H425.597V159.5C425.597 161.12 424.763 162.063 423.327 162.063ZM429.281 157.586C429.281 158.639 429.944 159.315 431.284 159.623L432.385 159.876C433.328 160.088 433.69 160.402 433.69 160.99C433.69 161.701 433.048 162.159 432.036 162.159C431.079 162.159 430.423 161.763 430.252 161.079H429.069C429.199 162.351 430.313 163.137 431.995 163.137C433.752 163.137 434.894 162.248 434.894 160.881C434.894 159.808 434.237 159.179 432.795 158.851L431.749 158.611C430.819 158.406 430.437 158.085 430.437 157.518C430.437 156.841 431.045 156.403 431.988 156.403C432.856 156.403 433.479 156.8 433.615 157.449H434.736C434.6 156.212 433.554 155.439 432.009 155.439C430.375 155.439 429.281 156.301 429.281 157.586ZM442.639 161.086C442.434 161.735 441.743 162.132 440.807 162.132C439.542 162.132 438.735 161.257 438.735 159.896V159.596H443.787V158.871C443.787 156.725 442.652 155.446 440.725 155.446C438.838 155.446 437.587 156.731 437.587 158.687V159.801C437.587 161.913 438.77 163.137 440.807 163.137C442.365 163.137 443.541 162.31 443.767 161.086H442.639ZM440.718 156.444C441.914 156.444 442.639 157.299 442.639 158.714H438.735C438.735 157.292 439.48 156.444 440.718 156.444ZM448.996 159.678C448.996 157.791 449.967 156.656 451.607 156.656C452.011 156.656 452.489 156.738 452.831 156.861V155.556C452.585 155.453 452.182 155.392 451.758 155.392C450.329 155.392 449.406 156.103 449.133 157.477H448.982V155.583H446.214V156.513H447.861V162.07H446.364V163H451.293V162.07H448.996V159.678ZM469.839 163V162.036H467.392V152.671H463.714V153.635H466.229V162.036H463.693V163H469.839ZM475.253 163.137C477.215 163.137 478.466 161.858 478.466 159.855V158.734C478.466 156.731 477.215 155.453 475.253 155.453C473.291 155.453 472.04 156.731 472.04 158.734V159.855C472.04 161.858 473.291 163.137 475.253 163.137ZM475.253 156.479C476.524 156.479 477.317 157.381 477.317 158.837V159.746C477.317 161.209 476.524 162.104 475.253 162.104C473.981 162.104 473.188 161.209 473.188 159.746V158.837C473.188 157.381 473.981 156.479 475.253 156.479ZM483.688 165.782C485.698 165.782 486.888 164.743 486.888 163V155.583H485.739V156.731H485.609C485.288 155.932 484.475 155.46 483.401 155.46C481.665 155.46 480.53 156.69 480.53 158.598V159.931C480.53 161.831 481.658 163.068 483.374 163.068C484.454 163.068 485.274 162.597 485.603 161.817H485.726V162.973C485.726 164.162 485.008 164.818 483.709 164.818C482.718 164.818 481.973 164.415 481.822 163.8H480.674C480.824 165.03 481.973 165.782 483.688 165.782ZM481.699 159.767V158.748C481.699 157.388 482.492 156.506 483.723 156.506C484.946 156.506 485.732 157.381 485.732 158.748V159.767C485.732 161.134 484.946 162.016 483.723 162.016C482.492 162.016 481.699 161.127 481.699 159.767ZM489.861 157.586C489.861 158.639 490.524 159.315 491.864 159.623L492.965 159.876C493.908 160.088 494.271 160.402 494.271 160.99C494.271 161.701 493.628 162.159 492.616 162.159C491.659 162.159 491.003 161.763 490.832 161.079H489.649C489.779 162.351 490.894 163.137 492.575 163.137C494.332 163.137 495.474 162.248 495.474 160.881C495.474 159.808 494.817 159.179 493.375 158.851L492.329 158.611C491.399 158.406 491.017 158.085 491.017 157.518C491.017 156.841 491.625 156.403 492.568 156.403C493.437 156.403 494.059 156.8 494.195 157.449H495.316C495.18 156.212 494.134 155.439 492.589 155.439C490.955 155.439 489.861 156.301 489.861 157.586ZM510 153.765C510.547 153.765 510.964 153.354 510.964 152.808C510.964 152.268 510.547 151.857 510 151.857C509.453 151.857 509.036 152.268 509.036 152.808C509.036 153.354 509.453 153.765 510 153.765ZM513.11 163V162.036H510.656V155.583H506.985V156.547H509.508V162.036H506.965V163H513.11ZM515.489 163H516.651V158.632C516.651 157.367 517.472 156.513 518.695 156.513C519.851 156.513 520.397 157.142 520.397 158.481V163H521.56V158.188C521.56 156.41 520.685 155.446 519.071 155.446C517.943 155.446 517.096 155.966 516.699 156.889H516.604V155.583H515.489V163Z" fill="white"/>
<rect x="409" y="138" width="124" height="40" rx="6" stroke="#F6F6F6" stroke-width="4"/>
</svg>
