<svg width="730" height="89" viewBox="0 0 730 89" fill="none" xmlns="http://www.w3.org/2000/svg">
<rect width="730" height="89" fill="#9A6AFF"/>
<path d="M18 57.1107C18 35.5754 35.4578 18.1176 56.9931 18.1176H158.251C172.608 18.1176 184.247 29.7562 184.247 44.113V45.7403C184.247 60.0971 172.608 71.7357 158.251 71.7357H18V57.1107Z" fill="black"/>
<path d="M79.4833 65.9932C67.8754 65.9932 58.429 56.5503 58.429 44.9466C58.429 33.3429 67.8754 23.86 79.4833 23.86C91.0913 23.86 100.538 33.303 100.538 44.9066C100.538 56.5102 91.0913 65.9932 79.4833 65.9932ZM79.4833 28.9016C70.6373 28.9016 63.4323 36.1038 63.4323 44.9466C63.4323 53.7894 70.6373 60.9916 79.4833 60.9916C88.3294 60.9916 95.5343 53.7894 95.5343 44.9466C95.5343 36.1038 88.3294 28.9016 79.4833 28.9016Z" fill="white"/>
<path d="M109.704 26.0207H104.66V65.2729H109.704V26.0207Z" fill="white"/>
<path d="M131.159 65.2729L106.222 47.2673L109.184 43.2261L134.121 61.2317L131.159 65.2729Z" fill="white"/>
<path d="M123.473 45.8669H104.621V24.5802H123.473C129.358 24.5802 134.121 29.3417 134.121 35.2236C134.121 41.0654 129.358 45.8669 123.473 45.8669ZM109.664 40.8253H123.473C126.556 40.8253 129.078 38.3045 129.078 35.2236C129.078 32.1425 126.556 29.6218 123.473 29.6218H109.664V40.8253Z" fill="white"/>
<path d="M156.096 65.2729H138.203V24.5802H156.096C167.384 24.5802 176.59 33.7031 176.59 44.9466C176.59 56.1901 167.384 65.2729 156.096 65.2729ZM143.287 60.2714H156.096C164.622 60.2714 171.547 53.3892 171.547 44.9466C171.547 36.5039 164.622 29.5818 156.096 29.5818H143.287V60.2714Z" fill="white"/>
<path d="M47.6615 46.7871C46.5007 45.6267 45.34 44.4263 44.1391 43.226C44.3393 43.026 44.5394 42.8259 44.7395 42.6258C46.901 40.3851 48.9424 38.0243 50.6636 35.4235C51.5042 34.1431 52.3047 32.7827 52.8651 31.3422C53.0252 30.9022 53.1853 30.422 53.2654 29.9418C53.2654 29.8618 53.2654 29.8218 53.3054 29.7018C53.1853 29.7018 53.1052 29.7018 52.9851 29.7417C52.1446 29.9018 51.3841 30.2219 50.6236 30.582C48.9424 31.3823 47.3414 32.4226 45.8603 33.543C44.019 34.9034 42.2979 36.4238 40.6168 37.9843C39.0556 39.4248 37.6147 40.9853 36.2937 42.6658C34.9729 44.3864 33.772 46.1869 32.8114 48.1076C32.0109 49.708 31.3304 51.3886 30.9701 53.1491C30.77 54.0293 30.6499 54.9497 30.6899 55.87C30.7299 56.4301 30.81 56.9903 30.9701 57.5504C31.3704 58.7508 32.171 59.5111 33.3717 59.9112C34.1323 60.1513 34.9329 60.1913 35.7334 60.1913C36.9342 60.1513 38.0549 59.9112 39.1757 59.5511C41.1371 58.9509 42.9383 58.0707 44.6995 57.0303C47.1012 55.5898 49.3026 53.8693 51.344 51.9487C51.5842 51.7086 51.8644 51.4685 52.1446 51.1885C53.3454 52.3488 54.5062 53.5492 55.7071 54.7096C55.4269 54.9896 55.1867 55.2698 54.9065 55.5099C53.1853 57.1503 51.3841 58.6308 49.4227 59.9512C47.0611 61.5517 44.5794 62.9122 41.8976 63.9125C40.4967 64.4326 39.0556 64.8327 37.5747 65.0328C36.0536 65.2329 34.5325 65.2729 33.0516 64.9928C30.2497 64.4326 28.1282 62.9922 26.7673 60.4713C26.2069 59.4311 25.9267 58.3507 25.7666 57.1903C25.4864 55.0297 25.7666 52.949 26.327 50.9084C26.9274 48.7477 27.8079 46.7071 28.8887 44.7865C30.5698 41.7455 32.6513 38.9846 35.0129 36.4639C37.3745 33.9431 39.9362 31.6224 42.7381 29.5817C44.4194 28.3414 46.1405 27.181 48.0218 26.2607C49.1826 25.7005 50.3433 25.1803 51.6243 24.9003C52.4248 24.6602 53.3054 24.5802 54.186 24.6602C56.4676 24.8602 58.0286 26.5408 58.3088 28.5014C58.4289 29.5017 58.3489 30.462 58.1087 31.3823C57.8285 32.4627 57.4282 33.543 56.9479 34.5433C55.9071 36.704 54.5863 38.6646 53.1453 40.5852C51.7043 42.4657 50.1433 44.2663 48.5021 45.9469C48.222 46.2269 47.9417 46.507 47.6615 46.7871Z" fill="white"/>
<path d="M211.409 57.7625C217.506 57.7625 221.466 54.7533 221.466 49.8831C221.466 45.4881 218.773 43.0332 214.061 42.0829L209.627 41.2118C207.132 40.6971 205.549 39.3905 205.549 37.1336C205.549 34.4807 207.964 32.501 211.567 32.501H211.963C215.487 32.501 218.1 34.5599 218.338 37.8859H221.901C221.703 32.5801 217.823 29.2542 211.765 29.2542C205.786 29.2542 201.985 32.8177 201.985 37.1732C201.985 41.4494 204.519 43.8647 208.875 44.7754L213.309 45.6861C216.398 46.3196 217.902 47.6658 217.902 50.0415C217.902 52.536 215.804 54.5157 211.923 54.5157H211.527C207.212 54.5157 204.163 52.4172 204.163 48.5369H200.599C200.718 54.5553 204.836 57.7625 211.409 57.7625ZM234.613 57.3665C242.255 57.3665 247.363 52.2588 247.363 43.5479C247.363 34.8371 242.255 29.6501 234.613 29.6501H224.833V57.3665H234.613ZM228.397 32.8969H234.217C240.315 32.8969 243.799 36.6188 243.799 43.5083C243.799 50.3978 240.315 54.1198 234.217 54.1198H228.397V32.8969ZM273.175 57.3665L261.811 40.9347L272.977 29.6501H268.305L254.011 43.9439V29.6501H250.448V57.3665H254.011V48.8141L259.238 43.5479L268.701 57.3665H273.175Z" fill="#191A1E"/>
<path d="M211.346 18.3238H262.668C277.521 18.3238 289.561 30.3642 289.561 45.2168C289.561 60.0693 277.521 72.1097 262.668 72.1097H211.346C196.493 72.1097 184.453 60.0693 184.453 45.2168C184.453 30.3642 196.493 18.3238 211.346 18.3238Z" stroke="black" stroke-width="0.412447"/>
<path d="M562.496 36.1825L558.009 23.5952H554.944V37.8066H556.771V25.1787L561.298 37.8066H563.674L568.12 25.1381V37.8066H569.947V23.5952H566.922L562.496 36.1825ZM574.716 38.0097C576.381 38.0097 577.66 37.0961 578.066 36.1825C578.066 36.4261 578.086 37.3194 578.167 37.8066H579.791C579.69 37.0961 579.69 36.1825 579.69 35.5734V31.31C579.69 29.2391 578.33 27.4526 575.65 27.4526C573.396 27.4526 571.732 28.7113 571.61 30.5588H573.335C573.457 29.4625 574.432 28.9143 575.569 28.9143H575.711C577.112 28.9143 577.964 29.7873 577.964 31.31V31.6551L575.041 31.8987C573.417 32.0205 571.407 32.7108 571.407 35.0049C571.407 36.7306 572.828 38.0097 574.716 38.0097ZM574.899 36.5479C573.884 36.5479 573.132 35.8576 573.132 34.9237C573.132 33.9289 574.026 33.3199 575.305 33.2184L577.964 33.0153V34.1523C577.964 35.4719 576.381 36.5479 575.081 36.5479H574.899ZM583.128 37.8066V34.4365L584.732 32.8732L588.264 37.8066H590.396L585.97 31.6957L590.193 27.6556H587.899L583.128 32.3251V23.5952H581.402V37.8066H583.128ZM594.394 38.0097C596.485 38.0097 598.19 36.8727 598.576 34.8425H596.85C596.586 35.9998 595.652 36.5479 594.536 36.5479H594.373C592.993 36.5479 591.511 35.4719 591.43 32.9747H598.596V31.9596C598.596 29.3204 596.952 27.4526 594.353 27.4526C591.978 27.4526 589.704 29.1782 589.704 32.7108C589.704 36.2434 591.876 38.0097 594.394 38.0097ZM591.511 31.5739C591.856 29.564 593.135 28.9143 594.272 28.9143H594.434C595.754 28.9143 596.789 29.8076 596.871 31.5739H591.511ZM610.345 27.6556L607.137 35.3704L603.869 27.6556H602.021L606.305 37.6036V39.0857C606.305 39.6947 606.102 39.8978 605.493 39.8978H602.63V41.4204H605.899C607.279 41.4204 607.949 40.7707 607.949 39.4105V37.5427L612.132 27.6556H610.345ZM616.548 38.0097C619.248 38.0097 621.36 35.8779 621.36 32.7311C621.36 29.5843 619.248 27.4526 616.548 27.4526C613.848 27.4526 611.757 29.5843 611.757 32.7311C611.757 35.8779 613.848 38.0097 616.548 38.0097ZM616.467 36.5479C614.761 36.5479 613.482 35.1471 613.482 32.7311C613.482 30.3152 614.761 28.9143 616.467 28.9143H616.649C618.355 28.9143 619.634 30.3152 619.634 32.7311C619.634 35.1471 618.355 36.5479 616.649 36.5479H616.467ZM625.916 38.0097C627.642 38.0097 628.779 37.0758 629.205 35.8779V37.8066H630.931V27.6556H629.205V33.1372C629.205 35.2689 627.885 36.5479 626.525 36.5479H626.342C624.881 36.5479 624.17 35.6749 624.17 33.9492V27.6556H622.444V34.3553C622.444 36.487 623.642 38.0097 625.916 38.0097ZM634.471 37.8066V32.7311C634.471 30.5385 635.608 29.1985 637.476 29.1985H638.288V27.5541H637.374C636.034 27.5541 634.796 28.3662 634.369 29.9091V27.6556H632.745V37.8066H634.471ZM643.846 41.8671V36.3246C644.374 37.2991 645.674 38.0097 647.074 38.0097C649.632 38.0097 651.622 36.0404 651.622 32.7311C651.622 29.4219 649.775 27.4526 647.196 27.4526C645.816 27.4526 644.374 28.1631 643.846 29.1376V27.6556H642.121V41.8671H643.846ZM646.831 36.5479C645.146 36.5479 643.846 35.0862 643.846 32.7311C643.846 30.3761 645.146 28.9143 646.831 28.9143H646.973C648.719 28.9143 649.896 30.3761 649.896 32.7311C649.896 35.0862 648.719 36.5479 646.973 36.5479H646.831ZM654.541 37.8066V32.7311C654.541 30.5385 655.678 29.1985 657.546 29.1985H658.358V27.5541H657.445C656.105 27.5541 654.866 28.3662 654.44 29.9091V27.6556H652.816V37.8066H654.541ZM662.796 38.0097C665.496 38.0097 667.607 35.8779 667.607 32.7311C667.607 29.5843 665.496 27.4526 662.796 27.4526C660.095 27.4526 658.004 29.5843 658.004 32.7311C658.004 35.8779 660.095 38.0097 662.796 38.0097ZM662.714 36.5479C661.009 36.5479 659.73 35.1471 659.73 32.7311C659.73 30.3152 661.009 28.9143 662.714 28.9143H662.897C664.602 28.9143 665.881 30.3152 665.881 32.7311C665.881 35.1471 664.602 36.5479 662.897 36.5479H662.714ZM672.61 38.0097C673.991 38.0097 675.432 37.2991 675.98 36.3246V37.8066H677.706V23.5952H675.98V29.1376C675.432 28.1631 674.133 27.4526 672.752 27.4526C670.174 27.4526 668.184 29.4219 668.184 32.7311C668.184 36.0404 670.032 38.0097 672.61 38.0097ZM672.834 36.5479C671.088 36.5479 669.93 35.0862 669.93 32.7311C669.93 30.3761 671.088 28.9143 672.834 28.9143H672.976C674.681 28.9143 675.98 30.3761 675.98 32.7311C675.98 35.0862 674.681 36.5479 672.976 36.5479H672.834ZM682.859 38.0097C684.584 38.0097 685.721 37.0758 686.148 35.8779V37.8066H687.873V27.6556H686.148V33.1372C686.148 35.2689 684.828 36.5479 683.468 36.5479H683.285C681.823 36.5479 681.113 35.6749 681.113 33.9492V27.6556H679.387V34.3553C679.387 36.487 680.585 38.0097 682.859 38.0097ZM693.87 38.0097C696.144 38.0097 697.707 36.6494 697.971 34.4974H696.245C696.042 35.6749 695.19 36.5479 693.972 36.5479H693.789C691.759 36.5479 690.805 34.7613 690.805 32.7311C690.805 30.7009 691.759 28.9143 693.789 28.9143H693.972C695.19 28.9143 696.042 29.767 696.245 30.9648H697.971C697.768 28.7925 696.144 27.4526 693.87 27.4526C690.784 27.4526 689.079 29.7467 689.079 32.7311C689.079 35.7155 690.784 38.0097 693.87 38.0097ZM704.538 37.8066V36.284H702.568C701.959 36.284 701.756 36.081 701.756 35.4719V29.1376H704.233V27.6556H701.756V24.3666H700.031V27.6556H697.757V29.1376H700.031V35.7155C700.031 37.0961 700.782 37.8066 702.162 37.8066H704.538Z" fill="#191A1E"/>
<path d="M547.154 45.3444H546.654V45.8444H547.154V45.3444ZM560.689 18.5H698.171V17.5H560.689V18.5ZM698.171 44.8444H547.154V45.8444H698.171V44.8444ZM547.654 45.3444V31.5347H546.654V45.3444H547.654ZM711.343 31.6722C711.343 38.947 705.446 44.8444 698.171 44.8444V45.8444C705.998 45.8444 712.343 39.4993 712.343 31.6722H711.343ZM698.171 18.5C705.446 18.5 711.343 24.3974 711.343 31.6722H712.343C712.343 23.8451 705.998 17.5 698.171 17.5V18.5ZM560.689 17.5C552.938 17.5 546.654 23.7836 546.654 31.5347H547.654C547.654 24.3358 553.49 18.5 560.689 18.5V17.5Z" fill="black"/>
<path d="M547 58.6531C547 51.1127 553.113 45 560.653 45H638.1C645.666 45 651.8 51.1337 651.8 58.7V58.7C651.8 66.2662 645.666 72.3999 638.1 72.3999H547V58.6531Z" fill="black"/>
<path d="M562.476 63.2016L557.95 50.5042H554.857V64.8399H556.701V52.1016L561.268 64.8399H563.664L568.149 52.0606V64.8399H569.992V50.5042H566.94L562.476 63.2016ZM575.518 65.0447C577.259 65.0447 578.406 64.1027 578.836 62.8944V64.8399H580.577V54.6001H578.836V60.1296C578.836 62.28 577.505 63.5702 576.133 63.5702H575.948C574.474 63.5702 573.757 62.6896 573.757 60.9488V54.6001H572.016V61.3584C572.016 63.5088 573.225 65.0447 575.518 65.0447ZM584.148 64.8399V50.5042H582.407V64.8399H584.148ZM591.547 64.8399V63.304H589.561C588.946 63.304 588.741 63.0992 588.741 62.4848V56.0951H591.24V54.6001H588.741V51.2824H587.001V54.6001H584.707V56.0951H587.001V62.7305C587.001 64.1232 587.758 64.8399 589.151 64.8399H591.547ZM594.148 52.7569V50.668H592.202V52.7569H594.148ZM594.046 64.8399V54.6001H592.305V64.8399H594.046ZM597.594 68.9359V63.3449C598.127 64.328 599.437 65.0447 600.851 65.0447C603.431 65.0447 605.438 63.0582 605.438 59.72C605.438 56.3818 603.574 54.3953 600.973 54.3953C599.581 54.3953 598.127 55.1121 597.594 56.0951V54.6001H595.854V68.9359H597.594ZM600.605 63.5702C598.905 63.5702 597.594 62.0957 597.594 59.72C597.594 57.3444 598.905 55.8698 600.605 55.8698H600.748C602.509 55.8698 603.697 57.3444 603.697 59.72C603.697 62.0957 602.509 63.5702 600.748 63.5702H600.605ZM608.383 64.8399V50.5042H606.642V64.8399H608.383ZM612.915 65.0447C614.594 65.0447 615.884 64.1232 616.294 63.2016C616.294 63.4473 616.314 64.3484 616.396 64.8399H618.035C617.932 64.1232 617.932 63.2016 617.932 62.5872V58.2864C617.932 56.1975 616.56 54.3953 613.857 54.3953C611.584 54.3953 609.904 55.665 609.781 57.5287H611.522C611.645 56.4228 612.628 55.8698 613.775 55.8698H613.918C615.331 55.8698 616.191 56.7505 616.191 58.2864V58.6346L613.242 58.8804C611.604 59.0032 609.577 59.6995 609.577 62.0137C609.577 63.7545 611.01 65.0447 612.915 65.0447ZM613.099 63.5702C612.075 63.5702 611.317 62.8739 611.317 61.9318C611.317 60.9283 612.218 60.3139 613.509 60.2115L616.191 60.0067V61.1536C616.191 62.4848 614.594 63.5702 613.283 63.5702H613.099ZM626.689 54.6001L623.454 62.3824L620.156 54.6001H618.293L622.614 64.6351V66.1302C622.614 66.7446 622.409 66.9494 621.795 66.9494H618.907V68.4853H622.204C623.597 68.4853 624.273 67.83 624.273 66.4578V64.5737L628.492 54.6001H626.689ZM632.865 65.0447C634.974 65.0447 636.694 63.8979 637.083 61.8499H635.343C635.076 63.0173 634.134 63.5702 633.008 63.5702H632.844C631.452 63.5702 629.957 62.4848 629.875 59.9658H637.104V58.9418C637.104 56.2794 635.445 54.3953 632.824 54.3953C630.428 54.3953 628.134 56.1361 628.134 59.6995C628.134 63.263 630.325 65.0447 632.865 65.0447ZM629.957 58.5527C630.305 56.5252 631.595 55.8698 632.742 55.8698H632.906C634.237 55.8698 635.281 56.7709 635.363 58.5527H629.957ZM640.098 64.8399V59.72C640.098 57.5082 641.245 56.1566 643.129 56.1566H643.948V54.4977H643.026C641.675 54.4977 640.425 55.3169 639.995 56.8733V54.6001H638.357V64.8399H640.098Z" fill="white"/>
<path d="M547 72.3999H546.5V72.8999H547V72.3999ZM560.653 45.5H638.1V44.5H560.653V45.5ZM638.1 71.8999H547V72.8999H638.1V71.8999ZM547.5 72.3999V58.6531H546.5V72.3999H547.5ZM651.3 58.7C651.3 65.9901 645.39 71.8999 638.1 71.8999V72.8999C645.942 72.8999 652.3 66.5424 652.3 58.7H651.3ZM638.1 45.5C645.39 45.5 651.3 51.4098 651.3 58.7H652.3C652.3 50.8575 645.942 44.5 638.1 44.5V45.5ZM560.653 44.5C552.837 44.5 546.5 50.8366 546.5 58.6531H547.5C547.5 51.3889 553.389 45.5 560.653 45.5V44.5Z" fill="black"/>
<path d="M665.549 72.2048C673.032 72.2048 679.098 66.1606 679.098 58.7048C679.098 51.2489 673.032 45.2048 665.549 45.2048C658.066 45.2048 652 51.2489 652 58.7048C652 66.1606 658.066 72.2048 665.549 72.2048Z" fill="#F4FFA0"/>
<path d="M668.495 64.0087C667.889 64.0087 667.245 63.927 666.574 63.7614C664.478 63.2446 662.388 62.0272 660.562 60.2081L661.78 58.995C663.93 61.1378 666.481 62.2904 668.49 62.2915C669.428 62.2915 670.232 62.0262 670.795 61.4647C671.623 60.64 671.85 59.6202 671.489 58.3455C671.099 56.9658 670.015 55.3632 668.355 53.7086L669.574 52.4944C671.468 54.3826 672.671 56.1942 673.148 57.8785C673.678 59.7507 673.285 61.4106 672.013 62.6778C671.132 63.5577 669.917 64.0087 668.495 64.0087Z" fill="black"/>
<path d="M660.571 60.2176C659.432 59.0831 658.511 57.8328 657.991 56.7132C657.171 54.9439 657.561 54.0121 658.034 53.542C658.506 53.0718 659.441 52.6823 661.216 53.5005C662.34 54.0174 663.585 54.927 664.723 56.0615L663.506 57.2757C662.579 56.3523 661.575 55.5967 660.676 55.1466C659.812 54.7136 659.364 54.7264 659.256 54.7603C659.222 54.8686 659.209 55.3143 659.643 56.1762C660.095 57.0719 660.863 58.0823 661.789 59.0045L660.571 60.2176Z" fill="black"/>
<path d="M663.692 66.0167C663.239 66.0167 662.76 65.9583 662.262 65.8416C660.657 65.4637 659.011 64.4969 657.631 63.1214L658.85 61.9072C660.007 63.0609 661.36 63.8654 662.658 64.171C664.211 64.5372 664.991 64.0448 665.319 63.7189C665.645 63.3931 666.14 62.6151 665.772 61.0677C665.465 59.774 664.663 58.4293 663.506 57.2757L664.72 56.0583C666.101 57.4348 667.07 59.0735 667.449 60.6729C667.863 62.4199 667.539 63.9333 666.536 64.932C665.818 65.6473 664.836 66.0167 663.692 66.0167Z" fill="black"/>
<path d="M669.227 57.7819H667.505V51.7791H673.529V53.4952H669.227V57.7819Z" fill="black"/>
</svg>
