    <svg
      width="100%"
      viewBox="0 0 266 65"
      fill="none"
      xmlns="http://www.w3.org/2000/svg"
    >
      <path
        d="M232.617 65c18.015 0 32.618-14.55 32.618-32.5S250.632 0 232.617 0C214.603 0 200 14.55 200 32.5S214.603 65 232.617 65Z"
        fill="#F4FFA0"
      ></path>
      <path
        d="M239.709 45.269c-1.459 0-3.007-.197-4.622-.596-5.046-1.244-10.079-4.175-14.474-8.554l2.931-2.92c5.176 5.158 11.317 7.933 16.155 7.936 2.257 0 4.192-.64 5.548-1.99 1.993-1.986 2.539-4.441 1.672-7.51-.941-3.322-3.548-7.18-7.545-11.163l2.933-2.923c4.561 4.546 7.455 8.907 8.604 12.962 1.278 4.507.331 8.503-2.73 11.554-2.123 2.118-5.046 3.204-8.472 3.204Z"
        fill="#000"
      ></path>
      <path
        d="M220.633 36.142c-2.74-2.731-4.958-5.741-6.21-8.437-1.974-4.259-1.036-6.502.103-7.634 1.136-1.132 3.387-2.07 7.662-.1 2.704 1.245 5.701 3.434 8.442 6.166l-2.93 2.923c-2.231-2.223-4.648-4.042-6.813-5.126-2.081-1.042-3.158-1.012-3.42-.93-.082.26-.113 1.334.933 3.409 1.087 2.156 2.936 4.588 5.167 6.809l-2.934 2.92Z"
        fill="#000"
      ></path>
      <path
        d="M228.149 50.103a15.12 15.12 0 0 1-3.444-.422c-3.864-.91-7.826-3.237-11.148-6.548l2.933-2.923c2.786 2.777 6.043 4.714 9.168 5.45 3.739.881 5.616-.304 6.405-1.089.787-.784 1.977-2.657 1.093-6.382-.739-3.115-2.67-6.352-5.456-9.13l2.922-2.93c3.326 3.314 5.657 7.259 6.569 11.11.997 4.205.219 7.848-2.197 10.253-1.729 1.722-4.093 2.61-6.845 2.61ZM241.473 30.278h-4.145V15.827h14.502v4.131h-10.357v10.32Z"
        fill="#000"
      ></path>
      <path
        d="M.25 46.91C.25 21.14 21.14.25 46.91.25h121.816c17.134 0 31.024 13.89 31.024 31.023v1.958c0 17.134-13.89 31.023-31.024 31.023H.25V46.91Z"
        stroke="#fff"
        stroke-width=".5"
      ></path>
      <path
        d="M73.966 57.596c-13.964 0-25.329-11.36-25.329-25.32S60.002 6.908 73.967 6.908c13.964 0 25.329 11.36 25.329 25.32S87.93 57.596 73.966 57.596Zm0-44.622c-10.642 0-19.31 8.664-19.31 19.302s8.668 19.303 19.31 19.303c10.643 0 19.31-8.665 19.31-19.303 0-10.638-8.667-19.302-19.31-19.302ZM110.323 9.508h-6.068v47.221h6.068V9.508Z"
        fill="#fff"
      ></path>
      <path
        d="m136.134 56.73-30-21.662 3.563-4.862 30 21.662-3.563 4.861Z"
        fill="#fff"
      ></path>
      <path
        d="M126.888 33.383h-22.68V7.775h22.68c7.079 0 12.809 5.728 12.809 12.804 0 7.028-5.73 12.804-12.809 12.804Zm-16.613-6.065h16.613c3.708 0 6.742-3.033 6.742-6.739 0-3.707-3.034-6.74-6.742-6.74h-16.613v13.479ZM166.134 56.73h-21.526V7.774h21.526c13.58 0 24.655 10.975 24.655 24.501 0 13.526-11.075 24.453-24.655 24.453Zm-15.41-6.018h15.41c10.257 0 18.588-8.28 18.588-18.436 0-10.157-8.331-18.484-18.588-18.484h-15.41v36.92ZM35.684 34.49c-1.397-1.396-2.793-2.84-4.238-4.284l.723-.722c2.6-2.695 5.056-5.535 7.126-8.664 1.012-1.54 1.975-3.177 2.649-4.91.192-.53.385-1.107.481-1.685 0-.096 0-.144.049-.289-.145 0-.241 0-.386.048-1.011.193-1.926.578-2.84 1.011-2.023.963-3.95 2.214-5.731 3.562-2.215 1.637-4.286 3.466-6.308 5.343a48.067 48.067 0 0 0-5.201 5.632c-1.59 2.07-3.034 4.236-4.19 6.547-.963 1.925-1.781 3.947-2.215 6.065-.24 1.06-.385 2.166-.337 3.273a9.85 9.85 0 0 0 .338 2.022c.481 1.444 1.444 2.359 2.889 2.84.915.289 1.878.337 2.84.337 1.446-.048 2.794-.337 4.142-.77 2.36-.722 4.527-1.781 6.645-3.033 2.89-1.733 5.538-3.802 7.994-6.113.289-.289.626-.578.963-.915 1.445 1.396 2.841 2.84 4.286 4.237-.337.336-.626.673-.963.962-2.07 1.974-4.238 3.755-6.597 5.343-2.841 1.926-5.827 3.562-9.053 4.766-1.686.626-3.42 1.107-5.201 1.348-1.83.24-3.66.288-5.441-.049-3.371-.673-5.924-2.406-7.56-5.439-.675-1.251-1.012-2.551-1.205-3.947-.337-2.6 0-5.102.675-7.557.722-2.6 1.781-5.055 3.081-7.365 2.023-3.659 4.527-6.98 7.368-10.013 2.841-3.032 5.923-5.824 9.294-8.28 2.022-1.491 4.093-2.887 6.356-3.994 1.397-.674 2.793-1.3 4.334-1.637a8.21 8.21 0 0 1 3.082-.289c2.745.24 4.623 2.262 4.96 4.621a9.246 9.246 0 0 1-.24 3.466c-.338 1.3-.82 2.6-1.397 3.803-1.253 2.6-2.842 4.958-4.575 7.268a71.527 71.527 0 0 1-5.586 6.45l-1.011 1.011Z"
        fill="#fff"
      ></path>
    </svg>