<svg width="1936" height="1396" viewBox="0 0 1936 1396" fill="none" xmlns="http://www.w3.org/2000/svg">
<rect width="1936" height="1396" fill="#9A6AFF"/>
<path d="M187.825 449.783C220.606 449.783 241.973 434.563 250.169 422.563V446.856H273.877V366.365C273.877 351.438 265.974 343.535 251.047 343.535H190.166V367.243H250.169V374.268C250.169 404.123 226.46 425.782 191.63 425.782H188.703C146.555 425.782 117.871 396.22 117.871 344.413C117.871 292.606 146.555 263.044 188.41 263.044H191.337C222.655 263.044 242.558 279.728 246.071 308.704H272.413C269.194 268.605 240.51 239.043 189.873 239.043C128.7 239.043 91.5281 282.947 91.5281 344.413C91.5281 405.879 128.7 449.783 187.825 449.783ZM320.232 446.856V373.683C320.232 342.072 336.623 322.754 363.551 322.754H375.259V299.046H362.088C342.77 299.046 324.915 310.753 318.769 332.998V300.509H295.353V446.856H320.232ZM438.06 449.783C468.208 449.783 492.794 433.392 498.355 404.123H473.476C469.671 420.806 456.207 428.709 440.109 428.709H437.767C417.864 428.709 396.497 413.196 395.327 377.195H498.648V362.56C498.648 324.51 474.94 297.582 437.475 297.582C403.229 297.582 370.448 322.461 370.448 373.39C370.448 424.319 401.766 449.783 438.06 449.783ZM396.497 356.999C401.473 328.022 419.913 318.656 436.304 318.656H438.645C457.671 318.656 472.598 331.535 473.769 356.999H396.497ZM555.483 449.783C579.484 449.783 597.924 436.612 603.778 423.441C603.778 426.953 604.07 439.832 605.241 446.856H628.657C627.193 436.612 627.193 423.441 627.193 414.66V353.194C627.193 323.339 607.583 297.582 568.947 297.582C536.458 297.582 512.457 315.729 510.701 342.364H535.58C537.336 326.559 551.385 318.656 567.776 318.656H569.825C590.021 318.656 602.314 331.242 602.314 353.194V358.17L560.166 361.682C536.751 363.438 507.774 373.39 507.774 406.464C507.774 431.343 528.263 449.783 555.483 449.783ZM558.117 428.709C543.483 428.709 532.653 418.758 532.653 405.294C532.653 390.952 545.532 382.171 563.971 380.707L602.314 377.78V394.171C602.314 413.196 579.484 428.709 560.752 428.709H558.117ZM729.785 446.856V424.904H701.394C692.613 424.904 689.686 421.977 689.686 413.196V321.876H725.395V300.509H689.686V253.092H664.807V300.509H632.025V321.876H664.807V416.709C664.807 436.612 675.637 446.856 695.54 446.856H729.785Z" fill="#121314"/>
<path d="M3.71973 527.321H1.72357V529.317H3.71973V527.321ZM162.501 181.996H637.919V178.004H162.501V181.996ZM637.919 525.325H3.71973V529.317H637.919V525.325ZM5.71588 527.321V338.781H1.72357V527.321H5.71588ZM809.584 353.661C809.584 448.468 732.727 525.325 637.919 525.325V529.317C734.932 529.317 813.576 450.673 813.576 353.661H809.584ZM637.919 181.996C732.727 181.996 809.584 258.853 809.584 353.661H813.576C813.576 256.648 734.932 178.004 637.919 178.004V181.996ZM162.501 178.004C73.706 178.004 1.72357 249.986 1.72357 338.781H5.71588C5.71588 252.191 75.9109 181.996 162.501 181.996V178.004Z" fill="black"/>
<path d="M3.71973 1032.96C3.71973 945.268 74.8084 874.179 162.501 874.179H1491.92C1587.83 874.179 1665.58 951.93 1665.58 1047.84V1047.84C1665.58 1143.75 1587.83 1221.5 1491.92 1221.5H3.71973V1032.96Z" fill="#121314"/>
<path d="M159.726 1143.96C192.508 1143.96 215.045 1124.35 218.85 1093.33H193.971C191.044 1110.3 178.751 1122.89 161.189 1122.89H158.555C129.286 1122.89 115.529 1097.13 115.529 1067.86C115.529 1038.59 129.286 1012.84 158.555 1012.84H161.189C178.751 1012.84 191.044 1025.13 193.971 1042.4H218.85C215.923 1011.08 192.508 991.761 159.726 991.761C115.236 991.761 90.65 1024.84 90.65 1067.86C90.65 1110.89 115.236 1143.96 159.726 1143.96ZM295.045 1143.96C333.973 1143.96 364.413 1113.23 364.413 1067.86C364.413 1022.49 333.973 991.761 295.045 991.761C256.116 991.761 225.969 1022.49 225.969 1067.86C225.969 1113.23 256.116 1143.96 295.045 1143.96ZM293.874 1122.89C269.287 1122.89 250.848 1102.69 250.848 1067.86C250.848 1033.03 269.287 1012.84 293.874 1012.84H296.508C321.094 1012.84 339.534 1033.03 339.534 1067.86C339.534 1102.69 321.094 1122.89 296.508 1122.89H293.874ZM406.394 1141.04V936.149H381.515V1141.04H406.394ZM457.113 1141.04V936.149H432.234V1141.04H457.113ZM521.88 1143.96C545.881 1143.96 564.321 1130.79 570.175 1117.62C570.175 1121.13 570.468 1134.01 571.639 1141.04H595.054C593.591 1130.79 593.591 1117.62 593.591 1108.84V1047.37C593.591 1017.52 573.98 991.761 535.344 991.761C502.855 991.761 478.854 1009.91 477.098 1036.54H501.977C503.733 1020.74 517.783 1012.84 534.174 1012.84H536.222C556.418 1012.84 568.712 1025.42 568.712 1047.37V1052.35L526.564 1055.86C503.148 1057.62 474.171 1067.57 474.171 1100.64C474.171 1125.52 494.66 1143.96 521.88 1143.96ZM524.515 1122.89C509.88 1122.89 499.05 1112.94 499.05 1099.47C499.05 1085.13 511.929 1076.35 530.369 1074.89L568.712 1071.96V1088.35C568.712 1107.38 545.881 1122.89 527.149 1122.89H524.515ZM691.451 1143.96C728.623 1143.96 755.259 1115.57 755.259 1067.86C755.259 1020.15 726.575 991.761 689.695 991.761C669.499 991.761 650.767 1002.01 643.157 1016.05V936.149H618.278V1141.04H643.157V1119.67C650.767 1133.72 671.548 1143.96 691.451 1143.96ZM686.183 1122.89C661.889 1122.89 643.157 1101.81 643.157 1067.86C643.157 1033.91 661.889 1012.84 686.183 1012.84H688.232C713.403 1012.84 730.38 1033.91 730.38 1067.86C730.38 1101.81 713.403 1122.89 688.232 1122.89H686.183ZM832.47 1143.96C871.399 1143.96 901.839 1113.23 901.839 1067.86C901.839 1022.49 871.399 991.761 832.47 991.761C793.542 991.761 763.395 1022.49 763.395 1067.86C763.395 1113.23 793.542 1143.96 832.47 1143.96ZM831.3 1122.89C806.713 1122.89 788.274 1102.69 788.274 1067.86C788.274 1033.03 806.713 1012.84 831.3 1012.84H833.934C858.52 1012.84 876.96 1033.03 876.96 1067.86C876.96 1102.69 858.52 1122.89 833.934 1122.89H831.3ZM943.82 1141.04V1067.86C943.82 1036.25 960.211 1016.93 987.139 1016.93H998.847V993.225H985.675C966.358 993.225 948.503 1004.93 942.357 1027.18V994.688H918.941V1141.04H943.82ZM1044.03 1143.96C1068.03 1143.96 1086.47 1130.79 1092.33 1117.62C1092.33 1121.13 1092.62 1134.01 1093.79 1141.04H1117.21C1115.74 1130.79 1115.74 1117.62 1115.74 1108.84V1047.37C1115.74 1017.52 1096.13 991.761 1057.5 991.761C1025.01 991.761 1001.01 1009.91 999.249 1036.54H1024.13C1025.88 1020.74 1039.93 1012.84 1056.32 1012.84H1058.37C1078.57 1012.84 1090.86 1025.42 1090.86 1047.37V1052.35L1048.71 1055.86C1025.3 1057.62 996.322 1067.57 996.322 1100.64C996.322 1125.52 1016.81 1143.96 1044.03 1143.96ZM1046.67 1122.89C1032.03 1122.89 1021.2 1112.94 1021.2 1099.47C1021.2 1085.13 1034.08 1076.35 1052.52 1074.89L1090.86 1071.96V1088.35C1090.86 1107.38 1068.03 1122.89 1049.3 1122.89H1046.67ZM1218.33 1141.04V1119.08H1189.94C1181.16 1119.08 1178.23 1116.16 1178.23 1107.38V1016.05H1213.94V994.688H1178.23V947.272H1153.36V994.688H1120.57V1016.05H1153.36V1110.89C1153.36 1130.79 1164.18 1141.04 1184.09 1141.04H1218.33ZM1255.51 968.346V938.491H1227.7V968.346H1255.51ZM1254.04 1141.04V994.688H1229.16V1141.04H1254.04ZM1339.88 1143.96C1378.81 1143.96 1409.25 1113.23 1409.25 1067.86C1409.25 1022.49 1378.81 991.761 1339.88 991.761C1300.96 991.761 1270.81 1022.49 1270.81 1067.86C1270.81 1113.23 1300.96 1143.96 1339.88 1143.96ZM1338.71 1122.89C1314.13 1122.89 1295.69 1102.69 1295.69 1067.86C1295.69 1033.03 1314.13 1012.84 1338.71 1012.84H1341.35C1365.93 1012.84 1384.37 1033.03 1384.37 1067.86C1384.37 1102.69 1365.93 1122.89 1341.35 1122.89H1338.71ZM1451.23 1141.04V1062.01C1451.23 1033.03 1468.8 1012.84 1493.09 1012.84H1495.43C1517.09 1012.84 1526.75 1026.3 1526.75 1049.71V1141.04H1551.63V1043.86C1551.63 1011.66 1531.72 991.761 1499.53 991.761C1475.82 991.761 1459.72 1002.3 1451.23 1016.64V994.688H1426.35V1141.04H1451.23Z" fill="white"/>
<path d="M3.71973 1221.5H1.72357V1223.5H3.71973V1221.5ZM162.501 876.175H1491.92V872.183H162.501V876.175ZM1491.92 1219.5H3.71973V1223.5H1491.92V1219.5ZM5.71588 1221.5V1032.96H1.72357V1221.5H5.71588ZM1663.58 1047.84C1663.58 1142.65 1586.73 1219.5 1491.92 1219.5V1223.5C1588.93 1223.5 1667.58 1144.85 1667.58 1047.84H1663.58ZM1491.92 876.175C1586.73 876.175 1663.58 953.032 1663.58 1047.84H1667.58C1667.58 950.827 1588.93 872.183 1491.92 872.183V876.175ZM162.501 872.183C73.706 872.183 1.72357 944.165 1.72357 1032.96H5.71588C5.71588 946.37 75.9109 876.175 162.501 876.175V872.183Z" fill="black"/>
<path d="M140.993 793.844V668.864H178.166V647.497H140.993V622.325C140.993 613.544 143.92 610.618 152.701 610.618H185.483V588.958H145.969C125.773 588.958 116.114 598.324 116.114 618.228V647.497H83.3327V668.864H116.114V793.844H140.993ZM243.594 796.771C282.523 796.771 312.963 766.038 312.963 720.671C312.963 675.303 282.523 644.57 243.594 644.57C204.666 644.57 174.518 675.303 174.518 720.671C174.518 766.038 204.666 796.771 243.594 796.771ZM242.424 775.697C217.837 775.697 199.397 755.501 199.397 720.671C199.397 685.84 217.837 665.644 242.424 665.644H245.058C269.644 665.644 288.084 685.84 288.084 720.671C288.084 755.501 269.644 775.697 245.058 775.697H242.424ZM378.652 796.771C403.531 796.771 419.922 783.307 426.069 766.038V793.844H450.948V647.497H426.069V726.525C426.069 757.257 407.044 775.697 387.433 775.697H384.799C363.725 775.697 353.481 763.111 353.481 738.232V647.497H328.601V744.086C328.601 774.819 345.87 796.771 378.652 796.771ZM501.989 793.844V714.817C501.989 685.84 519.55 665.644 543.844 665.644H546.186C567.845 665.644 577.504 679.108 577.504 702.524V793.844H602.383V696.67C602.383 664.473 582.48 644.57 550.283 644.57C526.575 644.57 510.477 655.107 501.989 669.449V647.497H477.11V793.844H501.989ZM682.039 796.771C701.942 796.771 722.724 786.527 730.626 772.478V793.844H755.506V588.958H730.626V668.864C722.724 654.814 703.991 644.57 684.088 644.57C646.916 644.57 618.232 672.961 618.232 720.671C618.232 768.38 644.867 796.771 682.039 796.771ZM685.259 775.697C660.087 775.697 643.404 754.623 643.404 720.671C643.404 686.718 660.087 665.644 685.259 665.644H687.308C711.894 665.644 730.626 686.718 730.626 720.671C730.626 754.623 711.894 775.697 687.308 775.697H685.259ZM820.132 796.771C844.133 796.771 862.572 783.6 868.426 770.429C868.426 773.941 868.719 786.82 869.89 793.844H893.305C891.842 783.6 891.842 770.429 891.842 761.648V700.182C891.842 670.327 872.231 644.57 833.596 644.57C801.106 644.57 777.105 662.717 775.349 689.352H800.228C801.984 673.547 816.034 665.644 832.425 665.644H834.474C854.67 665.644 866.963 678.23 866.963 700.182V705.158L824.815 708.67C801.399 710.426 772.422 720.378 772.422 753.452C772.422 778.331 792.911 796.771 820.132 796.771ZM822.766 775.697C808.131 775.697 797.301 765.746 797.301 752.282C797.301 737.94 810.18 729.159 828.62 727.695L866.963 724.768V741.159C866.963 760.184 844.133 775.697 825.4 775.697H822.766ZM994.433 793.844V771.892H966.042C957.261 771.892 954.334 768.965 954.334 760.184V668.864H990.043V647.497H954.334V600.081H929.455V647.497H896.673V668.864H929.455V763.697C929.455 783.6 940.285 793.844 960.188 793.844H994.433ZM1031.61 621.155V591.3H1003.8V621.155H1031.61ZM1030.14 793.844V647.497H1005.26V793.844H1030.14ZM1115.98 796.771C1154.91 796.771 1185.35 766.038 1185.35 720.671C1185.35 675.303 1154.91 644.57 1115.98 644.57C1077.06 644.57 1046.91 675.303 1046.91 720.671C1046.91 766.038 1077.06 796.771 1115.98 796.771ZM1114.81 775.697C1090.23 775.697 1071.79 755.501 1071.79 720.671C1071.79 685.84 1090.23 665.644 1114.81 665.644H1117.45C1142.03 665.644 1160.47 685.84 1160.47 720.671C1160.47 755.501 1142.03 775.697 1117.45 775.697H1114.81ZM1227.33 793.844V714.817C1227.33 685.84 1244.9 665.644 1269.19 665.644H1271.53C1293.19 665.644 1302.85 679.108 1302.85 702.524V793.844H1327.73V696.67C1327.73 664.473 1307.82 644.57 1275.63 644.57C1251.92 644.57 1235.82 655.107 1227.33 669.449V647.497H1202.45V793.844H1227.33ZM1400.36 796.771C1433.73 796.771 1456.85 779.795 1456.85 752.867C1456.85 727.11 1439 715.988 1417.34 711.597L1394.21 706.621C1378.41 703.402 1371.68 697.548 1371.68 686.425C1371.68 675.303 1382.51 665.644 1400.07 665.644H1402.7C1422.02 665.644 1431.68 678.23 1433.43 692.279H1458.31C1457.73 665.937 1439 644.57 1401.24 644.57C1372.55 644.57 1346.8 660.083 1346.8 689.06C1346.8 713.939 1365.53 725.354 1388.65 730.037L1410.02 734.427C1426.41 737.647 1431.97 744.379 1431.97 754.331C1431.97 767.502 1419.68 775.697 1402.7 775.697H1400.07C1381.92 775.697 1367.58 767.502 1365.82 749.062H1340.94C1341.53 776.575 1362.02 796.771 1400.36 796.771ZM1567.96 793.844V668.864H1605.13V647.497H1567.96V622.325C1567.96 613.544 1570.89 610.618 1579.67 610.618H1612.45V588.958H1572.93C1552.74 588.958 1543.08 598.324 1543.08 618.228V647.497H1510.3V668.864H1543.08V793.844H1567.96ZM1670.56 796.771C1709.49 796.771 1739.93 766.038 1739.93 720.671C1739.93 675.303 1709.49 644.57 1670.56 644.57C1631.63 644.57 1601.48 675.303 1601.48 720.671C1601.48 766.038 1631.63 796.771 1670.56 796.771ZM1669.39 775.697C1644.8 775.697 1626.36 755.501 1626.36 720.671C1626.36 685.84 1644.8 665.644 1669.39 665.644H1672.02C1696.61 665.644 1715.05 685.84 1715.05 720.671C1715.05 755.501 1696.61 775.697 1672.02 775.697H1669.39ZM1781.91 793.844V720.671C1781.91 689.06 1798.3 669.742 1825.23 669.742H1836.94V646.034H1823.76C1804.45 646.034 1786.59 657.741 1780.45 679.986V647.497H1757.03V793.844H1781.91Z" fill="#121314"/>
<path d="M3.71973 874.309H1.28061V876.748H3.71973V874.309ZM162.501 529.427H1761.92V524.549H162.501V529.427ZM1761.92 871.87H3.71973V876.748H1761.92V871.87ZM6.15885 874.309V685.769H1.28061V874.309H6.15885ZM1933.14 700.649C1933.14 795.212 1856.48 871.87 1761.92 871.87V876.748C1859.18 876.748 1938.02 797.906 1938.02 700.649H1933.14ZM1761.92 529.427C1856.48 529.427 1933.14 606.086 1933.14 700.649H1938.02C1938.02 603.391 1859.18 524.549 1761.92 524.549V529.427ZM162.501 524.549C73.4614 524.549 1.28061 596.73 1.28061 685.769H6.15885C6.15885 599.424 76.1555 529.427 162.501 529.427V524.549Z" fill="black"/>
</svg>
