<svg width="1000" height="600" viewBox="0 0 1000 600" fill="none" xmlns="http://www.w3.org/2000/svg">
<rect width="1000" height="600" fill="#F6F6F6"/>
<path d="M315 88.5H699.5V183C699.5 191.56 692.56 198.5 684 198.5H299.5V104C299.5 95.4396 306.44 88.5 315 88.5Z" fill="white" stroke="black"/>
<line y1="299.5" x2="1000" y2="299.5" stroke="black" stroke-dasharray="6 6"/>
<path d="M33.464 156.24C37.16 156.24 39.56 154.416 39.56 151.464C39.56 148.8 37.928 147.312 35.072 146.736L32.384 146.208C30.872 145.896 29.912 145.104 29.912 143.736C29.912 142.128 31.376 140.928 33.56 140.928H33.8C35.936 140.928 37.52 142.176 37.664 144.192H39.824C39.704 140.976 37.352 138.96 33.68 138.96C30.056 138.96 27.752 141.12 27.752 143.76C27.752 146.352 29.288 147.816 31.928 148.368L34.616 148.92C36.488 149.304 37.4 150.12 37.4 151.56C37.4 153.072 36.128 154.272 33.776 154.272H33.536C30.92 154.272 29.072 153 29.072 150.648H26.912C26.984 154.296 29.48 156.24 33.464 156.24ZM47.6251 156.24C50.0971 156.24 52.1131 154.896 52.5691 152.496H50.5291C50.2171 153.864 49.1131 154.512 47.7931 154.512H47.6011C45.9691 154.512 44.2171 153.24 44.1211 150.288H52.5931V149.088C52.5931 145.968 50.6491 143.76 47.5771 143.76C44.7691 143.76 42.0811 145.8 42.0811 149.976C42.0811 154.152 44.6491 156.24 47.6251 156.24ZM44.2171 148.632C44.6251 146.256 46.1371 145.488 47.4811 145.488H47.6731C49.2331 145.488 50.4571 146.544 50.5531 148.632H44.2171ZM57.6614 156V150C57.6614 147.408 59.0054 145.824 61.2134 145.824H62.1734V143.88H61.0934C59.5094 143.88 58.0454 144.84 57.5414 146.664V144H55.6214V156H57.6614ZM68.8242 154.032L65.1763 144H63.0643L67.5523 156H70.0483L74.5363 144H72.4483L68.8242 154.032ZM81.3283 156.24C83.8003 156.24 85.8163 154.896 86.2723 152.496H84.2323C83.9203 153.864 82.8163 154.512 81.4963 154.512H81.3043C79.6723 154.512 77.9203 153.24 77.8242 150.288H86.2963V149.088C86.2963 145.968 84.3523 143.76 81.2803 143.76C78.4723 143.76 75.7843 145.8 75.7843 149.976C75.7843 154.152 78.3523 156.24 81.3283 156.24ZM77.9203 148.632C78.3283 146.256 79.8403 145.488 81.1843 145.488H81.3763C82.9363 145.488 84.1603 146.544 84.2563 148.632H77.9203ZM91.3646 156V150C91.3646 147.408 92.7086 145.824 94.9166 145.824H95.8766V143.88H94.7966C93.2126 143.88 91.7486 144.84 91.2446 146.664V144H89.3246V156H91.3646ZM103.342 149.64V147.84H97.0299V149.64H103.342ZM110.745 156.24C113.481 156.24 115.377 154.848 115.377 152.64C115.377 150.528 113.913 149.616 112.137 149.256L110.241 148.848C108.945 148.584 108.393 148.104 108.393 147.192C108.393 146.28 109.281 145.488 110.721 145.488H110.937C112.521 145.488 113.313 146.52 113.457 147.672H115.497C115.449 145.512 113.913 143.76 110.817 143.76C108.465 143.76 106.353 145.032 106.353 147.408C106.353 149.448 107.889 150.384 109.785 150.768L111.537 151.128C112.881 151.392 113.337 151.944 113.337 152.76C113.337 153.84 112.329 154.512 110.937 154.512H110.721C109.233 154.512 108.057 153.84 107.913 152.328H105.873C105.921 154.584 107.601 156.24 110.745 156.24ZM120.594 141.84V139.392H118.314V141.84H120.594ZM120.474 156V144H118.434V156H120.474ZM128.665 156.24C130.297 156.24 132.001 155.4 132.649 154.248V156H134.689V139.2H132.649V145.752C132.001 144.6 130.465 143.76 128.833 143.76C125.785 143.76 123.433 146.088 123.433 150C123.433 153.912 125.617 156.24 128.665 156.24ZM128.929 154.512C126.865 154.512 125.497 152.784 125.497 150C125.497 147.216 126.865 145.488 128.929 145.488H129.097C131.113 145.488 132.649 147.216 132.649 150C132.649 152.784 131.113 154.512 129.097 154.512H128.929ZM143.18 156.24C145.652 156.24 147.668 154.896 148.124 152.496H146.084C145.772 153.864 144.668 154.512 143.348 154.512H143.156C141.524 154.512 139.772 153.24 139.676 150.288H148.148V149.088C148.148 145.968 146.204 143.76 143.132 143.76C140.324 143.76 137.636 145.8 137.636 149.976C137.636 154.152 140.204 156.24 143.18 156.24ZM139.772 148.632C140.18 146.256 141.692 145.488 143.036 145.488H143.228C144.788 145.488 146.012 146.544 146.108 148.632H139.772Z" fill="black"/>
<path d="M35.048 455.24C38.672 455.24 41.456 453.08 41.672 449.768H39.512C39.272 451.784 37.688 453.272 35.168 453.272H34.928C31.328 453.272 29.36 450.296 29.36 446.6C29.36 442.904 31.328 439.928 34.928 439.928H35.168C37.688 439.928 39.272 441.416 39.512 443.432H41.672C41.456 440.12 38.672 437.96 35.048 437.96C30.176 437.96 27.2 441.68 27.2 446.6C27.2 451.52 30.176 455.24 35.048 455.24ZM46.6927 455V438.2H44.6527V455H46.6927ZM52.5314 440.84V438.392H50.2514V440.84H52.5314ZM52.4114 455V443H50.3714V455H52.4114ZM60.9142 455.24C63.3862 455.24 65.4022 453.896 65.8582 451.496H63.8182C63.5062 452.864 62.4022 453.512 61.0822 453.512H60.8902C59.2582 453.512 57.5062 452.24 57.4102 449.288H65.8822V448.088C65.8822 444.968 63.9382 442.76 60.8662 442.76C58.0582 442.76 55.3702 444.8 55.3702 448.976C55.3702 453.152 57.9382 455.24 60.9142 455.24ZM57.5062 447.632C57.9142 445.256 59.4262 444.488 60.7702 444.488H60.9622C62.5222 444.488 63.7462 445.544 63.8422 447.632H57.5062ZM70.9505 455V448.52C70.9505 446.144 72.3905 444.488 74.3825 444.488H74.5745C76.3505 444.488 77.1425 445.592 77.1425 447.512V455H79.1825V447.032C79.1825 444.392 77.5505 442.76 74.9105 442.76C72.9665 442.76 71.6465 443.624 70.9505 444.8V443H68.9105V455H70.9505ZM89.1969 455V453.2H86.8689C86.1489 453.2 85.9089 452.96 85.9089 452.24V444.752H88.8369V443H85.9089V439.112H83.8689V443H81.1809V444.752H83.8689V452.528C83.8689 454.16 84.7569 455 86.3889 455H89.1969ZM97.3888 448.64V446.84H91.0768V448.64H97.3888ZM104.792 455.24C107.528 455.24 109.424 453.848 109.424 451.64C109.424 449.528 107.96 448.616 106.184 448.256L104.288 447.848C102.992 447.584 102.44 447.104 102.44 446.192C102.44 445.28 103.328 444.488 104.768 444.488H104.984C106.568 444.488 107.36 445.52 107.504 446.672H109.544C109.496 444.512 107.96 442.76 104.864 442.76C102.512 442.76 100.4 444.032 100.4 446.408C100.4 448.448 101.936 449.384 103.832 449.768L105.584 450.128C106.928 450.392 107.384 450.944 107.384 451.76C107.384 452.84 106.376 453.512 104.984 453.512H104.768C103.28 453.512 102.104 452.84 101.96 451.328H99.9198C99.9678 453.584 101.648 455.24 104.792 455.24ZM114.641 440.84V438.392H112.361V440.84H114.641ZM114.521 455V443H112.481V455H114.521ZM122.712 455.24C124.344 455.24 126.048 454.4 126.696 453.248V455H128.736V438.2H126.696V444.752C126.048 443.6 124.512 442.76 122.88 442.76C119.832 442.76 117.48 445.088 117.48 449C117.48 452.912 119.664 455.24 122.712 455.24ZM122.976 453.512C120.912 453.512 119.544 451.784 119.544 449C119.544 446.216 120.912 444.488 122.976 444.488H123.144C125.16 444.488 126.696 446.216 126.696 449C126.696 451.784 125.16 453.512 123.144 453.512H122.976ZM137.227 455.24C139.699 455.24 141.715 453.896 142.171 451.496H140.131C139.819 452.864 138.715 453.512 137.395 453.512H137.203C135.571 453.512 133.819 452.24 133.723 449.288H142.195V448.088C142.195 444.968 140.251 442.76 137.179 442.76C134.371 442.76 131.683 444.8 131.683 448.976C131.683 453.152 134.251 455.24 137.227 455.24ZM133.819 447.632C134.227 445.256 135.739 444.488 137.083 444.488H137.275C138.835 444.488 140.059 445.544 140.155 447.632H133.819Z" fill="black"/>
<path d="M317.955 117H319.655L324.245 105.1H322.545L317.955 117ZM331.327 117.17C333.452 117.17 335.033 115.98 335.203 114.28H333.588C333.418 115.13 332.602 115.81 331.412 115.81H331.242C330.052 115.81 328.828 114.96 328.828 112.75C328.828 110.88 329.967 109.69 331.327 109.69H331.497C332.432 109.69 333.333 110.285 333.503 111.305H335.118C334.948 109.52 333.282 108.33 331.497 108.33C329.032 108.33 327.213 110.115 327.213 112.75C327.213 115.385 328.862 117.17 331.327 117.17ZM341.487 117.17C343.867 117.17 345.567 115.47 345.567 112.75C345.567 110.115 343.782 108.33 341.487 108.33C339.192 108.33 337.407 110.115 337.407 112.75C337.407 115.47 339.107 117.17 341.487 117.17ZM341.572 115.81H341.402C340.042 115.81 339.022 114.705 339.022 112.75C339.022 110.795 340.042 109.69 341.402 109.69H341.572C342.932 109.69 343.952 110.795 343.952 112.75C343.952 114.705 342.932 115.81 341.572 115.81ZM350.966 117V112.75C350.966 111.05 351.901 110.03 353.431 110.03H355.216V108.415H353.431C352.326 108.415 351.221 109.095 350.881 110.37V108.5H349.351V117H350.966ZM361.686 115.81H361.601C360.326 115.81 359.408 114.79 359.408 112.75C359.408 110.71 360.326 109.69 361.601 109.69H361.686C362.961 109.69 363.913 110.795 363.913 112.75C363.913 114.705 362.961 115.81 361.686 115.81ZM361.261 117.17C362.366 117.17 363.403 116.66 363.998 115.64V117H365.528V105.1H363.913V109.775C363.403 108.84 362.451 108.33 361.346 108.33C359.051 108.33 357.793 110.03 357.793 112.75C357.793 115.47 359.051 117.17 361.261 117.17ZM368.242 118.445H375.892V117H368.242V118.445ZM382.311 117.17C384.266 117.17 385.711 116.15 385.711 114.62C385.711 113.09 384.521 112.41 383.246 112.155L381.971 111.9C381.121 111.73 380.696 111.305 380.696 110.795C380.696 110.2 381.376 109.69 382.311 109.69H382.481C383.501 109.69 384.181 110.37 384.266 111.135H385.881C385.796 109.69 384.606 108.33 382.396 108.33C380.271 108.33 379.081 109.52 379.081 110.88C379.081 112.325 380.356 113.175 381.886 113.43L382.821 113.6C383.671 113.77 384.096 114.11 384.096 114.705C384.096 115.385 383.331 115.81 382.481 115.81H382.311C381.291 115.81 380.356 115.3 380.271 114.365H378.656C378.741 115.929 380.016 117.17 382.311 117.17ZM392.505 109.69H392.675C393.831 109.69 394.562 110.54 394.562 111.645H390.363C390.686 110.2 391.638 109.69 392.505 109.69ZM396.177 114.484H394.562C394.392 115.385 393.627 115.81 392.726 115.81C391.57 115.81 390.346 114.96 390.244 113.005H396.194V112.155C396.194 109.979 394.766 108.33 392.59 108.33C390.567 108.33 388.629 109.792 388.629 112.733C388.629 115.708 390.55 117.17 392.675 117.17C394.426 117.17 395.905 116.235 396.177 114.484ZM402.698 117.17C404.653 117.17 406.098 116.15 406.098 114.62C406.098 113.09 404.908 112.41 403.633 112.155L402.358 111.9C401.508 111.73 401.083 111.305 401.083 110.795C401.083 110.2 401.763 109.69 402.698 109.69H402.868C403.888 109.69 404.568 110.37 404.653 111.135H406.268C406.183 109.69 404.993 108.33 402.783 108.33C400.658 108.33 399.468 109.52 399.468 110.88C399.468 112.325 400.743 113.175 402.273 113.43L403.208 113.6C404.058 113.77 404.483 114.11 404.483 114.705C404.483 115.385 403.718 115.81 402.868 115.81H402.698C401.678 115.81 400.743 115.3 400.658 114.365H399.043C399.128 115.929 400.403 117.17 402.698 117.17ZM412.891 117.17C414.846 117.17 416.291 116.15 416.291 114.62C416.291 113.09 415.101 112.41 413.826 112.155L412.551 111.9C411.701 111.73 411.276 111.305 411.276 110.795C411.276 110.2 411.956 109.69 412.891 109.69H413.061C414.081 109.69 414.761 110.37 414.846 111.135H416.461C416.376 109.69 415.186 108.33 412.976 108.33C410.851 108.33 409.661 109.52 409.661 110.88C409.661 112.325 410.936 113.175 412.466 113.43L413.401 113.6C414.251 113.77 414.676 114.11 414.676 114.705C414.676 115.385 413.911 115.81 413.061 115.81H412.891C411.871 115.81 410.936 115.3 410.851 114.365H409.236C409.321 115.929 410.596 117.17 412.891 117.17ZM423.935 106.97V105.1H422.15V106.97H423.935ZM426.927 117V115.606H423.85V108.5H419.685V109.894H422.235V115.606H419.158V117H426.927ZM433.227 117.17C435.607 117.17 437.307 115.47 437.307 112.75C437.307 110.115 435.522 108.33 433.227 108.33C430.932 108.33 429.147 110.115 429.147 112.75C429.147 115.47 430.847 117.17 433.227 117.17ZM433.312 115.81H433.142C431.782 115.81 430.762 114.705 430.762 112.75C430.762 110.795 431.782 109.69 433.142 109.69H433.312C434.672 109.69 435.692 110.795 435.692 112.75C435.692 114.705 434.672 115.81 433.312 115.81ZM439.765 117H441.38V112.41C441.38 110.71 442.485 109.69 443.59 109.69H443.76C444.95 109.69 445.545 110.37 445.545 111.73V117H447.16V111.39C447.16 109.605 446.14 108.33 444.185 108.33C442.655 108.33 441.72 109.18 441.38 110.115V108.5H439.765V117ZM449.789 118.445H457.439V117H449.789V118.445ZM464.096 117H467.496V115.589H464.606C464.096 115.589 463.926 115.419 463.926 114.909V109.894H466.901V108.5H463.926V105.746H462.311V108.5H459.931V109.894H462.311V115.215C462.311 116.405 462.906 117 464.096 117ZM474 117.17C476.38 117.17 478.08 115.47 478.08 112.75C478.08 110.115 476.295 108.33 474 108.33C471.705 108.33 469.92 110.115 469.92 112.75C469.92 115.47 471.62 117.17 474 117.17ZM474.085 115.81H473.915C472.555 115.81 471.535 114.705 471.535 112.75C471.535 110.795 472.555 109.69 473.915 109.69H474.085C475.445 109.69 476.465 110.795 476.465 112.75C476.465 114.705 475.445 115.81 474.085 115.81ZM486.693 117H488.648L484.806 111.679L488.393 108.5H486.268L482.018 112.206V105.1H480.403V117H482.018V114.144L483.616 112.733L486.693 117ZM494.438 109.69H494.608C495.764 109.69 496.495 110.54 496.495 111.645H492.296C492.619 110.2 493.571 109.69 494.438 109.69ZM498.11 114.484H496.495C496.325 115.385 495.56 115.81 494.659 115.81C493.503 115.81 492.279 114.96 492.177 113.005H498.127V112.155C498.127 109.979 496.699 108.33 494.523 108.33C492.5 108.33 490.562 109.792 490.562 112.733C490.562 115.708 492.483 117.17 494.608 117.17C496.359 117.17 497.838 116.235 498.11 114.484ZM500.925 117H502.54V112.41C502.54 110.71 503.645 109.69 504.75 109.69H504.92C506.11 109.69 506.705 110.37 506.705 111.73V117H508.32V111.39C508.32 109.605 507.3 108.33 505.345 108.33C503.815 108.33 502.88 109.18 502.54 110.115V108.5H500.925V117Z" fill="black"/>
<path d="M318.754 156V151.75C318.754 149.914 319.706 148.792 321.27 148.792H321.95V147.415H321.185C320.063 147.415 319.026 148.095 318.669 149.387V147.5H317.309V156H318.754ZM326.703 156.17C328.454 156.17 329.882 155.218 330.205 153.518H328.76C328.539 154.487 327.757 154.946 326.822 154.946H326.686C325.53 154.946 324.289 154.045 324.221 151.954H330.222V151.104C330.222 148.894 328.845 147.33 326.669 147.33C324.68 147.33 322.776 148.775 322.776 151.733C322.776 154.691 324.595 156.17 326.703 156.17ZM324.289 150.781C324.578 149.098 325.649 148.554 326.601 148.554H326.737C327.842 148.554 328.709 149.302 328.777 150.781H324.289ZM336.875 156V154.725H335.226C334.716 154.725 334.546 154.555 334.546 154.045V148.741H336.62V147.5H334.546V144.746H333.101V147.5H331.197V148.741H333.101V154.249C333.101 155.405 333.73 156 334.886 156H336.875ZM341.431 156.17C342.876 156.17 343.828 155.388 344.185 154.385V156H345.63V147.5H344.185V152.09C344.185 153.875 343.08 154.946 341.941 154.946H341.788C340.564 154.946 339.969 154.215 339.969 152.77V147.5H338.524V153.11C338.524 154.895 339.527 156.17 341.431 156.17ZM349.699 156V151.75C349.699 149.914 350.651 148.792 352.215 148.792H352.895V147.415H352.13C351.008 147.415 349.971 148.095 349.614 149.387V147.5H348.254V156H349.699ZM355.991 156V151.41C355.991 149.727 357.011 148.554 358.422 148.554H358.558C359.816 148.554 360.377 149.336 360.377 150.696V156H361.822V150.356C361.822 148.486 360.666 147.33 358.796 147.33C357.419 147.33 356.484 147.942 355.991 148.775V147.5H354.546V156H355.991ZM370.802 156.17C372.196 156.17 373.267 155.405 373.607 154.64C373.607 154.844 373.624 155.592 373.692 156H375.052C374.967 155.405 374.967 154.64 374.967 154.13V150.56C374.967 148.826 373.828 147.33 371.584 147.33C369.697 147.33 368.303 148.384 368.201 149.931H369.646C369.748 149.013 370.564 148.554 371.516 148.554H371.635C372.808 148.554 373.522 149.285 373.522 150.56V150.849L371.074 151.053C369.714 151.155 368.031 151.733 368.031 153.654C368.031 155.099 369.221 156.17 370.802 156.17ZM370.955 154.946C370.105 154.946 369.476 154.368 369.476 153.586C369.476 152.753 370.224 152.243 371.295 152.158L373.522 151.988V152.94C373.522 154.045 372.196 154.946 371.108 154.946H370.955ZM384.478 156.17C386.416 156.17 387.759 155.184 387.759 153.62C387.759 152.124 386.722 151.478 385.464 151.223L384.121 150.934C383.203 150.747 382.812 150.407 382.812 149.761C382.812 149.115 383.441 148.554 384.461 148.554H384.614C385.736 148.554 386.297 149.285 386.399 150.101H387.844C387.81 148.571 386.722 147.33 384.529 147.33C382.863 147.33 381.367 148.231 381.367 149.914C381.367 151.359 382.455 152.022 383.798 152.294L385.039 152.549C385.991 152.736 386.314 153.127 386.314 153.705C386.314 154.47 385.6 154.946 384.614 154.946H384.461C383.407 154.946 382.574 154.47 382.472 153.399H381.027C381.061 154.997 382.251 156.17 384.478 156.17ZM391.454 145.97V144.236H389.839V145.97H391.454ZM391.369 156V147.5H389.924V156H391.369ZM397.205 159.74C399.789 159.74 401.302 158.125 401.302 155.983V147.5H399.857V148.741C399.449 147.976 398.514 147.33 397.205 147.33C395.165 147.33 393.465 148.809 393.465 151.699C393.465 154.589 395.199 156 397.205 156C398.514 156 399.398 155.354 399.857 154.589V155.83C399.857 157.734 398.735 158.516 397.29 158.516H397.12C395.879 158.516 394.927 158.057 394.74 157.139H393.295C393.465 158.652 394.808 159.74 397.205 159.74ZM397.273 154.776C395.947 154.776 394.91 153.824 394.91 151.699C394.91 149.574 396.015 148.554 397.324 148.554H397.477C398.769 148.554 399.857 149.744 399.857 151.699C399.857 153.654 398.701 154.776 397.409 154.776H397.273ZM405.348 156V151.41C405.348 149.727 406.368 148.554 407.779 148.554H407.915C409.173 148.554 409.734 149.336 409.734 150.696V156H411.179V150.356C411.179 148.486 410.023 147.33 408.153 147.33C406.776 147.33 405.841 147.942 405.348 148.775V147.5H403.903V156H405.348ZM417.131 156.17C418.882 156.17 420.31 155.218 420.633 153.518H419.188C418.967 154.487 418.185 154.946 417.25 154.946H417.114C415.958 154.946 414.717 154.045 414.649 151.954H420.65V151.104C420.65 148.894 419.273 147.33 417.097 147.33C415.108 147.33 413.204 148.775 413.204 151.733C413.204 154.691 415.023 156.17 417.131 156.17ZM414.717 150.781C415.006 149.098 416.077 148.554 417.029 148.554H417.165C418.27 148.554 419.137 149.302 419.205 150.781H414.717ZM425.991 156.17C427.147 156.17 428.354 155.575 428.813 154.759V156H430.258V144.1H428.813V148.741C428.354 147.925 427.266 147.33 426.11 147.33C423.951 147.33 422.285 148.979 422.285 151.75C422.285 154.521 423.832 156.17 425.991 156.17ZM426.178 154.946C424.716 154.946 423.747 153.722 423.747 151.75C423.747 149.778 424.716 148.554 426.178 148.554H426.297C427.725 148.554 428.813 149.778 428.813 151.75C428.813 153.722 427.725 154.946 426.297 154.946H426.178ZM437.68 156C439.618 156 440.57 155.031 440.57 152.974V144.1H439.04V152.889C439.04 154.028 438.598 154.555 437.51 154.555H435.708V156H437.68ZM453.53 154.47L451.065 144.1H448.991L446.492 154.436L444.061 144.1H442.48L445.387 156H447.512L449.977 145.817L452.442 156H454.567L457.474 144.1H455.893L453.53 154.47ZM463.963 156V145.494H468.247V144.1H458.149V145.494H462.433V156H463.963ZM476.999 156.17C478.903 156.17 480.212 155.031 480.433 153.229H478.988C478.818 154.215 478.104 154.946 477.084 154.946H476.931C475.231 154.946 474.431 153.45 474.431 151.75C474.431 150.05 475.231 148.554 476.931 148.554H477.084C478.104 148.554 478.818 149.268 478.988 150.271H480.433C480.263 148.452 478.903 147.33 476.999 147.33C474.415 147.33 472.987 149.251 472.987 151.75C472.987 154.249 474.415 156.17 476.999 156.17ZM485.963 156.17C488.224 156.17 489.992 154.385 489.992 151.75C489.992 149.115 488.224 147.33 485.963 147.33C483.702 147.33 481.951 149.115 481.951 151.75C481.951 154.385 483.702 156.17 485.963 156.17ZM485.895 154.946C484.467 154.946 483.396 153.773 483.396 151.75C483.396 149.727 484.467 148.554 485.895 148.554H486.048C487.476 148.554 488.547 149.727 488.547 151.75C488.547 153.773 487.476 154.946 486.048 154.946H485.895ZM493.535 156V151.41C493.535 149.727 494.555 148.554 495.966 148.554H496.102C497.36 148.554 497.921 149.336 497.921 150.696V156H499.366V150.356C499.366 148.486 498.21 147.33 496.34 147.33C494.963 147.33 494.028 147.942 493.535 148.775V147.5H492.09V156H493.535ZM506.46 156V154.725H504.811C504.301 154.725 504.131 154.555 504.131 154.045V148.741H506.205V147.5H504.131V144.746H502.686V147.5H500.782V148.741H502.686V154.249C502.686 155.405 503.315 156 504.471 156H506.46ZM510.455 156.17C511.849 156.17 512.92 155.405 513.26 154.64C513.26 154.844 513.277 155.592 513.345 156H514.705C514.62 155.405 514.62 154.64 514.62 154.13V150.56C514.62 148.826 513.481 147.33 511.237 147.33C509.35 147.33 507.956 148.384 507.854 149.931H509.299C509.401 149.013 510.217 148.554 511.169 148.554H511.288C512.461 148.554 513.175 149.285 513.175 150.56V150.849L510.727 151.053C509.367 151.155 507.684 151.733 507.684 153.654C507.684 155.099 508.874 156.17 510.455 156.17ZM510.608 154.946C509.758 154.946 509.129 154.368 509.129 153.586C509.129 152.753 509.877 152.243 510.948 152.158L513.175 151.988V152.94C513.175 154.045 511.849 154.946 510.761 154.946H510.608ZM518.689 145.97V144.236H517.074V145.97H518.689ZM518.604 156V147.5H517.159V156H518.604ZM522.654 156V151.41C522.654 149.727 523.674 148.554 525.085 148.554H525.221C526.479 148.554 527.04 149.336 527.04 150.696V156H528.485V150.356C528.485 148.486 527.329 147.33 525.459 147.33C524.082 147.33 523.147 147.942 522.654 148.775V147.5H521.209V156H522.654ZM532.551 145.97V144.236H530.936V145.97H532.551ZM532.466 156V147.5H531.021V156H532.466ZM536.517 156V151.41C536.517 149.727 537.537 148.554 538.948 148.554H539.084C540.342 148.554 540.903 149.336 540.903 150.696V156H542.348V150.356C542.348 148.486 541.192 147.33 539.322 147.33C537.945 147.33 537.01 147.942 536.517 148.775V147.5H535.072V156H536.517ZM548.113 159.74C550.697 159.74 552.21 158.125 552.21 155.983V147.5H550.765V148.741C550.357 147.976 549.422 147.33 548.113 147.33C546.073 147.33 544.373 148.809 544.373 151.699C544.373 154.589 546.107 156 548.113 156C549.422 156 550.306 155.354 550.765 154.589V155.83C550.765 157.734 549.643 158.516 548.198 158.516H548.028C546.787 158.516 545.835 158.057 545.648 157.139H544.203C544.373 158.652 545.716 159.74 548.113 159.74ZM548.181 154.776C546.855 154.776 545.818 153.824 545.818 151.699C545.818 149.574 546.923 148.554 548.232 148.554H548.385C549.677 148.554 550.765 149.744 550.765 151.699C550.765 153.654 549.609 154.776 548.317 154.776H548.181ZM563.337 156V154.725H561.688C561.178 154.725 561.008 154.555 561.008 154.045V148.741H563.082V147.5H561.008V144.746H559.563V147.5H557.659V148.741H559.563V154.249C559.563 155.405 560.192 156 561.348 156H563.337ZM566.516 156V151.291C566.516 149.557 567.689 148.554 568.93 148.554H569.083C570.341 148.554 570.902 149.336 570.902 150.679V156H572.347V150.339C572.347 148.554 571.276 147.33 569.338 147.33C567.961 147.33 567.043 147.925 566.516 148.775V144.1H565.071V156H566.516ZM578.299 156.17C580.05 156.17 581.478 155.218 581.801 153.518H580.356C580.135 154.487 579.353 154.946 578.418 154.946H578.282C577.126 154.946 575.885 154.045 575.817 151.954H581.818V151.104C581.818 148.894 580.441 147.33 578.265 147.33C576.276 147.33 574.372 148.775 574.372 151.733C574.372 154.691 576.191 156.17 578.299 156.17ZM575.885 150.781C576.174 149.098 577.245 148.554 578.197 148.554H578.333C579.438 148.554 580.305 149.302 580.373 150.781H575.885ZM590.408 156.17C591.802 156.17 592.873 155.405 593.213 154.64C593.213 154.844 593.23 155.592 593.298 156H594.658C594.573 155.405 594.573 154.64 594.573 154.13V150.56C594.573 148.826 593.434 147.33 591.19 147.33C589.303 147.33 587.909 148.384 587.807 149.931H589.252C589.354 149.013 590.17 148.554 591.122 148.554H591.241C592.414 148.554 593.128 149.285 593.128 150.56V150.849L590.68 151.053C589.32 151.155 587.637 151.733 587.637 153.654C587.637 155.099 588.827 156.17 590.408 156.17ZM590.561 154.946C589.711 154.946 589.082 154.368 589.082 153.586C589.082 152.753 589.83 152.243 590.901 152.158L593.128 151.988V152.94C593.128 154.045 591.802 154.946 590.714 154.946H590.561ZM598.557 159.4V154.759C598.999 155.575 600.087 156.17 601.26 156.17C603.402 156.17 605.068 154.521 605.068 151.75C605.068 148.979 603.521 147.33 601.362 147.33C600.206 147.33 598.999 147.925 598.557 148.741V147.5H597.112V159.4H598.557ZM601.056 154.946C599.645 154.946 598.557 153.722 598.557 151.75C598.557 149.778 599.645 148.554 601.056 148.554H601.175C602.637 148.554 603.623 149.778 603.623 151.75C603.623 153.722 602.637 154.946 601.175 154.946H601.056ZM608.617 159.4V154.759C609.059 155.575 610.147 156.17 611.32 156.17C613.462 156.17 615.128 154.521 615.128 151.75C615.128 148.979 613.581 147.33 611.422 147.33C610.266 147.33 609.059 147.925 608.617 148.741V147.5H607.172V159.4H608.617ZM611.116 154.946C609.705 154.946 608.617 153.722 608.617 151.75C608.617 149.778 609.705 148.554 611.116 148.554H611.235C612.697 148.554 613.683 149.778 613.683 151.75C613.683 153.722 612.697 154.946 611.235 154.946H611.116ZM623.965 157.275V156H616.434V157.275H623.965ZM627.313 145.97V144.236H625.698V145.97H627.313ZM627.228 156V147.5H625.783V156H627.228ZM633.029 156.17C634.185 156.17 635.392 155.575 635.851 154.759V156H637.296V144.1H635.851V148.741C635.392 147.925 634.304 147.33 633.148 147.33C630.989 147.33 629.323 148.979 629.323 151.75C629.323 154.521 630.87 156.17 633.029 156.17ZM633.216 154.946C631.754 154.946 630.785 153.722 630.785 151.75C630.785 149.778 631.754 148.554 633.216 148.554H633.335C634.763 148.554 635.851 149.778 635.851 151.75C635.851 153.722 634.763 154.946 633.335 154.946H633.216ZM639.775 158.244C640.982 158.244 641.679 157.581 641.679 156.34V154.079H639.758V156H640.744V156.255C640.744 156.935 640.404 157.275 639.724 157.275H639.163V158.244H639.775ZM320.131 179.17C321.576 179.17 322.528 178.388 322.885 177.385V179H324.33V170.5H322.885V175.09C322.885 176.875 321.78 177.946 320.641 177.946H320.488C319.264 177.946 318.669 177.215 318.669 175.77V170.5H317.224V176.11C317.224 177.895 318.227 179.17 320.131 179.17ZM329.743 179.17C331.681 179.17 333.024 178.184 333.024 176.62C333.024 175.124 331.987 174.478 330.729 174.223L329.386 173.934C328.468 173.747 328.077 173.407 328.077 172.761C328.077 172.115 328.706 171.554 329.726 171.554H329.879C331.001 171.554 331.562 172.285 331.664 173.101H333.109C333.075 171.571 331.987 170.33 329.794 170.33C328.128 170.33 326.632 171.231 326.632 172.914C326.632 174.359 327.72 175.022 329.063 175.294L330.304 175.549C331.256 175.736 331.579 176.127 331.579 176.705C331.579 177.47 330.865 177.946 329.879 177.946H329.726C328.672 177.946 327.839 177.47 327.737 176.399H326.292C326.326 177.997 327.516 179.17 329.743 179.17ZM338.606 179.17C340.357 179.17 341.785 178.218 342.108 176.518H340.663C340.442 177.487 339.66 177.946 338.725 177.946H338.589C337.433 177.946 336.192 177.045 336.124 174.954H342.125V174.104C342.125 171.894 340.748 170.33 338.572 170.33C336.583 170.33 334.679 171.775 334.679 174.733C334.679 177.691 336.498 179.17 338.606 179.17ZM336.192 173.781C336.481 172.098 337.552 171.554 338.504 171.554H338.64C339.745 171.554 340.612 172.302 340.68 173.781H336.192ZM345.715 179V174.75C345.715 172.914 346.667 171.792 348.231 171.792H348.911V170.415H348.146C347.024 170.415 345.987 171.095 345.63 172.387V170.5H344.27V179H345.715ZM357.294 180.275V179H349.763V180.275H357.294ZM360.642 168.97V167.236H359.027V168.97H360.642ZM360.557 179V170.5H359.112V179H360.557ZM366.359 179.17C367.515 179.17 368.722 178.575 369.181 177.759V179H370.626V167.1H369.181V171.741C368.722 170.925 367.634 170.33 366.478 170.33C364.319 170.33 362.653 171.979 362.653 174.75C362.653 177.521 364.2 179.17 366.359 179.17ZM366.546 177.946C365.084 177.946 364.115 176.722 364.115 174.75C364.115 172.778 365.084 171.554 366.546 171.554H366.665C368.093 171.554 369.181 172.778 369.181 174.75C369.181 176.722 368.093 177.946 366.665 177.946H366.546ZM379.668 179.17C381.062 179.17 382.133 178.405 382.473 177.64C382.473 177.844 382.49 178.592 382.558 179H383.918C383.833 178.405 383.833 177.64 383.833 177.13V173.56C383.833 171.826 382.694 170.33 380.45 170.33C378.563 170.33 377.169 171.384 377.067 172.931H378.512C378.614 172.013 379.43 171.554 380.382 171.554H380.501C381.674 171.554 382.388 172.285 382.388 173.56V173.849L379.94 174.053C378.58 174.155 376.897 174.733 376.897 176.654C376.897 178.099 378.087 179.17 379.668 179.17ZM379.821 177.946C378.971 177.946 378.342 177.368 378.342 176.586C378.342 175.753 379.09 175.243 380.161 175.158L382.388 174.988V175.94C382.388 177.045 381.062 177.946 379.974 177.946H379.821ZM387.817 179V174.41C387.817 172.727 388.837 171.554 390.248 171.554H390.384C391.642 171.554 392.203 172.336 392.203 173.696V179H393.647V173.356C393.647 171.486 392.492 170.33 390.622 170.33C389.245 170.33 388.31 170.942 387.817 171.775V170.5H386.372V179H387.817ZM399.379 179.17C400.535 179.17 401.742 178.575 402.201 177.759V179H403.646V167.1H402.201V171.741C401.742 170.925 400.654 170.33 399.498 170.33C397.339 170.33 395.673 171.979 395.673 174.75C395.673 177.521 397.22 179.17 399.379 179.17ZM399.566 177.946C398.104 177.946 397.135 176.722 397.135 174.75C397.135 172.778 398.104 171.554 399.566 171.554H399.685C401.113 171.554 402.201 172.778 402.201 174.75C402.201 176.722 401.113 177.946 399.685 177.946H399.566ZM413.912 179.17C416.173 179.17 417.941 177.385 417.941 174.75C417.941 172.115 416.173 170.33 413.912 170.33C411.651 170.33 409.9 172.115 409.9 174.75C409.9 177.385 411.651 179.17 413.912 179.17ZM413.844 177.946C412.416 177.946 411.345 176.773 411.345 174.75C411.345 172.727 412.416 171.554 413.844 171.554H413.997C415.425 171.554 416.496 172.727 416.496 174.75C416.496 176.773 415.425 177.946 413.997 177.946H413.844ZM421.484 179V174.75C421.484 172.914 422.436 171.792 424 171.792H424.68V170.415H423.915C422.793 170.415 421.756 171.095 421.399 172.387V170.5H420.039V179H421.484ZM429.279 182.74C431.863 182.74 433.376 181.125 433.376 178.983V170.5H431.931V171.741C431.523 170.976 430.588 170.33 429.279 170.33C427.239 170.33 425.539 171.809 425.539 174.699C425.539 177.589 427.273 179 429.279 179C430.588 179 431.472 178.354 431.931 177.589V178.83C431.931 180.734 430.809 181.516 429.364 181.516H429.194C427.953 181.516 427.001 181.057 426.814 180.139H425.369C425.539 181.652 426.882 182.74 429.279 182.74ZM429.347 177.776C428.021 177.776 426.984 176.824 426.984 174.699C426.984 172.574 428.089 171.554 429.398 171.554H429.551C430.843 171.554 431.931 172.744 431.931 174.699C431.931 176.654 430.775 177.776 429.483 177.776H429.347ZM438.238 179.17C439.632 179.17 440.703 178.405 441.043 177.64C441.043 177.844 441.06 178.592 441.128 179H442.488C442.403 178.405 442.403 177.64 442.403 177.13V173.56C442.403 171.826 441.264 170.33 439.02 170.33C437.133 170.33 435.739 171.384 435.637 172.931H437.082C437.184 172.013 438 171.554 438.952 171.554H439.071C440.244 171.554 440.958 172.285 440.958 173.56V173.849L438.51 174.053C437.15 174.155 435.467 174.733 435.467 176.654C435.467 178.099 436.657 179.17 438.238 179.17ZM438.391 177.946C437.541 177.946 436.912 177.368 436.912 176.586C436.912 175.753 437.66 175.243 438.731 175.158L440.958 174.988V175.94C440.958 177.045 439.632 177.946 438.544 177.946H438.391ZM446.387 179V174.41C446.387 172.727 447.407 171.554 448.818 171.554H448.954C450.212 171.554 450.773 172.336 450.773 173.696V179H452.218V173.356C452.218 171.486 451.062 170.33 449.192 170.33C447.815 170.33 446.88 170.942 446.387 171.775V170.5H444.942V179H446.387ZM456.283 168.97V167.236H454.668V168.97H456.283ZM456.198 179V170.5H454.753V179H456.198ZM461.592 179.17C463.53 179.17 464.873 178.184 464.873 176.62C464.873 175.124 463.836 174.478 462.578 174.223L461.235 173.934C460.317 173.747 459.926 173.407 459.926 172.761C459.926 172.115 460.555 171.554 461.575 171.554H461.728C462.85 171.554 463.411 172.285 463.513 173.101H464.958C464.924 171.571 463.836 170.33 461.643 170.33C459.977 170.33 458.481 171.231 458.481 172.914C458.481 174.359 459.569 175.022 460.912 175.294L462.153 175.549C463.105 175.736 463.428 176.127 463.428 176.705C463.428 177.47 462.714 177.946 461.728 177.946H461.575C460.521 177.946 459.688 177.47 459.586 176.399H458.141C458.175 177.997 459.365 179.17 461.592 179.17ZM469.299 179.17C470.693 179.17 471.764 178.405 472.104 177.64C472.104 177.844 472.121 178.592 472.189 179H473.549C473.464 178.405 473.464 177.64 473.464 177.13V173.56C473.464 171.826 472.325 170.33 470.081 170.33C468.194 170.33 466.8 171.384 466.698 172.931H468.143C468.245 172.013 469.061 171.554 470.013 171.554H470.132C471.305 171.554 472.019 172.285 472.019 173.56V173.849L469.571 174.053C468.211 174.155 466.528 174.733 466.528 176.654C466.528 178.099 467.718 179.17 469.299 179.17ZM469.452 177.946C468.602 177.946 467.973 177.368 467.973 176.586C467.973 175.753 468.721 175.243 469.792 175.158L472.019 174.988V175.94C472.019 177.045 470.693 177.946 469.605 177.946H469.452ZM480.528 179V177.725H478.879C478.369 177.725 478.199 177.555 478.199 177.045V171.741H480.273V170.5H478.199V167.746H476.754V170.5H474.85V171.741H476.754V177.249C476.754 178.405 477.383 179 478.539 179H480.528ZM483.792 168.97V167.236H482.177V168.97H483.792ZM483.707 179V170.5H482.262V179H483.707ZM489.798 179.17C492.059 179.17 493.827 177.385 493.827 174.75C493.827 172.115 492.059 170.33 489.798 170.33C487.537 170.33 485.786 172.115 485.786 174.75C485.786 177.385 487.537 179.17 489.798 179.17ZM489.73 177.946C488.302 177.946 487.231 176.773 487.231 174.75C487.231 172.727 488.302 171.554 489.73 171.554H489.883C491.311 171.554 492.382 172.727 492.382 174.75C492.382 176.773 491.311 177.946 489.883 177.946H489.73ZM497.37 179V174.41C497.37 172.727 498.39 171.554 499.801 171.554H499.937C501.195 171.554 501.756 172.336 501.756 173.696V179H503.201V173.356C503.201 171.486 502.045 170.33 500.175 170.33C498.798 170.33 497.863 170.942 497.37 171.775V170.5H495.925V179H497.37ZM512.469 180.275V179H504.938V180.275H512.469ZM515.817 168.97V167.236H514.202V168.97H515.817ZM515.732 179V170.5H514.287V179H515.732ZM521.533 179.17C522.689 179.17 523.896 178.575 524.355 177.759V179H525.8V167.1H524.355V171.741C523.896 170.925 522.808 170.33 521.652 170.33C519.493 170.33 517.827 171.979 517.827 174.75C517.827 177.521 519.374 179.17 521.533 179.17ZM521.72 177.946C520.258 177.946 519.289 176.722 519.289 174.75C519.289 172.778 520.258 171.554 521.72 171.554H521.839C523.267 171.554 524.355 172.778 524.355 174.75C524.355 176.722 523.267 177.946 521.839 177.946H521.72ZM534.896 179V171.741H537.055V170.5H534.896V169.038C534.896 168.528 535.066 168.358 535.576 168.358H537.48V167.1H535.185C534.012 167.1 533.451 167.644 533.451 168.8V170.5H531.547V171.741H533.451V179H534.896ZM541.96 179.17C544.221 179.17 545.989 177.385 545.989 174.75C545.989 172.115 544.221 170.33 541.96 170.33C539.699 170.33 537.948 172.115 537.948 174.75C537.948 177.385 539.699 179.17 541.96 179.17ZM541.892 177.946C540.464 177.946 539.393 176.773 539.393 174.75C539.393 172.727 540.464 171.554 541.892 171.554H542.045C543.473 171.554 544.544 172.727 544.544 174.75C544.544 176.773 543.473 177.946 542.045 177.946H541.892ZM549.532 179V174.75C549.532 172.914 550.484 171.792 552.048 171.792H552.728V170.415H551.963C550.841 170.415 549.804 171.095 549.447 172.387V170.5H548.087V179H549.532ZM562.49 179V177.725H560.841C560.331 177.725 560.161 177.555 560.161 177.045V171.741H562.235V170.5H560.161V167.746H558.716V170.5H556.812V171.741H558.716V177.249C558.716 178.405 559.345 179 560.501 179H562.49ZM565.669 179V174.291C565.669 172.557 566.842 171.554 568.083 171.554H568.236C569.494 171.554 570.055 172.336 570.055 173.679V179H571.5V173.339C571.5 171.554 570.429 170.33 568.491 170.33C567.114 170.33 566.196 170.925 565.669 171.775V167.1H564.224V179H565.669ZM577.453 179.17C579.204 179.17 580.632 178.218 580.955 176.518H579.51C579.289 177.487 578.507 177.946 577.572 177.946H577.436C576.28 177.946 575.039 177.045 574.971 174.954H580.972V174.104C580.972 171.894 579.595 170.33 577.419 170.33C575.43 170.33 573.526 171.775 573.526 174.733C573.526 177.691 575.345 179.17 577.453 179.17ZM575.039 173.781C575.328 172.098 576.399 171.554 577.351 171.554H577.487C578.592 171.554 579.459 172.302 579.527 173.781H575.039ZM590.802 179.17C592.706 179.17 594.015 178.031 594.236 176.229H592.791C592.621 177.215 591.907 177.946 590.887 177.946H590.734C589.034 177.946 588.235 176.45 588.235 174.75C588.235 173.05 589.034 171.554 590.734 171.554H590.887C591.907 171.554 592.621 172.268 592.791 173.271H594.236C594.066 171.452 592.706 170.33 590.802 170.33C588.218 170.33 586.79 172.251 586.79 174.75C586.79 177.249 588.218 179.17 590.802 179.17ZM599.104 179.17C600.549 179.17 601.501 178.388 601.858 177.385V179H603.303V170.5H601.858V175.09C601.858 176.875 600.753 177.946 599.614 177.946H599.461C598.237 177.946 597.642 177.215 597.642 175.77V170.5H596.197V176.11C596.197 177.895 597.2 179.17 599.104 179.17ZM607.372 179V174.75C607.372 172.914 608.324 171.792 609.888 171.792H610.568V170.415H609.803C608.681 170.415 607.644 171.095 607.287 172.387V170.5H605.927V179H607.372ZM613.664 179V174.75C613.664 172.914 614.616 171.792 616.18 171.792H616.86V170.415H616.095C614.973 170.415 613.936 171.095 613.579 172.387V170.5H612.219V179H613.664ZM621.613 179.17C623.364 179.17 624.792 178.218 625.115 176.518H623.67C623.449 177.487 622.667 177.946 621.732 177.946H621.596C620.44 177.946 619.199 177.045 619.131 174.954H625.132V174.104C625.132 171.894 623.755 170.33 621.579 170.33C619.59 170.33 617.686 171.775 617.686 174.733C617.686 177.691 619.505 179.17 621.613 179.17ZM619.199 173.781C619.488 172.098 620.559 171.554 621.511 171.554H621.647C622.752 171.554 623.619 172.302 623.687 173.781H619.199ZM628.722 179V174.41C628.722 172.727 629.742 171.554 631.153 171.554H631.289C632.547 171.554 633.108 172.336 633.108 173.696V179H634.553V173.356C634.553 171.486 633.397 170.33 631.527 170.33C630.15 170.33 629.215 170.942 628.722 171.775V170.5H627.277V179H628.722ZM641.646 179V177.725H639.997C639.487 177.725 639.317 177.555 639.317 177.045V171.741H641.391V170.5H639.317V167.746H637.872V170.5H635.968V171.741H637.872V177.249C637.872 178.405 638.501 179 639.657 179H641.646ZM650.386 179.17C651.831 179.17 652.783 178.388 653.14 177.385V179H654.585V170.5H653.14V175.09C653.14 176.875 652.035 177.946 650.896 177.946H650.743C649.519 177.946 648.924 177.215 648.924 175.77V170.5H647.479V176.11C647.479 177.895 648.482 179.17 650.386 179.17ZM659.997 179.17C661.935 179.17 663.278 178.184 663.278 176.62C663.278 175.124 662.241 174.478 660.983 174.223L659.64 173.934C658.722 173.747 658.331 173.407 658.331 172.761C658.331 172.115 658.96 171.554 659.98 171.554H660.133C661.255 171.554 661.816 172.285 661.918 173.101H663.363C663.329 171.571 662.241 170.33 660.048 170.33C658.382 170.33 656.886 171.231 656.886 172.914C656.886 174.359 657.974 175.022 659.317 175.294L660.558 175.549C661.51 175.736 661.833 176.127 661.833 176.705C661.833 177.47 661.119 177.946 660.133 177.946H659.98C658.926 177.946 658.093 177.47 657.991 176.399H656.546C656.58 177.997 657.77 179.17 659.997 179.17ZM668.861 179.17C670.612 179.17 672.04 178.218 672.363 176.518H670.918C670.697 177.487 669.915 177.946 668.98 177.946H668.844C667.688 177.946 666.447 177.045 666.379 174.954H672.38V174.104C672.38 171.894 671.003 170.33 668.827 170.33C666.838 170.33 664.934 171.775 664.934 174.733C664.934 177.691 666.753 179.17 668.861 179.17ZM666.447 173.781C666.736 172.098 667.807 171.554 668.759 171.554H668.895C670 171.554 670.867 172.302 670.935 173.781H666.447ZM675.97 179V174.75C675.97 172.914 676.922 171.792 678.486 171.792H679.166V170.415H678.401C677.279 170.415 676.242 171.095 675.885 172.387V170.5H674.525V179H675.97Z" fill="black"/>
<rect x="795.5" y="121.5" width="85" height="39" rx="5.5" fill="#F4FFA0" stroke="black"/>
<rect x="223.5" y="430.5" width="265" height="39" rx="5.5" fill="#71BC8F" stroke="black"/>
<rect x="575.5" y="430.5" width="360" height="39" rx="5.5" fill="#71BC8F" stroke="black"/>
<path d="M815.22 148.2C818.3 148.2 820.3 146.68 820.3 144.22C820.3 142 818.94 140.76 816.56 140.28L814.32 139.84C813.06 139.58 812.26 138.92 812.26 137.78C812.26 136.44 813.48 135.44 815.3 135.44H815.5C817.28 135.44 818.6 136.48 818.72 138.16H820.52C820.42 135.48 818.46 133.8 815.4 133.8C812.38 133.8 810.46 135.6 810.46 137.8C810.46 139.96 811.74 141.18 813.94 141.64L816.18 142.1C817.74 142.42 818.5 143.1 818.5 144.3C818.5 145.56 817.44 146.56 815.48 146.56H815.28C813.1 146.56 811.56 145.5 811.56 143.54H809.76C809.82 146.58 811.9 148.2 815.22 148.2ZM827.021 148.2C829.081 148.2 830.761 147.08 831.141 145.08H829.441C829.181 146.22 828.261 146.76 827.161 146.76H827.001C825.641 146.76 824.181 145.7 824.101 143.24H831.161V142.24C831.161 139.64 829.541 137.8 826.981 137.8C824.641 137.8 822.401 139.5 822.401 142.98C822.401 146.46 824.541 148.2 827.021 148.2ZM824.181 141.86C824.521 139.88 825.781 139.24 826.901 139.24H827.061C828.361 139.24 829.381 140.12 829.461 141.86H824.181ZM837.805 148.2C840.045 148.2 841.585 146.86 841.845 144.74H840.145C839.945 145.9 839.105 146.76 837.905 146.76H837.725C835.725 146.76 834.785 145 834.785 143C834.785 141 835.725 139.24 837.725 139.24H837.905C839.105 139.24 839.945 140.08 840.145 141.26H841.845C841.645 139.12 840.045 137.8 837.805 137.8C834.765 137.8 833.085 140.06 833.085 143C833.085 145.94 834.765 148.2 837.805 148.2ZM845.951 148V143C845.951 140.84 847.071 139.52 848.911 139.52H849.711V137.9H848.811C847.491 137.9 846.271 138.7 845.851 140.22V138H844.251V148H845.951ZM855.302 148.2C857.362 148.2 859.042 147.08 859.422 145.08H857.722C857.462 146.22 856.542 146.76 855.442 146.76H855.282C853.922 146.76 852.462 145.7 852.382 143.24H859.442V142.24C859.442 139.64 857.822 137.8 855.262 137.8C852.922 137.8 850.682 139.5 850.682 142.98C850.682 146.46 852.822 148.2 855.302 148.2ZM852.462 141.86C852.802 139.88 854.062 139.24 855.182 139.24H855.342C856.642 139.24 857.662 140.12 857.742 141.86H852.462ZM867.27 148V146.5H865.33C864.73 146.5 864.53 146.3 864.53 145.7V139.46H866.97V138H864.53V134.76H862.83V138H860.59V139.46H862.83V145.94C862.83 147.3 863.57 148 864.93 148H867.27Z" fill="black"/>
<path d="M245.837 455H247.282V450.75C247.282 449.73 246.602 449.067 245.582 449.067H242.862V450.597H245.837V450.835C245.837 452.195 244.766 453.64 243.661 453.64H243.491C241.281 453.64 240.38 451.855 240.38 449.05C240.38 446.245 241.009 444.46 243.219 444.46H243.304C244.562 444.46 245.378 445.31 245.531 447.01H247.231C246.891 444.46 245.429 442.93 243.219 442.93C239.989 442.93 238.68 445.395 238.68 449.05C238.68 452.705 239.989 455.17 243.219 455.17C244.834 455.17 245.497 453.895 245.837 453.215V455ZM249.383 455H257.373V453.47H251.083V449.645H256.183V448.115H251.083V444.63H257.203V443.1H249.383V455ZM262.637 455H264.337V444.63H268.077V443.1H258.897V444.63H262.637V455ZM280.728 455H282.428L287.018 443.1H285.318L280.728 455ZM294.101 455.17C296.226 455.17 297.807 453.98 297.977 452.28H296.362C296.192 453.13 295.376 453.81 294.186 453.81H294.016C292.826 453.81 291.602 452.96 291.602 450.75C291.602 448.88 292.741 447.69 294.101 447.69H294.271C295.206 447.69 296.107 448.285 296.277 449.305H297.892C297.722 447.52 296.056 446.33 294.271 446.33C291.806 446.33 289.987 448.115 289.987 450.75C289.987 453.385 291.636 455.17 294.101 455.17ZM304.26 455.17C306.64 455.17 308.34 453.47 308.34 450.75C308.34 448.115 306.555 446.33 304.26 446.33C301.965 446.33 300.18 448.115 300.18 450.75C300.18 453.47 301.88 455.17 304.26 455.17ZM304.345 453.81H304.175C302.815 453.81 301.795 452.705 301.795 450.75C301.795 448.795 302.815 447.69 304.175 447.69H304.345C305.705 447.69 306.725 448.795 306.725 450.75C306.725 452.705 305.705 453.81 304.345 453.81ZM313.74 455V450.75C313.74 449.05 314.675 448.03 316.205 448.03H317.99V446.415H316.205C315.1 446.415 313.995 447.095 313.655 448.37V446.5H312.125V455H313.74ZM324.46 453.81H324.375C323.1 453.81 322.182 452.79 322.182 450.75C322.182 448.71 323.1 447.69 324.375 447.69H324.46C325.735 447.69 326.687 448.795 326.687 450.75C326.687 452.705 325.735 453.81 324.46 453.81ZM324.035 455.17C325.14 455.17 326.177 454.66 326.772 453.64V455H328.302V443.1H326.687V447.775C326.177 446.84 325.225 446.33 324.12 446.33C321.825 446.33 320.567 448.03 320.567 450.75C320.567 453.47 321.825 455.17 324.035 455.17ZM331.015 456.445H338.665V455H331.015V456.445ZM345.085 455.17C347.04 455.17 348.485 454.15 348.485 452.62C348.485 451.09 347.295 450.41 346.02 450.155L344.745 449.9C343.895 449.73 343.47 449.305 343.47 448.795C343.47 448.2 344.15 447.69 345.085 447.69H345.255C346.275 447.69 346.955 448.37 347.04 449.135H348.655C348.57 447.69 347.38 446.33 345.17 446.33C343.045 446.33 341.855 447.52 341.855 448.88C341.855 450.325 343.13 451.175 344.66 451.43L345.595 451.6C346.445 451.77 346.87 452.11 346.87 452.705C346.87 453.385 346.105 453.81 345.255 453.81H345.085C344.065 453.81 343.13 453.3 343.045 452.365H341.43C341.515 453.929 342.79 455.17 345.085 455.17ZM355.278 447.69H355.448C356.604 447.69 357.335 448.54 357.335 449.645H353.136C353.459 448.2 354.411 447.69 355.278 447.69ZM358.95 452.484H357.335C357.165 453.385 356.4 453.81 355.499 453.81C354.343 453.81 353.119 452.96 353.017 451.005H358.967V450.155C358.967 447.979 357.539 446.33 355.363 446.33C353.34 446.33 351.402 447.792 351.402 450.733C351.402 453.708 353.323 455.17 355.448 455.17C357.199 455.17 358.678 454.235 358.95 452.484ZM365.471 455.17C367.426 455.17 368.871 454.15 368.871 452.62C368.871 451.09 367.681 450.41 366.406 450.155L365.131 449.9C364.281 449.73 363.856 449.305 363.856 448.795C363.856 448.2 364.536 447.69 365.471 447.69H365.641C366.661 447.69 367.341 448.37 367.426 449.135H369.041C368.956 447.69 367.766 446.33 365.556 446.33C363.431 446.33 362.241 447.52 362.241 448.88C362.241 450.325 363.516 451.175 365.046 451.43L365.981 451.6C366.831 451.77 367.256 452.11 367.256 452.705C367.256 453.385 366.491 453.81 365.641 453.81H365.471C364.451 453.81 363.516 453.3 363.431 452.365H361.816C361.901 453.929 363.176 455.17 365.471 455.17ZM375.665 455.17C377.62 455.17 379.065 454.15 379.065 452.62C379.065 451.09 377.875 450.41 376.6 450.155L375.325 449.9C374.475 449.73 374.05 449.305 374.05 448.795C374.05 448.2 374.73 447.69 375.665 447.69H375.835C376.855 447.69 377.535 448.37 377.62 449.135H379.235C379.15 447.69 377.96 446.33 375.75 446.33C373.625 446.33 372.435 447.52 372.435 448.88C372.435 450.325 373.71 451.175 375.24 451.43L376.175 451.6C377.025 451.77 377.45 452.11 377.45 452.705C377.45 453.385 376.685 453.81 375.835 453.81H375.665C374.645 453.81 373.71 453.3 373.625 452.365H372.01C372.095 453.929 373.37 455.17 375.665 455.17ZM386.708 444.97V443.1H384.923V444.97H386.708ZM389.7 455V453.606H386.623V446.5H382.458V447.894H385.008V453.606H381.931V455H389.7ZM396 455.17C398.38 455.17 400.08 453.47 400.08 450.75C400.08 448.115 398.295 446.33 396 446.33C393.705 446.33 391.92 448.115 391.92 450.75C391.92 453.47 393.62 455.17 396 455.17ZM396.085 453.81H395.915C394.555 453.81 393.535 452.705 393.535 450.75C393.535 448.795 394.555 447.69 395.915 447.69H396.085C397.445 447.69 398.465 448.795 398.465 450.75C398.465 452.705 397.445 453.81 396.085 453.81ZM402.539 455H404.154V450.41C404.154 448.71 405.259 447.69 406.364 447.69H406.534C407.724 447.69 408.319 448.37 408.319 449.73V455H409.934V449.39C409.934 447.605 408.914 446.33 406.959 446.33C405.429 446.33 404.494 447.18 404.154 448.115V446.5H402.539V455ZM412.562 456.445H420.212V455H412.562V456.445ZM426.869 455H430.269V453.589H427.379C426.869 453.589 426.699 453.419 426.699 452.909V447.894H429.674V446.5H426.699V443.746H425.084V446.5H422.704V447.894H425.084V453.215C425.084 454.405 425.679 455 426.869 455ZM436.774 455.17C439.154 455.17 440.854 453.47 440.854 450.75C440.854 448.115 439.069 446.33 436.774 446.33C434.479 446.33 432.694 448.115 432.694 450.75C432.694 453.47 434.394 455.17 436.774 455.17ZM436.859 453.81H436.689C435.329 453.81 434.309 452.705 434.309 450.75C434.309 448.795 435.329 447.69 436.689 447.69H436.859C438.219 447.69 439.239 448.795 439.239 450.75C439.239 452.705 438.219 453.81 436.859 453.81ZM449.466 455H451.421L447.579 449.679L451.166 446.5H449.041L444.791 450.206V443.1H443.176V455H444.791V452.144L446.389 450.733L449.466 455ZM457.212 447.69H457.382C458.538 447.69 459.269 448.54 459.269 449.645H455.07C455.393 448.2 456.345 447.69 457.212 447.69ZM460.884 452.484H459.269C459.099 453.385 458.334 453.81 457.433 453.81C456.277 453.81 455.053 452.96 454.951 451.005H460.901V450.155C460.901 447.979 459.473 446.33 457.297 446.33C455.274 446.33 453.336 447.792 453.336 450.733C453.336 453.708 455.257 455.17 457.382 455.17C459.133 455.17 460.612 454.235 460.884 452.484ZM463.699 455H465.314V450.41C465.314 448.71 466.419 447.69 467.524 447.69H467.694C468.884 447.69 469.479 448.37 469.479 449.73V455H471.094V449.39C471.094 447.605 470.074 446.33 468.119 446.33C466.589 446.33 465.654 447.18 465.314 448.115V446.5H463.699V455Z" fill="black"/>
<path d="M188.605 430V428.572H185.205V418.1H183.93L180.87 421.075V423.03L183.59 420.395V428.572H179.935V430H188.605Z" fill="black"/>
<path d="M340.078 369V367.572H333.873L337.885 364.019C339.024 363.033 339.823 361.928 339.823 360.313C339.823 358.443 338.514 356.93 336.049 356.93C333.788 356.93 332.241 358.341 332.02 360.466H333.635C333.839 359.021 334.74 358.29 335.93 358.29H336.1C337.29 358.29 338.208 359.157 338.208 360.466C338.208 361.86 337.137 362.676 336.134 363.645L332.088 367.3V369H340.078Z" fill="black"/>
<path d="M430.1 253.17C432.48 253.17 434.265 251.895 434.265 249.855C434.265 248.359 433.449 247.339 432.174 246.982C433.364 246.54 434.18 245.571 434.18 244.245C434.18 242.154 432.395 240.93 430.185 240.93C428.145 240.93 426.309 242.154 426.19 244.16H427.805C427.89 243.089 428.825 242.29 430.1 242.29H430.27C431.545 242.29 432.565 243.055 432.565 244.33C432.565 245.452 431.715 246.353 430.44 246.353H429.42V247.713H430.44C431.715 247.713 432.65 248.461 432.65 249.77C432.65 251.011 431.545 251.81 430.185 251.81H430.015C428.604 251.81 427.822 251.147 427.635 249.94H426.02C426.139 251.419 427.278 253.17 430.1 253.17Z" fill="black"/>
<path d="M530.041 430V427.297H531.911V425.937H530.041V418.1H528.426L522.561 425.665V427.297H528.426V430H530.041ZM528.426 425.937H524.04L528.426 420.293V425.937Z" fill="black"/>
<path d="M592.295 455H594.08L595.1 448.37L596.12 455H597.905L599.69 446.5H598.16L597.055 453.215L595.95 446.5H594.25L593.23 453.215L592.04 446.5H590.51L592.295 455ZM606.194 444.97V443.1H604.409V444.97H606.194ZM609.186 455V453.606H606.109V446.5H601.944V447.894H604.494V453.606H601.417V455H609.186ZM611.832 455H613.447V450.41C613.447 448.71 614.552 447.69 615.657 447.69H615.827C617.017 447.69 617.612 448.37 617.612 449.73V455H619.227V449.39C619.227 447.605 618.207 446.33 616.252 446.33C614.722 446.33 613.787 447.18 613.447 448.115V446.5H611.832V455ZM625.493 453.81H625.408C624.133 453.81 623.215 452.79 623.215 450.75C623.215 448.71 624.133 447.69 625.408 447.69H625.493C626.768 447.69 627.72 448.795 627.72 450.75C627.72 452.705 626.768 453.81 625.493 453.81ZM625.068 455.17C626.173 455.17 627.21 454.66 627.805 453.64V455H629.335V443.1H627.72V447.775C627.21 446.84 626.258 446.33 625.153 446.33C622.858 446.33 621.6 448.03 621.6 450.75C621.6 453.47 622.858 455.17 625.068 455.17ZM635.873 455.17C638.253 455.17 639.953 453.47 639.953 450.75C639.953 448.115 638.168 446.33 635.873 446.33C633.578 446.33 631.793 448.115 631.793 450.75C631.793 453.47 633.493 455.17 635.873 455.17ZM635.958 453.81H635.788C634.428 453.81 633.408 452.705 633.408 450.75C633.408 448.795 634.428 447.69 635.788 447.69H635.958C637.318 447.69 638.338 448.795 638.338 450.75C638.338 452.705 637.318 453.81 635.958 453.81ZM643.262 455H645.047L646.067 448.37L647.087 455H648.872L650.657 446.5H649.127L648.022 453.215L646.917 446.5H645.217L644.197 453.215L643.007 446.5H641.477L643.262 455ZM655.24 455H657.28V452.96H655.24V455ZM666.488 455.17C668.613 455.17 670.194 453.98 670.364 452.28H668.749C668.579 453.13 667.763 453.81 666.573 453.81H666.403C665.213 453.81 663.989 452.96 663.989 450.75C663.989 448.88 665.128 447.69 666.488 447.69H666.658C667.593 447.69 668.494 448.285 668.664 449.305H670.279C670.109 447.52 668.443 446.33 666.658 446.33C664.193 446.33 662.374 448.115 662.374 450.75C662.374 453.385 664.023 455.17 666.488 455.17ZM676.647 455.17C679.027 455.17 680.727 453.47 680.727 450.75C680.727 448.115 678.942 446.33 676.647 446.33C674.352 446.33 672.567 448.115 672.567 450.75C672.567 453.47 674.267 455.17 676.647 455.17ZM676.732 453.81H676.562C675.202 453.81 674.182 452.705 674.182 450.75C674.182 448.795 675.202 447.69 676.562 447.69H676.732C678.092 447.69 679.112 448.795 679.112 450.75C679.112 452.705 678.092 453.81 676.732 453.81ZM686.126 455V450.75C686.126 449.05 687.061 448.03 688.591 448.03H690.376V446.415H688.591C687.486 446.415 686.381 447.095 686.041 448.37V446.5H684.511V455H686.126ZM696.847 453.81H696.762C695.487 453.81 694.569 452.79 694.569 450.75C694.569 448.71 695.487 447.69 696.762 447.69H696.847C698.122 447.69 699.074 448.795 699.074 450.75C699.074 452.705 698.122 453.81 696.847 453.81ZM696.422 455.17C697.527 455.17 698.564 454.66 699.159 453.64V455H700.689V443.1H699.074V447.775C698.564 446.84 697.612 446.33 696.507 446.33C694.212 446.33 692.954 448.03 692.954 450.75C692.954 453.47 694.212 455.17 696.422 455.17ZM706.207 455H708.247V452.96H706.207V455ZM718.321 444.97V443.1H716.536V444.97H718.321ZM721.313 455V453.606H718.236V446.5H714.071V447.894H716.621V453.606H713.544V455H721.313ZM723.959 455H725.574V450.41C725.574 448.71 726.679 447.69 727.784 447.69H727.954C729.144 447.69 729.739 448.37 729.739 449.73V455H731.354V449.39C731.354 447.605 730.334 446.33 728.379 446.33C726.849 446.33 725.914 447.18 725.574 448.115V446.5H723.959V455ZM738.708 444.97V443.1H736.923V444.97H738.708ZM741.7 455V453.606H738.623V446.5H734.458V447.894H737.008V453.606H733.931V455H741.7ZM748.289 455H751.689V453.589H748.799C748.289 453.589 748.119 453.419 748.119 452.909V447.894H751.094V446.5H748.119V443.746H746.504V446.5H744.124V447.894H746.504V453.215C746.504 454.405 747.099 455 748.289 455ZM760.625 457.72V456.275C758.415 456.122 755.729 453.895 755.729 449.05C755.729 444.205 758.415 441.978 760.625 441.825V440.38C757.021 440.55 754.114 443.95 754.114 449.05C754.114 454.15 757.021 457.55 760.625 457.72ZM767.588 448.88C768.353 448.88 768.948 448.54 768.948 447.435V443.1C768.948 442.165 769.118 441.825 769.968 441.825H770.733V440.38H769.458C767.928 440.38 767.333 441.23 767.333 443.015V446.755C767.333 447.605 767.163 447.86 766.483 447.86H766.058V450.24H766.483C767.163 450.24 767.333 450.495 767.333 451.345V455.085C767.333 456.87 767.928 457.72 769.458 457.72H770.733V456.275H769.968C769.118 456.275 768.948 455.935 768.948 455V450.665C768.948 449.56 768.353 449.22 767.588 449.22V448.88ZM778.631 455.17C780.586 455.17 782.031 454.15 782.031 452.62C782.031 451.09 780.841 450.41 779.566 450.155L778.291 449.9C777.441 449.73 777.016 449.305 777.016 448.795C777.016 448.2 777.696 447.69 778.631 447.69H778.801C779.821 447.69 780.501 448.37 780.586 449.135H782.201C782.116 447.69 780.926 446.33 778.716 446.33C776.591 446.33 775.401 447.52 775.401 448.88C775.401 450.325 776.676 451.175 778.206 451.43L779.141 451.6C779.991 451.77 780.416 452.11 780.416 452.705C780.416 453.385 779.651 453.81 778.801 453.81H778.631C777.611 453.81 776.676 453.3 776.591 452.365H774.976C775.061 453.929 776.336 455.17 778.631 455.17ZM788.825 447.69H788.995C790.151 447.69 790.882 448.54 790.882 449.645H786.683C787.006 448.2 787.958 447.69 788.825 447.69ZM792.497 452.484H790.882C790.712 453.385 789.947 453.81 789.046 453.81C787.89 453.81 786.666 452.96 786.564 451.005H792.514V450.155C792.514 447.979 791.086 446.33 788.91 446.33C786.887 446.33 784.949 447.792 784.949 450.733C784.949 453.708 786.87 455.17 788.995 455.17C790.746 455.17 792.225 454.235 792.497 452.484ZM799.018 455.17C800.973 455.17 802.418 454.15 802.418 452.62C802.418 451.09 801.228 450.41 799.953 450.155L798.678 449.9C797.828 449.73 797.403 449.305 797.403 448.795C797.403 448.2 798.083 447.69 799.018 447.69H799.188C800.208 447.69 800.888 448.37 800.973 449.135H802.588C802.503 447.69 801.313 446.33 799.103 446.33C796.978 446.33 795.788 447.52 795.788 448.88C795.788 450.325 797.063 451.175 798.593 451.43L799.528 451.6C800.378 451.77 800.803 452.11 800.803 452.705C800.803 453.385 800.038 453.81 799.188 453.81H799.018C797.998 453.81 797.063 453.3 796.978 452.365H795.363C795.448 453.929 796.723 455.17 799.018 455.17ZM809.212 455.17C811.167 455.17 812.612 454.15 812.612 452.62C812.612 451.09 811.422 450.41 810.147 450.155L808.872 449.9C808.022 449.73 807.597 449.305 807.597 448.795C807.597 448.2 808.277 447.69 809.212 447.69H809.382C810.402 447.69 811.082 448.37 811.167 449.135H812.782C812.697 447.69 811.507 446.33 809.297 446.33C807.172 446.33 805.982 447.52 805.982 448.88C805.982 450.325 807.257 451.175 808.787 451.43L809.722 451.6C810.572 451.77 810.997 452.11 810.997 452.705C810.997 453.385 810.232 453.81 809.382 453.81H809.212C808.192 453.81 807.257 453.3 807.172 452.365H805.557C805.642 453.929 806.917 455.17 809.212 455.17ZM820.255 444.97V443.1H818.47V444.97H820.255ZM823.247 455V453.606H820.17V446.5H816.005V447.894H818.555V453.606H815.478V455H823.247ZM829.547 455.17C831.927 455.17 833.627 453.47 833.627 450.75C833.627 448.115 831.842 446.33 829.547 446.33C827.252 446.33 825.467 448.115 825.467 450.75C825.467 453.47 827.167 455.17 829.547 455.17ZM829.632 453.81H829.462C828.102 453.81 827.082 452.705 827.082 450.75C827.082 448.795 828.102 447.69 829.462 447.69H829.632C830.992 447.69 832.012 448.795 832.012 450.75C832.012 452.705 830.992 453.81 829.632 453.81ZM836.086 455H837.701V450.41C837.701 448.71 838.806 447.69 839.911 447.69H840.081C841.271 447.69 841.866 448.37 841.866 449.73V455H843.481V449.39C843.481 447.605 842.461 446.33 840.506 446.33C838.976 446.33 838.041 447.18 837.701 448.115V446.5H836.086V455ZM846.109 456.445H853.759V455H846.109V456.445ZM860.416 455H863.816V453.589H860.926C860.416 453.589 860.246 453.419 860.246 452.909V447.894H863.221V446.5H860.246V443.746H858.631V446.5H856.251V447.894H858.631V453.215C858.631 454.405 859.226 455 860.416 455ZM870.321 455.17C872.701 455.17 874.401 453.47 874.401 450.75C874.401 448.115 872.616 446.33 870.321 446.33C868.026 446.33 866.241 448.115 866.241 450.75C866.241 453.47 867.941 455.17 870.321 455.17ZM870.406 453.81H870.236C868.876 453.81 867.856 452.705 867.856 450.75C867.856 448.795 868.876 447.69 870.236 447.69H870.406C871.766 447.69 872.786 448.795 872.786 450.75C872.786 452.705 871.766 453.81 870.406 453.81ZM883.013 455H884.968L881.126 449.679L884.713 446.5H882.588L878.338 450.206V443.1H876.723V455H878.338V452.144L879.936 450.733L883.013 455ZM890.758 447.69H890.928C892.084 447.69 892.815 448.54 892.815 449.645H888.616C888.939 448.2 889.891 447.69 890.758 447.69ZM894.43 452.484H892.815C892.645 453.385 891.88 453.81 890.979 453.81C889.823 453.81 888.599 452.96 888.497 451.005H894.447V450.155C894.447 447.979 893.019 446.33 890.843 446.33C888.82 446.33 886.882 447.792 886.882 450.733C886.882 453.708 888.803 455.17 890.928 455.17C892.679 455.17 894.158 454.235 894.43 452.484ZM897.246 455H898.861V450.41C898.861 448.71 899.966 447.69 901.071 447.69H901.241C902.431 447.69 903.026 448.37 903.026 449.73V455H904.641V449.39C904.641 447.605 903.621 446.33 901.666 446.33C900.136 446.33 899.201 447.18 898.861 448.115V446.5H897.246V455ZM911.91 449.22C911.145 449.22 910.55 449.56 910.55 450.665V455C910.55 455.935 910.38 456.275 909.53 456.275H908.765V457.72H910.04C911.57 457.72 912.165 456.87 912.165 455.085V451.345C912.165 450.495 912.335 450.24 913.015 450.24H913.44V447.86H913.015C912.335 447.86 912.165 447.605 912.165 446.755V443.015C912.165 441.23 911.57 440.38 910.04 440.38H908.765V441.825H909.53C910.38 441.825 910.55 442.165 910.55 443.1V447.435C910.55 448.54 911.145 448.88 911.91 448.88V449.22ZM922.359 449.05C922.359 443.95 919.452 440.55 915.847 440.38V441.825C918.058 441.978 920.744 444.205 920.744 449.05C920.744 453.895 918.058 456.122 915.847 456.275V457.72C919.452 457.55 922.359 454.15 922.359 449.05Z" fill="black"/>
<path d="M704.646 141.646C704.451 141.842 704.451 142.158 704.646 142.354L707.828 145.536C708.024 145.731 708.34 145.731 708.536 145.536C708.731 145.34 708.731 145.024 708.536 144.828L705.707 142L708.536 139.172C708.731 138.976 708.731 138.66 708.536 138.464C708.34 138.269 708.024 138.269 707.828 138.464L704.646 141.646ZM795 141.5L705 141.5L705 142.5L795 142.5L795 141.5Z" fill="black"/>
<path d="M208.354 450.354C208.549 450.158 208.549 449.842 208.354 449.646L205.172 446.464C204.976 446.269 204.66 446.269 204.464 446.464C204.269 446.66 204.269 446.976 204.464 447.172L207.293 450L204.464 452.828C204.269 453.024 204.269 453.34 204.464 453.536C204.66 453.731 204.976 453.731 205.172 453.536L208.354 450.354ZM158 450.5L208 450.5L208 449.5L158 449.5L158 450.5Z" fill="black"/>
<path d="M565.354 450.354C565.549 450.158 565.549 449.842 565.354 449.646L562.172 446.464C561.976 446.269 561.66 446.269 561.464 446.464C561.269 446.66 561.269 446.976 561.464 447.172L564.293 450L561.464 452.828C561.269 453.024 561.269 453.34 561.464 453.536C561.66 453.731 561.976 453.731 562.172 453.536L565.354 450.354ZM489 450.5H565V449.5H489V450.5Z" fill="black"/>
<path d="M356.354 206.646C356.158 206.451 355.842 206.451 355.646 206.646L352.464 209.828C352.269 210.024 352.269 210.34 352.464 210.536C352.66 210.731 352.976 210.731 353.172 210.536L356 207.707L358.828 210.536C359.024 210.731 359.34 210.731 359.536 210.536C359.731 210.34 359.731 210.024 359.536 209.828L356.354 206.646ZM356.5 430L356.5 207L355.5 207L355.5 430L356.5 430Z" fill="black"/>
<path d="M412.646 422.354C412.842 422.549 413.158 422.549 413.354 422.354L416.536 419.172C416.731 418.976 416.731 418.66 416.536 418.464C416.34 418.269 416.024 418.269 415.828 418.464L413 421.293L410.172 418.464C409.976 418.269 409.66 418.269 409.464 418.464C409.269 418.66 409.269 418.976 409.464 419.172L412.646 422.354ZM412.5 199L412.5 422L413.5 422L413.5 199L412.5 199Z" fill="black"/>
</svg>
