<svg width="99" height="36" viewBox="0 0 99 36" fill="none" xmlns="http://www.w3.org/2000/svg">
<rect x="0.5" y="0.5" width="98" height="35" rx="17.5" fill="white"/>
<path d="M19.125 18H32.875" stroke="#121314" stroke-width="2" stroke-linecap="round" stroke-linejoin="round"/>
<path d="M19.125 13H32.875" stroke="#121314" stroke-width="2" stroke-linecap="round" stroke-linejoin="round"/>
<path d="M19.125 23H32.875" stroke="#121314" stroke-width="2" stroke-linecap="round" stroke-linejoin="round"/>
<path d="M55.6416 23V13.1357H53.2148L50.4805 19.7939H50.3574L47.6299 13.1357H45.1963V23H47.1104V16.4033H47.2197L49.7354 22.4668H51.1094L53.6182 16.4033H53.7275V23H55.6416ZM61.0967 16.8203C62.0264 16.8203 62.6279 17.4424 62.6689 18.4404H59.4561C59.5244 17.4629 60.1738 16.8203 61.0967 16.8203ZM62.71 20.8535C62.498 21.3525 61.958 21.6328 61.1719 21.6328C60.1328 21.6328 59.4766 20.9355 59.4492 19.8145V19.7119H64.624V19.1035C64.624 16.7109 63.3115 15.2959 61.0898 15.2959C58.8477 15.2959 57.4668 16.8135 57.4668 19.2676C57.4668 21.7148 58.8203 23.1641 61.1172 23.1641C62.9629 23.1641 64.2686 22.2686 64.5625 20.8535H62.71ZM66.2578 23H68.2471V18.6523C68.2471 17.6611 68.8145 17.0117 69.7373 17.0117C70.6807 17.0117 71.125 17.5586 71.125 18.5977V23H73.1143V18.126C73.1143 16.3213 72.2119 15.2959 70.5371 15.2959C69.4229 15.2959 68.6572 15.8223 68.3086 16.6699H68.1855V15.46H66.2578V23ZM81.8711 15.46H79.8818V19.8076C79.8818 20.8125 79.3486 21.4346 78.3574 21.4346C77.4414 21.4346 76.9697 20.9014 76.9697 19.8623V15.46H74.9805V20.375C74.9805 22.125 75.9922 23.1641 77.6191 23.1641C78.7607 23.1641 79.4648 22.665 79.8203 21.79H79.9434V23H81.8711V15.46Z" fill="#121314"/>
<rect x="0.5" y="0.5" width="98" height="35" rx="17.5" stroke="#121314"/>
</svg>
