<svg width="143" height="36" viewBox="0 0 143 36" fill="none" xmlns="http://www.w3.org/2000/svg">
<rect x="0.5" y="0.5" width="142" height="35" rx="17.5" fill="white"/>
<path d="M31.625 12.375L20.375 23.625" stroke="#121314" stroke-width="2" stroke-linecap="round" stroke-linejoin="round"/>
<path d="M31.625 23.625L20.375 12.375" stroke="#121314" stroke-width="2" stroke-linecap="round" stroke-linejoin="round"/>
<path d="M49.3867 23.2529C51.7656 23.2529 53.502 21.7832 53.6729 19.6504H51.6631C51.4648 20.7373 50.5762 21.4346 49.3936 21.4346C47.835 21.4346 46.8711 20.1426 46.8711 18.0645C46.8711 15.9863 47.835 14.7012 49.3867 14.7012C50.5625 14.7012 51.458 15.4463 51.6562 16.5811H53.666C53.5156 14.4346 51.7246 12.8828 49.3867 12.8828C46.5225 12.8828 44.7588 14.8584 44.7588 18.0645C44.7588 21.2773 46.5293 23.2529 49.3867 23.2529ZM55.4434 23H57.4326V12.582H55.4434V23ZM62.8467 23.1641C65.1641 23.1641 66.5586 21.6943 66.5586 19.2266C66.5586 16.7793 65.1436 15.2959 62.8467 15.2959C60.5498 15.2959 59.1348 16.7861 59.1348 19.2266C59.1348 21.6943 60.5293 23.1641 62.8467 23.1641ZM62.8467 21.5371C61.7803 21.5371 61.1787 20.6963 61.1787 19.2266C61.1787 17.7773 61.7871 16.9229 62.8467 16.9229C63.8994 16.9229 64.5146 17.7773 64.5146 19.2266C64.5146 20.6895 63.9062 21.5371 62.8467 21.5371ZM68.0146 17.6748C68.0146 18.8369 68.7256 19.5342 70.1885 19.8555L71.5557 20.1631C72.2188 20.3066 72.5059 20.5322 72.5059 20.9014C72.5059 21.3867 71.9727 21.708 71.2002 21.708C70.4072 21.708 69.9219 21.4141 69.7715 20.9014H67.8301C67.9668 22.3506 69.1699 23.1641 71.1592 23.1641C73.1348 23.1641 74.4814 22.1797 74.4814 20.6758C74.4814 19.5479 73.8252 18.9326 72.3623 18.6113L70.9473 18.3037C70.25 18.1465 69.9287 17.9209 69.9287 17.5518C69.9287 17.0732 70.4551 16.752 71.166 16.752C71.9043 16.752 72.3623 17.0527 72.4648 17.5381H74.3037C74.1943 16.0957 73.0664 15.2959 71.1523 15.2959C69.2725 15.2959 68.0146 16.2461 68.0146 17.6748ZM79.376 16.8203C80.3057 16.8203 80.9072 17.4424 80.9482 18.4404H77.7354C77.8037 17.4629 78.4531 16.8203 79.376 16.8203ZM80.9893 20.8535C80.7773 21.3525 80.2373 21.6328 79.4512 21.6328C78.4121 21.6328 77.7559 20.9355 77.7285 19.8145V19.7119H82.9033V19.1035C82.9033 16.7109 81.5908 15.2959 79.3691 15.2959C77.127 15.2959 75.7461 16.8135 75.7461 19.2676C75.7461 21.7148 77.0996 23.1641 79.3965 23.1641C81.2422 23.1641 82.5479 22.2686 82.8418 20.8535H80.9893ZM88.1465 23H90.1357V18.4609C90.1357 17.6201 90.6895 17.0117 91.4688 17.0117C92.248 17.0117 92.7129 17.4697 92.7129 18.2695V23H94.627V18.3857C94.627 17.5859 95.1465 17.0117 95.9531 17.0117C96.7939 17.0117 97.2109 17.4561 97.2109 18.3516V23H99.2002V17.8252C99.2002 16.2734 98.2637 15.2959 96.7598 15.2959C95.707 15.2959 94.8389 15.8496 94.4902 16.6904H94.3672C94.0664 15.8154 93.3418 15.2959 92.2822 15.2959C91.291 15.2959 90.5049 15.8291 90.1973 16.6904H90.0742V15.46H88.1465V23ZM104.396 16.8203C105.325 16.8203 105.927 17.4424 105.968 18.4404H102.755C102.823 17.4629 103.473 16.8203 104.396 16.8203ZM106.009 20.8535C105.797 21.3525 105.257 21.6328 104.471 21.6328C103.432 21.6328 102.775 20.9355 102.748 19.8145V19.7119H107.923V19.1035C107.923 16.7109 106.61 15.2959 104.389 15.2959C102.146 15.2959 100.766 16.8135 100.766 19.2676C100.766 21.7148 102.119 23.1641 104.416 23.1641C106.262 23.1641 107.567 22.2686 107.861 20.8535H106.009ZM109.557 23H111.546V18.6523C111.546 17.6611 112.113 17.0117 113.036 17.0117C113.979 17.0117 114.424 17.5586 114.424 18.5977V23H116.413V18.126C116.413 16.3213 115.511 15.2959 113.836 15.2959C112.722 15.2959 111.956 15.8223 111.607 16.6699H111.484V15.46H109.557V23ZM125.17 15.46H123.181V19.8076C123.181 20.8125 122.647 21.4346 121.656 21.4346C120.74 21.4346 120.269 20.9014 120.269 19.8623V15.46H118.279V20.375C118.279 22.125 119.291 23.1641 120.918 23.1641C122.06 23.1641 122.764 22.665 123.119 21.79H123.242V23H125.17V15.46Z" fill="#121314"/>
<rect x="0.5" y="0.5" width="142" height="35" rx="17.5" stroke="#121314"/>
</svg>
