<svg xmlns="http://www.w3.org/2000/svg" width="24" height="24" viewBox="0 0 24 24" fill="none">
  <g clip-path="url(#clip0_1915_7115)">
    <mask id="mask0_1915_7115" style="mask-type:luminance" maskUnits="userSpaceOnUse" x="0" y="0" width="24" height="24">
      <path d="M24 0H0V24H24V0Z" fill="white"/>
    </mask>
    <g mask="url(#mask0_1915_7115)">
      <path d="M11.2138 0.0191478C11.1622 0.0238349 10.9981 0.0402395 10.8505 0.0519571C7.44537 0.358959 4.25584 2.19628 2.23572 5.02022C1.11083 6.59038 0.391369 8.37144 0.119521 10.258C0.0234364 10.9165 0.0117188 11.111 0.0117188 12.0039C0.0117188 12.8968 0.0234364 13.0913 0.119521 13.7498C0.771022 18.2517 3.97461 22.0342 8.31952 23.4356C9.09757 23.6864 9.91777 23.8574 10.8505 23.9606C11.2138 24.0004 12.7839 24.0004 13.1471 23.9606C14.7571 23.7824 16.1211 23.384 17.4662 22.6974C17.6725 22.592 17.7123 22.5638 17.6842 22.5404C17.6654 22.5263 16.7866 21.3476 15.7321 19.9226L13.8151 17.3331L11.413 13.778C10.0912 11.8235 9.00382 10.2252 8.99445 10.2252C8.98507 10.2228 8.9757 11.8024 8.97097 13.7311C8.964 17.1081 8.9616 17.244 8.91945 17.3237C8.85847 17.4386 8.81167 17.4854 8.7132 17.537C8.6382 17.5745 8.57257 17.5815 8.21872 17.5815H7.81327L7.7055 17.5136C7.63522 17.469 7.58362 17.4104 7.54845 17.3424L7.49926 17.237L7.50397 12.5382L7.51095 7.83714L7.58362 7.74572C7.62112 7.69652 7.70077 7.63322 7.75702 7.60277C7.85317 7.55589 7.8906 7.55124 8.29605 7.55124C8.77417 7.55124 8.85382 7.56999 8.97802 7.70589C9.0132 7.74339 10.3138 9.70254 11.8699 12.0625C13.426 14.4224 15.5539 17.6447 16.5991 19.2266L18.4974 22.1021L18.5935 22.0388C19.4442 21.4858 20.3441 20.6984 21.0565 19.8782C22.5728 18.1369 23.5501 16.0136 23.8781 13.7498C23.9742 13.0913 23.986 12.8968 23.986 12.0039C23.986 11.111 23.9742 10.9165 23.8781 10.258C23.2266 5.75609 20.023 1.97364 15.6781 0.572219C14.9118 0.323805 14.0962 0.152728 13.1823 0.0496136C12.9573 0.0261784 11.4082 0.000399636 11.2138 0.0191478ZM16.1211 7.27C16.2336 7.32624 16.3249 7.43405 16.3578 7.54652C16.3765 7.60749 16.3812 8.91047 16.3765 11.8469L16.3695 16.0605L15.6266 14.9216L14.8813 13.7826V10.7197C14.8813 8.73939 14.8907 7.62624 14.9048 7.57232C14.9423 7.44108 15.0243 7.33797 15.1368 7.27703C15.2329 7.22782 15.268 7.22313 15.636 7.22313C15.9828 7.22313 16.0438 7.22782 16.1211 7.27Z" fill="#121314"/>
      <path d="M18.3808 22.1537C18.2988 22.2052 18.2731 22.2404 18.3457 22.2006C18.3973 22.1701 18.4816 22.1068 18.4675 22.1045C18.4605 22.1045 18.4207 22.1279 18.3808 22.1537ZM18.2191 22.2591C18.1769 22.2919 18.1769 22.2943 18.2285 22.2685C18.2566 22.2544 18.28 22.2381 18.28 22.2333C18.28 22.2146 18.2683 22.2193 18.2191 22.2591ZM18.102 22.3294C18.0598 22.3623 18.0598 22.3646 18.1114 22.3388C18.1394 22.3248 18.1629 22.3083 18.1629 22.3037C18.1629 22.2849 18.1512 22.2896 18.102 22.3294ZM17.9848 22.3998C17.9426 22.4325 17.9426 22.4349 17.9941 22.4091C18.0223 22.395 18.0457 22.3787 18.0457 22.374C18.0457 22.3552 18.034 22.3599 17.9848 22.3998ZM17.8066 22.4935C17.7176 22.5404 17.7223 22.5591 17.8114 22.5146C17.8512 22.4935 17.8816 22.4724 17.8816 22.4677C17.8816 22.4513 17.8793 22.4536 17.8066 22.4935Z" fill="#121314"/>
    </g>
  </g>
  <defs>
    <clipPath id="clip0_1915_7115">
      <rect width="24" height="24" fill="white"/>
    </clipPath>
  </defs>
</svg>
