<svg xmlns="http://www.w3.org/2000/svg" width="20" height="20" viewBox="0 0 20 20" fill="none">
  <path d="M9.64931 0C14.851 0 17.4359 2.44776 17.4359 6.35782C17.4359 9.28241 15.6169 11.1897 13.1596 11.5076C15.2339 11.9209 16.4465 13.0971 16.67 15.4177L16.7023 15.8444L16.7305 16.2434L16.7549 16.6166L16.7719 16.898L16.7901 17.23L16.7995 17.4195L16.813 17.7205L16.8238 18.0048L16.8292 18.1682L16.8364 18.43L16.8427 18.7294L16.845 18.8741L16.8491 19.2933L16.8504 19.7308L16.8505 19.9924H11.4863L11.4866 19.8833L11.4885 19.6714L11.4917 19.465L11.501 18.9651L11.5033 18.7975L11.5052 18.5347L11.5049 18.3666L11.5033 18.1904L11.5012 18.052L11.4968 17.8584L11.4904 17.653L11.4819 17.4347L11.4709 17.202L11.4645 17.0799L11.4535 16.8892L11.4409 16.6888L11.4213 16.4056L11.4045 16.1806C11.3996 16.1112 11.394 16.0434 11.3877 15.9772L11.3739 15.847C11.1968 14.3098 10.5801 13.6815 9.52388 13.472L9.43484 13.4555C9.37481 13.4451 9.31342 13.436 9.25067 13.428L9.15553 13.417C9.1395 13.4153 9.12339 13.4136 9.10719 13.4121L9.009 13.4035L8.90877 13.3966L8.80651 13.3911L8.70334 13.3872L8.59819 13.3846L8.49104 13.3834L0 13.3832V9.21887H8.69202C8.83414 9.21887 8.97187 9.21621 9.1052 9.21077L9.23707 9.20441L9.366 9.19617L9.49201 9.18604C9.51276 9.18419 9.5334 9.18227 9.55391 9.18026L9.67552 9.16724C9.75561 9.15791 9.83375 9.14728 9.90994 9.13532L10.0228 9.11637C11.4332 8.86354 12.1384 8.12326 12.1384 6.67867C12.1384 5.05748 10.9897 4.07494 8.69202 4.07494H0V0H9.64931ZM5.67186 16.8879C6.37564 16.8879 6.6701 17.2743 6.775 17.6441L6.78884 17.6973L6.8002 17.7499L6.8076 17.7915L6.81076 17.8121L6.81605 17.8527L6.82004 17.8925L6.82157 17.912L6.82374 17.9503L6.8244 17.969L6.82491 18.0054V19.9924H0V16.8879H5.67186Z" fill="#121212"/>
</svg>
