<?xml version="1.0" encoding="utf-8"?>
<svg width="1000" height="400px" viewBox="0 0 1000 400" fill="none" xmlns="http://www.w3.org/2000/svg" xmlns:bx="https://boxy-svg.com">
  <g clip-path="url(#clip0_406_3510)" transform="matrix(1, 0, 0, 0.915, 0, 0)">
    <rect width="1000" height="437.158" fill="#F6F6F6" bx:origin="0.5 0.5"/>
    <path d="M 227 202.667 L 416.5 202.667 L 416.5 297.167 C 416.5 305.727 409.56 312.667 401 312.667 L 211.5 312.667 L 211.5 218.167 C 211.5 209.607 218.44 202.667 227 202.667 Z" fill="white" stroke="black"/>
    <path d="M 456 224.667 L 774.5 224.667 L 774.5 269.167 C 774.5 277.727 767.56 284.667 759 284.667 L 440.5 284.667 L 440.5 240.167 C 440.5 231.607 447.44 224.667 456 224.667 Z" fill="white" stroke="black"/>
    <path d="M 232.131 240.337 C 233.576 240.337 234.528 239.555 234.885 238.552 L 234.885 240.167 L 236.33 240.167 L 236.33 231.667 L 234.885 231.667 L 234.885 236.257 C 234.885 238.042 233.78 239.113 232.641 239.113 L 232.488 239.113 C 231.264 239.113 230.669 238.382 230.669 236.937 L 230.669 231.667 L 229.224 231.667 L 229.224 237.277 C 229.224 239.062 230.227 240.337 232.131 240.337 Z M 241.743 240.337 C 243.681 240.337 245.024 239.351 245.024 237.787 C 245.024 236.291 243.987 235.645 242.729 235.39 L 241.386 235.101 C 240.468 234.914 240.077 234.574 240.077 233.928 C 240.077 233.282 240.706 232.721 241.726 232.721 L 241.879 232.721 C 243.001 232.721 243.562 233.452 243.664 234.268 L 245.108 234.268 C 245.075 232.738 243.987 231.497 241.794 231.497 C 240.128 231.497 238.632 232.398 238.632 234.081 C 238.632 235.526 239.72 236.189 241.063 236.461 L 242.304 236.716 C 243.256 236.903 243.579 237.294 243.579 237.872 C 243.579 238.637 242.865 239.113 241.879 239.113 L 241.726 239.113 C 240.672 239.113 239.839 238.637 239.737 237.566 L 238.292 237.566 C 238.326 239.164 239.516 240.337 241.743 240.337 Z M 250.606 240.337 C 252.357 240.337 253.785 239.385 254.108 237.685 L 252.663 237.685 C 252.442 238.654 251.66 239.113 250.725 239.113 L 250.589 239.113 C 249.433 239.113 248.192 238.212 248.124 236.121 L 254.125 236.121 L 254.125 235.271 C 254.125 233.061 252.748 231.497 250.572 231.497 C 248.583 231.497 246.679 232.942 246.679 235.9 C 246.679 238.858 248.498 240.337 250.606 240.337 Z M 248.192 234.948 C 248.481 233.265 249.552 232.721 250.504 232.721 L 250.64 232.721 C 251.745 232.721 252.612 233.469 252.68 234.948 L 248.192 234.948 Z M 262.715 240.337 C 264.109 240.337 265.18 239.572 265.52 238.807 C 265.52 239.011 265.537 239.759 265.605 240.167 L 266.965 240.167 C 266.88 239.572 266.88 238.807 266.88 238.297 L 266.88 234.727 C 266.88 232.993 265.741 231.497 263.497 231.497 C 261.61 231.497 260.216 232.551 260.114 234.098 L 261.559 234.098 C 261.661 233.18 262.477 232.721 263.429 232.721 L 263.548 232.721 C 264.721 232.721 265.435 233.452 265.435 234.727 L 265.435 235.016 L 262.987 235.22 C 261.627 235.322 259.944 235.9 259.944 237.821 C 259.944 239.266 261.134 240.337 262.715 240.337 Z M 262.868 239.113 C 262.018 239.113 261.389 238.535 261.389 237.753 C 261.389 236.92 262.137 236.41 263.208 236.325 L 265.435 236.155 L 265.435 237.107 C 265.435 238.212 264.109 239.113 263.021 239.113 L 262.868 239.113 Z M 270.863 243.567 L 270.863 238.926 C 271.305 239.742 272.393 240.337 273.566 240.337 C 275.708 240.337 277.374 238.688 277.374 235.917 C 277.374 233.146 275.827 231.497 273.668 231.497 C 272.512 231.497 271.305 232.092 270.863 232.908 L 270.863 231.667 L 269.418 231.667 L 269.418 243.567 L 270.863 243.567 Z M 273.362 239.113 C 271.951 239.113 270.863 237.889 270.863 235.917 C 270.863 233.945 271.951 232.721 273.362 232.721 L 273.481 232.721 C 274.943 232.721 275.929 233.945 275.929 235.917 C 275.929 237.889 274.943 239.113 273.481 239.113 L 273.362 239.113 Z M 280.924 243.567 L 280.924 238.926 C 281.366 239.742 282.454 240.337 283.627 240.337 C 285.769 240.337 287.435 238.688 287.435 235.917 C 287.435 233.146 285.888 231.497 283.729 231.497 C 282.573 231.497 281.366 232.092 280.924 232.908 L 280.924 231.667 L 279.479 231.667 L 279.479 243.567 L 280.924 243.567 Z M 283.423 239.113 C 282.012 239.113 280.924 237.889 280.924 235.917 C 280.924 233.945 282.012 232.721 283.423 232.721 L 283.542 232.721 C 285.004 232.721 285.99 233.945 285.99 235.917 C 285.99 237.889 285.004 239.113 283.542 239.113 L 283.423 239.113 Z M 296.271 241.442 L 296.271 240.167 L 288.741 240.167 L 288.741 241.442 L 296.271 241.442 Z M 299.619 230.137 L 299.619 228.403 L 298.004 228.403 L 298.004 230.137 L 299.619 230.137 Z M 299.534 240.167 L 299.534 231.667 L 298.089 231.667 L 298.089 240.167 L 299.534 240.167 Z M 305.336 240.337 C 306.492 240.337 307.699 239.742 308.158 238.926 L 308.158 240.167 L 309.603 240.167 L 309.603 228.267 L 308.158 228.267 L 308.158 232.908 C 307.699 232.092 306.611 231.497 305.455 231.497 C 303.296 231.497 301.63 233.146 301.63 235.917 C 301.63 238.688 303.177 240.337 305.336 240.337 Z M 305.523 239.113 C 304.061 239.113 303.092 237.889 303.092 235.917 C 303.092 233.945 304.061 232.721 305.523 232.721 L 305.642 232.721 C 307.07 232.721 308.158 233.945 308.158 235.917 C 308.158 237.889 307.07 239.113 305.642 239.113 L 305.523 239.113 Z M 318.645 240.337 C 320.039 240.337 321.11 239.572 321.45 238.807 C 321.45 239.011 321.467 239.759 321.535 240.167 L 322.895 240.167 C 322.81 239.572 322.81 238.807 322.81 238.297 L 322.81 234.727 C 322.81 232.993 321.671 231.497 319.427 231.497 C 317.54 231.497 316.146 232.551 316.044 234.098 L 317.489 234.098 C 317.591 233.18 318.407 232.721 319.359 232.721 L 319.478 232.721 C 320.651 232.721 321.365 233.452 321.365 234.727 L 321.365 235.016 L 318.917 235.22 C 317.557 235.322 315.874 235.9 315.874 237.821 C 315.874 239.266 317.064 240.337 318.645 240.337 Z M 318.798 239.113 C 317.948 239.113 317.319 238.535 317.319 237.753 C 317.319 236.92 318.067 236.41 319.138 236.325 L 321.365 236.155 L 321.365 237.107 C 321.365 238.212 320.039 239.113 318.951 239.113 L 318.798 239.113 Z M 326.794 240.167 L 326.794 235.577 C 326.794 233.894 327.814 232.721 329.225 232.721 L 329.361 232.721 C 330.619 232.721 331.18 233.503 331.18 234.863 L 331.18 240.167 L 332.625 240.167 L 332.625 234.523 C 332.625 232.653 331.469 231.497 329.599 231.497 C 328.222 231.497 327.287 232.109 326.794 232.942 L 326.794 231.667 L 325.349 231.667 L 325.349 240.167 L 326.794 240.167 Z M 338.357 240.337 C 339.513 240.337 340.72 239.742 341.179 238.926 L 341.179 240.167 L 342.624 240.167 L 342.624 228.267 L 341.179 228.267 L 341.179 232.908 C 340.72 232.092 339.632 231.497 338.476 231.497 C 336.317 231.497 334.651 233.146 334.651 235.917 C 334.651 238.688 336.198 240.337 338.357 240.337 Z M 338.544 239.113 C 337.082 239.113 336.113 237.889 336.113 235.917 C 336.113 233.945 337.082 232.721 338.544 232.721 L 338.663 232.721 C 340.091 232.721 341.179 233.945 341.179 235.917 C 341.179 237.889 340.091 239.113 338.663 239.113 L 338.544 239.113 Z M 352.193 240.337 C 354.131 240.337 355.474 239.351 355.474 237.787 C 355.474 236.291 354.437 235.645 353.179 235.39 L 351.836 235.101 C 350.918 234.914 350.527 234.574 350.527 233.928 C 350.527 233.282 351.156 232.721 352.176 232.721 L 352.329 232.721 C 353.451 232.721 354.012 233.452 354.114 234.268 L 355.559 234.268 C 355.525 232.738 354.437 231.497 352.244 231.497 C 350.578 231.497 349.082 232.398 349.082 234.081 C 349.082 235.526 350.17 236.189 351.513 236.461 L 352.754 236.716 C 353.706 236.903 354.029 237.294 354.029 237.872 C 354.029 238.637 353.315 239.113 352.329 239.113 L 352.176 239.113 C 351.122 239.113 350.289 238.637 350.187 237.566 L 348.742 237.566 C 348.776 239.164 349.966 240.337 352.193 240.337 Z M 361.056 240.337 C 362.807 240.337 364.235 239.385 364.558 237.685 L 363.113 237.685 C 362.892 238.654 362.11 239.113 361.175 239.113 L 361.039 239.113 C 359.883 239.113 358.642 238.212 358.574 236.121 L 364.575 236.121 L 364.575 235.271 C 364.575 233.061 363.198 231.497 361.022 231.497 C 359.033 231.497 357.129 232.942 357.129 235.9 C 357.129 238.858 358.948 240.337 361.056 240.337 Z M 358.642 234.948 C 358.931 233.265 360.002 232.721 360.954 232.721 L 361.09 232.721 C 362.195 232.721 363.062 233.469 363.13 234.948 L 358.642 234.948 Z M 370.222 240.337 C 372.126 240.337 373.435 239.198 373.656 237.396 L 372.211 237.396 C 372.041 238.382 371.327 239.113 370.307 239.113 L 370.154 239.113 C 368.454 239.113 367.655 237.617 367.655 235.917 C 367.655 234.217 368.454 232.721 370.154 232.721 L 370.307 232.721 C 371.327 232.721 372.041 233.435 372.211 234.438 L 373.656 234.438 C 373.486 232.619 372.126 231.497 370.222 231.497 C 367.638 231.497 366.21 233.418 366.21 235.917 C 366.21 238.416 367.638 240.337 370.222 240.337 Z M 377.147 240.167 L 377.147 235.917 C 377.147 234.081 378.099 232.959 379.663 232.959 L 380.343 232.959 L 380.343 231.582 L 379.578 231.582 C 378.456 231.582 377.419 232.262 377.062 233.554 L 377.062 231.667 L 375.702 231.667 L 375.702 240.167 L 377.147 240.167 Z M 385.095 240.337 C 386.846 240.337 388.274 239.385 388.597 237.685 L 387.152 237.685 C 386.931 238.654 386.149 239.113 385.214 239.113 L 385.078 239.113 C 383.922 239.113 382.681 238.212 382.613 236.121 L 388.614 236.121 L 388.614 235.271 C 388.614 233.061 387.237 231.497 385.061 231.497 C 383.072 231.497 381.168 232.942 381.168 235.9 C 381.168 238.858 382.987 240.337 385.095 240.337 Z M 382.681 234.948 C 382.97 233.265 384.041 232.721 384.993 232.721 L 385.129 232.721 C 386.234 232.721 387.101 233.469 387.169 234.948 L 382.681 234.948 Z M 395.267 240.167 L 395.267 238.892 L 393.618 238.892 C 393.108 238.892 392.938 238.722 392.938 238.212 L 392.938 232.908 L 395.012 232.908 L 395.012 231.667 L 392.938 231.667 L 392.938 228.913 L 391.493 228.913 L 391.493 231.667 L 389.589 231.667 L 389.589 232.908 L 391.493 232.908 L 391.493 238.416 C 391.493 239.572 392.122 240.167 393.278 240.167 L 395.267 240.167 Z M 233.95 263.167 L 233.95 261.892 L 232.301 261.892 C 231.791 261.892 231.621 261.722 231.621 261.212 L 231.621 255.908 L 233.695 255.908 L 233.695 254.667 L 231.621 254.667 L 231.621 251.913 L 230.176 251.913 L 230.176 254.667 L 228.272 254.667 L 228.272 255.908 L 230.176 255.908 L 230.176 261.416 C 230.176 262.572 230.805 263.167 231.961 263.167 L 233.95 263.167 Z M 239.069 263.337 C 241.33 263.337 243.098 261.552 243.098 258.917 C 243.098 256.282 241.33 254.497 239.069 254.497 C 236.808 254.497 235.057 256.282 235.057 258.917 C 235.057 261.552 236.808 263.337 239.069 263.337 Z M 239.001 262.113 C 237.573 262.113 236.502 260.94 236.502 258.917 C 236.502 256.894 237.573 255.721 239.001 255.721 L 239.154 255.721 C 240.582 255.721 241.653 256.894 241.653 258.917 C 241.653 260.94 240.582 262.113 239.154 262.113 L 239.001 262.113 Z M 252.61 266.907 C 255.194 266.907 256.707 265.292 256.707 263.15 L 256.707 254.667 L 255.262 254.667 L 255.262 255.908 C 254.854 255.143 253.919 254.497 252.61 254.497 C 250.57 254.497 248.87 255.976 248.87 258.866 C 248.87 261.756 250.604 263.167 252.61 263.167 C 253.919 263.167 254.803 262.521 255.262 261.756 L 255.262 262.997 C 255.262 264.901 254.14 265.683 252.695 265.683 L 252.525 265.683 C 251.284 265.683 250.332 265.224 250.145 264.306 L 248.7 264.306 C 248.87 265.819 250.213 266.907 252.61 266.907 Z M 252.678 261.943 C 251.352 261.943 250.315 260.991 250.315 258.866 C 250.315 256.741 251.42 255.721 252.729 255.721 L 252.882 255.721 C 254.174 255.721 255.262 256.911 255.262 258.866 C 255.262 260.821 254.106 261.943 252.814 261.943 L 252.678 261.943 Z M 262.725 263.337 C 264.476 263.337 265.904 262.385 266.227 260.685 L 264.782 260.685 C 264.561 261.654 263.779 262.113 262.844 262.113 L 262.708 262.113 C 261.552 262.113 260.311 261.212 260.243 259.121 L 266.244 259.121 L 266.244 258.271 C 266.244 256.061 264.867 254.497 262.691 254.497 C 260.702 254.497 258.798 255.942 258.798 258.9 C 258.798 261.858 260.617 263.337 262.725 263.337 Z M 260.311 257.948 C 260.6 256.265 261.671 255.721 262.623 255.721 L 262.759 255.721 C 263.864 255.721 264.731 256.469 264.799 257.948 L 260.311 257.948 Z M 269.834 263.167 L 269.834 258.577 C 269.834 256.894 270.854 255.721 272.265 255.721 L 272.401 255.721 C 273.659 255.721 274.22 256.503 274.22 257.863 L 274.22 263.167 L 275.665 263.167 L 275.665 257.523 C 275.665 255.653 274.509 254.497 272.639 254.497 C 271.262 254.497 270.327 255.109 269.834 255.942 L 269.834 254.667 L 268.389 254.667 L 268.389 263.167 L 269.834 263.167 Z M 281.618 263.337 C 283.369 263.337 284.797 262.385 285.12 260.685 L 283.675 260.685 C 283.454 261.654 282.672 262.113 281.737 262.113 L 281.601 262.113 C 280.445 262.113 279.204 261.212 279.136 259.121 L 285.137 259.121 L 285.137 258.271 C 285.137 256.061 283.76 254.497 281.584 254.497 C 279.595 254.497 277.691 255.942 277.691 258.9 C 277.691 261.858 279.51 263.337 281.618 263.337 Z M 279.204 257.948 C 279.493 256.265 280.564 255.721 281.516 255.721 L 281.652 255.721 C 282.757 255.721 283.624 256.469 283.692 257.948 L 279.204 257.948 Z M 288.727 263.167 L 288.727 258.917 C 288.727 257.081 289.679 255.959 291.243 255.959 L 291.923 255.959 L 291.923 254.582 L 291.158 254.582 C 290.036 254.582 288.999 255.262 288.642 256.554 L 288.642 254.667 L 287.282 254.667 L 287.282 263.167 L 288.727 263.167 Z M 295.652 263.337 C 297.046 263.337 298.117 262.572 298.457 261.807 C 298.457 262.011 298.474 262.759 298.542 263.167 L 299.902 263.167 C 299.817 262.572 299.817 261.807 299.817 261.297 L 299.817 257.727 C 299.817 255.993 298.678 254.497 296.434 254.497 C 294.547 254.497 293.153 255.551 293.051 257.098 L 294.496 257.098 C 294.598 256.18 295.414 255.721 296.366 255.721 L 296.485 255.721 C 297.658 255.721 298.372 256.452 298.372 257.727 L 298.372 258.016 L 295.924 258.22 C 294.564 258.322 292.881 258.9 292.881 260.821 C 292.881 262.266 294.071 263.337 295.652 263.337 Z M 295.805 262.113 C 294.955 262.113 294.326 261.535 294.326 260.753 C 294.326 259.92 295.074 259.41 296.145 259.325 L 298.372 259.155 L 298.372 260.107 C 298.372 261.212 297.046 262.113 295.958 262.113 L 295.805 262.113 Z M 306.881 263.167 L 306.881 261.892 L 305.232 261.892 C 304.722 261.892 304.552 261.722 304.552 261.212 L 304.552 255.908 L 306.626 255.908 L 306.626 254.667 L 304.552 254.667 L 304.552 251.913 L 303.107 251.913 L 303.107 254.667 L 301.203 254.667 L 301.203 255.908 L 303.107 255.908 L 303.107 261.416 C 303.107 262.572 303.736 263.167 304.892 263.167 L 306.881 263.167 Z M 311.932 263.337 C 313.683 263.337 315.111 262.385 315.434 260.685 L 313.989 260.685 C 313.768 261.654 312.986 262.113 312.051 262.113 L 311.915 262.113 C 310.759 262.113 309.518 261.212 309.45 259.121 L 315.451 259.121 L 315.451 258.271 C 315.451 256.061 314.074 254.497 311.898 254.497 C 309.909 254.497 308.005 255.942 308.005 258.9 C 308.005 261.858 309.824 263.337 311.932 263.337 Z M 309.518 257.948 C 309.807 256.265 310.878 255.721 311.83 255.721 L 311.966 255.721 C 313.071 255.721 313.938 256.469 314.006 257.948 L 309.518 257.948 Z M 324.041 263.337 C 325.435 263.337 326.506 262.572 326.846 261.807 C 326.846 262.011 326.863 262.759 326.931 263.167 L 328.291 263.167 C 328.206 262.572 328.206 261.807 328.206 261.297 L 328.206 257.727 C 328.206 255.993 327.067 254.497 324.823 254.497 C 322.936 254.497 321.542 255.551 321.44 257.098 L 322.885 257.098 C 322.987 256.18 323.803 255.721 324.755 255.721 L 324.874 255.721 C 326.047 255.721 326.761 256.452 326.761 257.727 L 326.761 258.016 L 324.313 258.22 C 322.953 258.322 321.27 258.9 321.27 260.821 C 321.27 262.266 322.46 263.337 324.041 263.337 Z M 324.194 262.113 C 323.344 262.113 322.715 261.535 322.715 260.753 C 322.715 259.92 323.463 259.41 324.534 259.325 L 326.761 259.155 L 326.761 260.107 C 326.761 261.212 325.435 262.113 324.347 262.113 L 324.194 262.113 Z M 337.716 263.337 C 339.654 263.337 340.997 262.351 340.997 260.787 C 340.997 259.291 339.96 258.645 338.702 258.39 L 337.359 258.101 C 336.441 257.914 336.05 257.574 336.05 256.928 C 336.05 256.282 336.679 255.721 337.699 255.721 L 337.852 255.721 C 338.974 255.721 339.535 256.452 339.637 257.268 L 341.082 257.268 C 341.048 255.738 339.96 254.497 337.767 254.497 C 336.101 254.497 334.605 255.398 334.605 257.081 C 334.605 258.526 335.693 259.189 337.036 259.461 L 338.277 259.716 C 339.229 259.903 339.552 260.294 339.552 260.872 C 339.552 261.637 338.838 262.113 337.852 262.113 L 337.699 262.113 C 336.645 262.113 335.812 261.637 335.71 260.566 L 334.265 260.566 C 334.299 262.164 335.489 263.337 337.716 263.337 Z M 344.693 253.137 L 344.693 251.403 L 343.078 251.403 L 343.078 253.137 L 344.693 253.137 Z M 344.608 263.167 L 344.608 254.667 L 343.163 254.667 L 343.163 263.167 L 344.608 263.167 Z M 350.443 266.907 C 353.027 266.907 354.54 265.292 354.54 263.15 L 354.54 254.667 L 353.095 254.667 L 353.095 255.908 C 352.687 255.143 351.752 254.497 350.443 254.497 C 348.403 254.497 346.703 255.976 346.703 258.866 C 346.703 261.756 348.437 263.167 350.443 263.167 C 351.752 263.167 352.636 262.521 353.095 261.756 L 353.095 262.997 C 353.095 264.901 351.973 265.683 350.528 265.683 L 350.358 265.683 C 349.117 265.683 348.165 265.224 347.978 264.306 L 346.533 264.306 C 346.703 265.819 348.046 266.907 350.443 266.907 Z M 350.511 261.943 C 349.185 261.943 348.148 260.991 348.148 258.866 C 348.148 256.741 349.253 255.721 350.562 255.721 L 350.715 255.721 C 352.007 255.721 353.095 256.911 353.095 258.866 C 353.095 260.821 351.939 261.943 350.647 261.943 L 350.511 261.943 Z M 358.586 263.167 L 358.586 258.577 C 358.586 256.894 359.606 255.721 361.017 255.721 L 361.153 255.721 C 362.411 255.721 362.972 256.503 362.972 257.863 L 362.972 263.167 L 364.417 263.167 L 364.417 257.523 C 364.417 255.653 363.261 254.497 361.391 254.497 C 360.014 254.497 359.079 255.109 358.586 255.942 L 358.586 254.667 L 357.141 254.667 L 357.141 263.167 L 358.586 263.167 Z M 370.37 263.337 C 372.121 263.337 373.549 262.385 373.872 260.685 L 372.427 260.685 C 372.206 261.654 371.424 262.113 370.489 262.113 L 370.353 262.113 C 369.197 262.113 367.956 261.212 367.888 259.121 L 373.889 259.121 L 373.889 258.271 C 373.889 256.061 372.512 254.497 370.336 254.497 C 368.347 254.497 366.443 255.942 366.443 258.9 C 366.443 261.858 368.262 263.337 370.37 263.337 Z M 367.956 257.948 C 368.245 256.265 369.316 255.721 370.268 255.721 L 370.404 255.721 C 371.509 255.721 372.376 256.469 372.444 257.948 L 367.956 257.948 Z M 379.23 263.337 C 380.386 263.337 381.593 262.742 382.052 261.926 L 382.052 263.167 L 383.497 263.167 L 383.497 251.267 L 382.052 251.267 L 382.052 255.908 C 381.593 255.092 380.505 254.497 379.349 254.497 C 377.19 254.497 375.524 256.146 375.524 258.917 C 375.524 261.688 377.071 263.337 379.23 263.337 Z M 379.417 262.113 C 377.955 262.113 376.986 260.889 376.986 258.917 C 376.986 256.945 377.955 255.721 379.417 255.721 L 379.536 255.721 C 380.964 255.721 382.052 256.945 382.052 258.917 C 382.052 260.889 380.964 262.113 379.536 262.113 L 379.417 262.113 Z M 231.57 286.337 C 232.964 286.337 234.035 285.572 234.375 284.807 C 234.375 285.011 234.392 285.759 234.46 286.167 L 235.82 286.167 C 235.735 285.572 235.735 284.807 235.735 284.297 L 235.735 280.727 C 235.735 278.993 234.596 277.497 232.352 277.497 C 230.465 277.497 229.071 278.551 228.969 280.098 L 230.414 280.098 C 230.516 279.18 231.332 278.721 232.284 278.721 L 232.403 278.721 C 233.576 278.721 234.29 279.452 234.29 280.727 L 234.29 281.016 L 231.842 281.22 C 230.482 281.322 228.799 281.9 228.799 283.821 C 228.799 285.266 229.989 286.337 231.57 286.337 Z M 231.723 285.113 C 230.873 285.113 230.244 284.535 230.244 283.753 C 230.244 282.92 230.992 282.41 232.063 282.325 L 234.29 282.155 L 234.29 283.107 C 234.29 284.212 232.964 285.113 231.876 285.113 L 231.723 285.113 Z M 239.719 289.567 L 239.719 284.926 C 240.161 285.742 241.249 286.337 242.422 286.337 C 244.564 286.337 246.23 284.688 246.23 281.917 C 246.23 279.146 244.683 277.497 242.524 277.497 C 241.368 277.497 240.161 278.092 239.719 278.908 L 239.719 277.667 L 238.274 277.667 L 238.274 289.567 L 239.719 289.567 Z M 242.218 285.113 C 240.807 285.113 239.719 283.889 239.719 281.917 C 239.719 279.945 240.807 278.721 242.218 278.721 L 242.337 278.721 C 243.799 278.721 244.785 279.945 244.785 281.917 C 244.785 283.889 243.799 285.113 242.337 285.113 L 242.218 285.113 Z M 249.779 289.567 L 249.779 284.926 C 250.221 285.742 251.309 286.337 252.482 286.337 C 254.624 286.337 256.29 284.688 256.29 281.917 C 256.29 279.146 254.743 277.497 252.584 277.497 C 251.428 277.497 250.221 278.092 249.779 278.908 L 249.779 277.667 L 248.334 277.667 L 248.334 289.567 L 249.779 289.567 Z M 252.278 285.113 C 250.867 285.113 249.779 283.889 249.779 281.917 C 249.779 279.945 250.867 278.721 252.278 278.721 L 252.397 278.721 C 253.859 278.721 254.845 279.945 254.845 281.917 C 254.845 283.889 253.859 285.113 252.397 285.113 L 252.278 285.113 Z M 266.921 286.167 L 266.921 284.892 L 265.272 284.892 C 264.762 284.892 264.592 284.722 264.592 284.212 L 264.592 278.908 L 266.666 278.908 L 266.666 277.667 L 264.592 277.667 L 264.592 274.913 L 263.147 274.913 L 263.147 277.667 L 261.243 277.667 L 261.243 278.908 L 263.147 278.908 L 263.147 284.416 C 263.147 285.572 263.776 286.167 264.932 286.167 L 266.921 286.167 Z M 272.04 286.337 C 274.301 286.337 276.069 284.552 276.069 281.917 C 276.069 279.282 274.301 277.497 272.04 277.497 C 269.779 277.497 268.028 279.282 268.028 281.917 C 268.028 284.552 269.779 286.337 272.04 286.337 Z M 271.972 285.113 C 270.544 285.113 269.473 283.94 269.473 281.917 C 269.473 279.894 270.544 278.721 271.972 278.721 L 272.125 278.721 C 273.553 278.721 274.624 279.894 274.624 281.917 C 274.624 283.94 273.553 285.113 272.125 285.113 L 271.972 285.113 Z M 279.612 286.167 L 279.612 283.345 L 280.955 282.036 L 283.913 286.167 L 285.698 286.167 L 281.992 281.05 L 285.528 277.667 L 283.607 277.667 L 279.612 281.577 L 279.612 274.267 L 278.167 274.267 L 278.167 286.167 L 279.612 286.167 Z M 290.151 286.337 C 291.902 286.337 293.33 285.385 293.653 283.685 L 292.208 283.685 C 291.987 284.654 291.205 285.113 290.27 285.113 L 290.134 285.113 C 288.978 285.113 287.737 284.212 287.669 282.121 L 293.67 282.121 L 293.67 281.271 C 293.67 279.061 292.293 277.497 290.117 277.497 C 288.128 277.497 286.224 278.942 286.224 281.9 C 286.224 284.858 288.043 286.337 290.151 286.337 Z M 287.737 280.948 C 288.026 279.265 289.097 278.721 290.049 278.721 L 290.185 278.721 C 291.29 278.721 292.157 279.469 292.225 280.948 L 287.737 280.948 Z M 297.26 286.167 L 297.26 281.577 C 297.26 279.894 298.28 278.721 299.691 278.721 L 299.827 278.721 C 301.085 278.721 301.646 279.503 301.646 280.863 L 301.646 286.167 L 303.091 286.167 L 303.091 280.523 C 303.091 278.653 301.935 277.497 300.065 277.497 C 298.688 277.497 297.753 278.109 297.26 278.942 L 297.26 277.667 L 295.815 277.667 L 295.815 286.167 L 297.26 286.167 Z M 310.451 286.167 C 312.389 286.167 313.341 285.198 313.341 283.141 L 313.341 274.267 L 311.811 274.267 L 311.811 283.056 C 311.811 284.195 311.369 284.722 310.281 284.722 L 308.479 284.722 L 308.479 286.167 L 310.451 286.167 Z M 326.301 284.637 L 323.836 274.267 L 321.762 274.267 L 319.263 284.603 L 316.832 274.267 L 315.251 274.267 L 318.158 286.167 L 320.283 286.167 L 322.748 275.984 L 325.213 286.167 L 327.338 286.167 L 330.245 274.267 L 328.664 274.267 L 326.301 284.637 Z M 336.733 286.167 L 336.733 275.661 L 341.017 275.661 L 341.017 274.267 L 330.919 274.267 L 330.919 275.661 L 335.203 275.661 L 335.203 286.167 L 336.733 286.167 Z" fill="black"/>
    <path d="M 461.147 209.277 C 462.808 209.277 464.084 208.287 464.183 206.769 L 463.193 206.769 C 463.083 207.693 462.357 208.375 461.202 208.375 L 461.092 208.375 C 459.442 208.375 458.54 207.011 458.54 205.317 C 458.54 203.623 459.442 202.259 461.092 202.259 L 461.202 202.259 C 462.357 202.259 463.083 202.941 463.193 203.865 L 464.183 203.865 C 464.084 202.347 462.808 201.357 461.147 201.357 C 458.914 201.357 457.55 203.062 457.55 205.317 C 457.55 207.572 458.914 209.277 461.147 209.277 Z M 467.012 209.277 C 467.914 209.277 468.607 208.782 468.827 208.287 C 468.827 208.419 468.838 208.903 468.882 209.167 L 469.762 209.167 C 469.707 208.782 469.707 208.287 469.707 207.957 L 469.707 205.647 C 469.707 204.525 468.97 203.557 467.518 203.557 C 466.297 203.557 465.395 204.239 465.329 205.24 L 466.264 205.24 C 466.33 204.646 466.858 204.349 467.474 204.349 L 467.551 204.349 C 468.31 204.349 468.772 204.822 468.772 205.647 L 468.772 205.834 L 467.188 205.966 C 466.308 206.032 465.219 206.406 465.219 207.649 C 465.219 208.584 465.989 209.277 467.012 209.277 Z M 467.111 208.485 C 466.561 208.485 466.154 208.111 466.154 207.605 C 466.154 207.066 466.638 206.736 467.331 206.681 L 468.772 206.571 L 468.772 207.187 C 468.772 207.902 467.914 208.485 467.21 208.485 L 467.111 208.485 Z M 472.285 209.167 L 472.285 201.467 L 471.35 201.467 L 471.35 209.167 L 472.285 209.167 Z M 474.906 209.167 L 474.906 201.467 L 473.971 201.467 L 473.971 209.167 L 474.906 209.167 Z M 482.599 209.277 C 484.26 209.277 485.536 208.287 485.635 206.769 L 484.645 206.769 C 484.535 207.693 483.809 208.375 482.654 208.375 L 482.544 208.375 C 480.894 208.375 479.992 207.011 479.992 205.317 C 479.992 203.623 480.894 202.259 482.544 202.259 L 482.654 202.259 C 483.809 202.259 484.535 202.941 484.645 203.865 L 485.635 203.865 C 485.536 202.347 484.26 201.357 482.599 201.357 C 480.366 201.357 479.002 203.062 479.002 205.317 C 479.002 207.572 480.366 209.277 482.599 209.277 Z M 489.256 209.277 C 490.719 209.277 491.863 208.122 491.863 206.417 C 491.863 204.712 490.719 203.557 489.256 203.557 C 487.793 203.557 486.66 204.712 486.66 206.417 C 486.66 208.122 487.793 209.277 489.256 209.277 Z M 489.212 208.485 C 488.288 208.485 487.595 207.726 487.595 206.417 C 487.595 205.108 488.288 204.349 489.212 204.349 L 489.311 204.349 C 490.235 204.349 490.928 205.108 490.928 206.417 C 490.928 207.726 490.235 208.485 489.311 208.485 L 489.212 208.485 Z M 494.156 209.167 L 494.156 206.417 C 494.156 205.229 494.772 204.503 495.784 204.503 L 496.224 204.503 L 496.224 203.612 L 495.729 203.612 C 495.003 203.612 494.332 204.052 494.101 204.888 L 494.101 203.667 L 493.221 203.667 L 493.221 209.167 L 494.156 209.167 Z M 499.178 209.277 C 499.926 209.277 500.707 208.892 501.004 208.364 L 501.004 209.167 L 501.939 209.167 L 501.939 201.467 L 501.004 201.467 L 501.004 204.47 C 500.707 203.942 500.003 203.557 499.255 203.557 C 497.858 203.557 496.78 204.624 496.78 206.417 C 496.78 208.21 497.781 209.277 499.178 209.277 Z M 499.299 208.485 C 498.353 208.485 497.726 207.693 497.726 206.417 C 497.726 205.141 498.353 204.349 499.299 204.349 L 499.376 204.349 C 500.3 204.349 501.004 205.141 501.004 206.417 C 501.004 207.693 500.3 208.485 499.376 208.485 L 499.299 208.485 Z M 512.702 209.167 L 509.633 201.467 L 508.379 201.467 L 505.288 209.167 L 506.3 209.167 L 507.103 207.143 L 510.865 207.143 L 511.668 209.167 L 512.702 209.167 Z M 508.984 202.38 L 510.513 206.241 L 507.455 206.241 L 508.984 202.38 Z M 514.797 209.167 L 514.797 206.087 L 516.997 206.087 C 518.394 206.087 519.461 205.262 519.461 203.777 C 519.461 202.292 518.394 201.467 516.997 201.467 L 513.807 201.467 L 513.807 209.167 L 514.797 209.167 Z M 514.797 202.369 L 516.832 202.369 C 517.855 202.369 518.471 202.842 518.471 203.777 C 518.471 204.712 517.855 205.185 516.832 205.185 L 514.797 205.185 L 514.797 202.369 Z M 521.844 209.167 L 521.844 201.467 L 520.854 201.467 L 520.854 209.167 L 521.844 209.167 Z M 525.522 209.277 C 526.776 209.277 527.645 208.639 527.645 207.627 C 527.645 206.659 526.974 206.241 526.16 206.076 L 525.291 205.889 C 524.697 205.768 524.444 205.548 524.444 205.13 C 524.444 204.712 524.851 204.349 525.511 204.349 L 525.61 204.349 C 526.336 204.349 526.699 204.822 526.765 205.35 L 527.7 205.35 C 527.678 204.36 526.974 203.557 525.555 203.557 C 524.477 203.557 523.509 204.14 523.509 205.229 C 523.509 206.164 524.213 206.593 525.082 206.769 L 525.885 206.934 C 526.501 207.055 526.71 207.308 526.71 207.682 C 526.71 208.177 526.248 208.485 525.61 208.485 L 525.511 208.485 C 524.829 208.485 524.29 208.177 524.224 207.484 L 523.289 207.484 C 523.311 208.518 524.081 209.277 525.522 209.277 Z M 534.563 209.167 L 534.563 208.342 L 533.496 208.342 C 533.166 208.342 533.056 208.232 533.056 207.902 L 533.056 204.47 L 534.398 204.47 L 534.398 203.667 L 533.056 203.667 L 533.056 201.885 L 532.121 201.885 L 532.121 203.667 L 530.889 203.667 L 530.889 204.47 L 532.121 204.47 L 532.121 208.034 C 532.121 208.782 532.528 209.167 533.276 209.167 L 534.563 209.167 Z M 537.875 209.277 C 539.338 209.277 540.482 208.122 540.482 206.417 C 540.482 204.712 539.338 203.557 537.875 203.557 C 536.412 203.557 535.279 204.712 535.279 206.417 C 535.279 208.122 536.412 209.277 537.875 209.277 Z M 537.831 208.485 C 536.907 208.485 536.214 207.726 536.214 206.417 C 536.214 205.108 536.907 204.349 537.831 204.349 L 537.93 204.349 C 538.854 204.349 539.547 205.108 539.547 206.417 C 539.547 207.726 538.854 208.485 537.93 208.485 L 537.831 208.485 Z M 546.351 209.277 C 547.605 209.277 548.474 208.639 548.474 207.627 C 548.474 206.659 547.803 206.241 546.989 206.076 L 546.12 205.889 C 545.526 205.768 545.273 205.548 545.273 205.13 C 545.273 204.712 545.68 204.349 546.34 204.349 L 546.439 204.349 C 547.165 204.349 547.528 204.822 547.594 205.35 L 548.529 205.35 C 548.507 204.36 547.803 203.557 546.384 203.557 C 545.306 203.557 544.338 204.14 544.338 205.229 C 544.338 206.164 545.042 206.593 545.911 206.769 L 546.714 206.934 C 547.33 207.055 547.539 207.308 547.539 207.682 C 547.539 208.177 547.077 208.485 546.439 208.485 L 546.34 208.485 C 545.658 208.485 545.119 208.177 545.053 207.484 L 544.118 207.484 C 544.14 208.518 544.91 209.277 546.351 209.277 Z M 553.662 203.667 L 551.924 207.847 L 550.153 203.667 L 549.152 203.667 L 551.473 209.057 L 551.473 209.86 C 551.473 210.19 551.363 210.3 551.033 210.3 L 549.482 210.3 L 549.482 211.125 L 551.253 211.125 C 552.001 211.125 552.364 210.773 552.364 210.036 L 552.364 209.024 L 554.63 203.667 L 553.662 203.667 Z M 556.547 209.167 L 556.547 206.197 C 556.547 205.108 557.207 204.349 558.12 204.349 L 558.208 204.349 C 559.022 204.349 559.385 204.855 559.385 205.735 L 559.385 209.167 L 560.32 209.167 L 560.32 205.515 C 560.32 204.305 559.572 203.557 558.362 203.557 C 557.471 203.557 556.866 203.953 556.547 204.492 L 556.547 203.667 L 555.612 203.667 L 555.612 209.167 L 556.547 209.167 Z M 564.226 209.277 C 565.458 209.277 566.305 208.54 566.448 207.374 L 565.513 207.374 C 565.403 208.012 564.941 208.485 564.281 208.485 L 564.182 208.485 C 563.082 208.485 562.565 207.517 562.565 206.417 C 562.565 205.317 563.082 204.349 564.182 204.349 L 564.281 204.349 C 564.941 204.349 565.403 204.811 565.513 205.46 L 566.448 205.46 C 566.338 204.283 565.458 203.557 564.226 203.557 C 562.554 203.557 561.63 204.8 561.63 206.417 C 561.63 208.034 562.554 209.277 564.226 209.277 Z M 568.707 209.167 L 568.707 206.12 C 568.707 204.998 569.466 204.349 570.269 204.349 L 570.368 204.349 C 571.182 204.349 571.545 204.855 571.545 205.724 L 571.545 209.167 L 572.48 209.167 L 572.48 205.504 C 572.48 204.349 571.787 203.557 570.533 203.557 C 569.642 203.557 569.048 203.942 568.707 204.492 L 568.707 201.467 L 567.772 201.467 L 567.772 209.167 L 568.707 209.167 Z M 575.055 209.167 L 575.055 206.417 C 575.055 205.229 575.671 204.503 576.683 204.503 L 577.123 204.503 L 577.123 203.612 L 576.628 203.612 C 575.902 203.612 575.231 204.052 575 204.888 L 575 203.667 L 574.12 203.667 L 574.12 209.167 L 575.055 209.167 Z M 580.243 209.277 C 581.706 209.277 582.85 208.122 582.85 206.417 C 582.85 204.712 581.706 203.557 580.243 203.557 C 578.78 203.557 577.647 204.712 577.647 206.417 C 577.647 208.122 578.78 209.277 580.243 209.277 Z M 580.199 208.485 C 579.275 208.485 578.582 207.726 578.582 206.417 C 578.582 205.108 579.275 204.349 580.199 204.349 L 580.298 204.349 C 581.222 204.349 581.915 205.108 581.915 206.417 C 581.915 207.726 581.222 208.485 580.298 208.485 L 580.199 208.485 Z M 585.142 209.167 L 585.142 206.197 C 585.142 205.108 585.802 204.349 586.715 204.349 L 586.803 204.349 C 587.617 204.349 587.98 204.855 587.98 205.735 L 587.98 209.167 L 588.915 209.167 L 588.915 205.515 C 588.915 204.305 588.167 203.557 586.957 203.557 C 586.066 203.557 585.461 203.953 585.142 204.492 L 585.142 203.667 L 584.207 203.667 L 584.207 209.167 L 585.142 209.167 Z M 591.546 202.677 L 591.546 201.555 L 590.501 201.555 L 590.501 202.677 L 591.546 202.677 Z M 591.491 209.167 L 591.491 203.667 L 590.556 203.667 L 590.556 209.167 L 591.491 209.167 Z M 594.981 209.277 C 596.235 209.277 597.104 208.639 597.104 207.627 C 597.104 206.659 596.433 206.241 595.619 206.076 L 594.75 205.889 C 594.156 205.768 593.903 205.548 593.903 205.13 C 593.903 204.712 594.31 204.349 594.97 204.349 L 595.069 204.349 C 595.795 204.349 596.158 204.822 596.224 205.35 L 597.159 205.35 C 597.137 204.36 596.433 203.557 595.014 203.557 C 593.936 203.557 592.968 204.14 592.968 205.229 C 592.968 206.164 593.672 206.593 594.541 206.769 L 595.344 206.934 C 595.96 207.055 596.169 207.308 596.169 207.682 C 596.169 208.177 595.707 208.485 595.069 208.485 L 594.97 208.485 C 594.288 208.485 593.749 208.177 593.683 207.484 L 592.748 207.484 C 592.77 208.518 593.54 209.277 594.981 209.277 Z M 600.716 209.277 C 601.849 209.277 602.773 208.661 602.982 207.561 L 602.047 207.561 C 601.904 208.188 601.398 208.485 600.793 208.485 L 600.705 208.485 C 599.957 208.485 599.154 207.902 599.11 206.549 L 602.993 206.549 L 602.993 205.999 C 602.993 204.569 602.102 203.557 600.694 203.557 C 599.407 203.557 598.175 204.492 598.175 206.406 C 598.175 208.32 599.352 209.277 600.716 209.277 Z M 599.154 205.79 C 599.341 204.701 600.034 204.349 600.65 204.349 L 600.738 204.349 C 601.453 204.349 602.014 204.833 602.058 205.79 L 599.154 205.79 Z M 608.078 202.677 L 608.078 201.555 L 607.033 201.555 L 607.033 202.677 L 608.078 202.677 Z M 608.023 209.167 L 608.023 203.667 L 607.088 203.667 L 607.088 209.167 L 608.023 209.167 Z M 611.777 209.277 C 612.525 209.277 613.306 208.892 613.603 208.364 L 613.603 209.167 L 614.538 209.167 L 614.538 201.467 L 613.603 201.467 L 613.603 204.47 C 613.306 203.942 612.602 203.557 611.854 203.557 C 610.457 203.557 609.379 204.624 609.379 206.417 C 609.379 208.21 610.38 209.277 611.777 209.277 Z M 611.898 208.485 C 610.952 208.485 610.325 207.693 610.325 206.417 C 610.325 205.141 610.952 204.349 611.898 204.349 L 611.975 204.349 C 612.899 204.349 613.603 205.141 613.603 206.417 C 613.603 207.693 612.899 208.485 611.975 208.485 L 611.898 208.485 Z M 618.43 209.277 C 619.563 209.277 620.487 208.661 620.696 207.561 L 619.761 207.561 C 619.618 208.188 619.112 208.485 618.507 208.485 L 618.419 208.485 C 617.671 208.485 616.868 207.902 616.824 206.549 L 620.707 206.549 L 620.707 205.999 C 620.707 204.569 619.816 203.557 618.408 203.557 C 617.121 203.557 615.889 204.492 615.889 206.406 C 615.889 208.32 617.066 209.277 618.43 209.277 Z M 616.868 205.79 C 617.055 204.701 617.748 204.349 618.364 204.349 L 618.452 204.349 C 619.167 204.349 619.728 204.833 619.772 205.79 L 616.868 205.79 Z M 623.03 209.167 L 623.03 206.197 C 623.03 205.108 623.69 204.349 624.603 204.349 L 624.691 204.349 C 625.505 204.349 625.868 204.855 625.868 205.735 L 625.868 209.167 L 626.803 209.167 L 626.803 205.515 C 626.803 204.305 626.055 203.557 624.845 203.557 C 623.954 203.557 623.349 203.953 623.03 204.492 L 623.03 203.667 L 622.095 203.667 L 622.095 209.167 L 623.03 209.167 Z M 631.393 209.167 L 631.393 208.342 L 630.326 208.342 C 629.996 208.342 629.886 208.232 629.886 207.902 L 629.886 204.47 L 631.228 204.47 L 631.228 203.667 L 629.886 203.667 L 629.886 201.885 L 628.951 201.885 L 628.951 203.667 L 627.719 203.667 L 627.719 204.47 L 628.951 204.47 L 628.951 208.034 C 628.951 208.782 629.358 209.167 630.106 209.167 L 631.393 209.167 Z M 633.505 202.677 L 633.505 201.555 L 632.46 201.555 L 632.46 202.677 L 633.505 202.677 Z M 633.45 209.167 L 633.45 203.667 L 632.515 203.667 L 632.515 209.167 L 633.45 209.167 Z M 638.139 209.167 L 638.139 208.342 L 637.072 208.342 C 636.742 208.342 636.632 208.232 636.632 207.902 L 636.632 204.47 L 637.974 204.47 L 637.974 203.667 L 636.632 203.667 L 636.632 201.885 L 635.697 201.885 L 635.697 203.667 L 634.465 203.667 L 634.465 204.47 L 635.697 204.47 L 635.697 208.034 C 635.697 208.782 636.104 209.167 636.852 209.167 L 638.139 209.167 Z M 640.251 202.677 L 640.251 201.555 L 639.206 201.555 L 639.206 202.677 L 640.251 202.677 Z M 640.196 209.167 L 640.196 203.667 L 639.261 203.667 L 639.261 209.167 L 640.196 209.167 Z M 644.093 209.277 C 645.226 209.277 646.15 208.661 646.359 207.561 L 645.424 207.561 C 645.281 208.188 644.775 208.485 644.17 208.485 L 644.082 208.485 C 643.334 208.485 642.531 207.902 642.487 206.549 L 646.37 206.549 L 646.37 205.999 C 646.37 204.569 645.479 203.557 644.071 203.557 C 642.784 203.557 641.552 204.492 641.552 206.406 C 641.552 208.32 642.729 209.277 644.093 209.277 Z M 642.531 205.79 C 642.718 204.701 643.411 204.349 644.027 204.349 L 644.115 204.349 C 644.83 204.349 645.391 204.833 645.435 205.79 L 642.531 205.79 Z M 649.562 209.277 C 650.816 209.277 651.685 208.639 651.685 207.627 C 651.685 206.659 651.014 206.241 650.2 206.076 L 649.331 205.889 C 648.737 205.768 648.484 205.548 648.484 205.13 C 648.484 204.712 648.891 204.349 649.551 204.349 L 649.65 204.349 C 650.376 204.349 650.739 204.822 650.805 205.35 L 651.74 205.35 C 651.718 204.36 651.014 203.557 649.595 203.557 C 648.517 203.557 647.549 204.14 647.549 205.229 C 647.549 206.164 648.253 206.593 649.122 206.769 L 649.925 206.934 C 650.541 207.055 650.75 207.308 650.75 207.682 C 650.75 208.177 650.288 208.485 649.65 208.485 L 649.551 208.485 C 648.869 208.485 648.33 208.177 648.264 207.484 L 647.329 207.484 C 647.351 208.518 648.121 209.277 649.562 209.277 Z M 658.048 209.277 C 659.511 209.277 660.655 208.122 660.655 206.417 C 660.655 204.712 659.511 203.557 658.048 203.557 C 656.585 203.557 655.452 204.712 655.452 206.417 C 655.452 208.122 656.585 209.277 658.048 209.277 Z M 658.004 208.485 C 657.08 208.485 656.387 207.726 656.387 206.417 C 656.387 205.108 657.08 204.349 658.004 204.349 L 658.103 204.349 C 659.027 204.349 659.72 205.108 659.72 206.417 C 659.72 207.726 659.027 208.485 658.103 208.485 L 658.004 208.485 Z M 663.446 209.167 L 663.446 204.47 L 664.843 204.47 L 664.843 203.667 L 663.446 203.667 L 663.446 202.721 C 663.446 202.391 663.556 202.281 663.886 202.281 L 665.118 202.281 L 665.118 201.467 L 663.633 201.467 C 662.874 201.467 662.511 201.819 662.511 202.567 L 662.511 203.667 L 661.279 203.667 L 661.279 204.47 L 662.511 204.47 L 662.511 209.167 L 663.446 209.167 Z M 670.252 209.277 C 671.187 209.277 671.803 208.771 672.034 208.122 L 672.034 209.167 L 672.969 209.167 L 672.969 203.667 L 672.034 203.667 L 672.034 206.637 C 672.034 207.792 671.319 208.485 670.582 208.485 L 670.483 208.485 C 669.691 208.485 669.306 208.012 669.306 207.077 L 669.306 203.667 L 668.371 203.667 L 668.371 207.297 C 668.371 208.452 669.02 209.277 670.252 209.277 Z M 676.471 209.277 C 677.725 209.277 678.594 208.639 678.594 207.627 C 678.594 206.659 677.923 206.241 677.109 206.076 L 676.24 205.889 C 675.646 205.768 675.393 205.548 675.393 205.13 C 675.393 204.712 675.8 204.349 676.46 204.349 L 676.559 204.349 C 677.285 204.349 677.648 204.822 677.714 205.35 L 678.649 205.35 C 678.627 204.36 677.923 203.557 676.504 203.557 C 675.426 203.557 674.458 204.14 674.458 205.229 C 674.458 206.164 675.162 206.593 676.031 206.769 L 676.834 206.934 C 677.45 207.055 677.659 207.308 677.659 207.682 C 677.659 208.177 677.197 208.485 676.559 208.485 L 676.46 208.485 C 675.778 208.485 675.239 208.177 675.173 207.484 L 674.238 207.484 C 674.26 208.518 675.03 209.277 676.471 209.277 Z M 682.206 209.277 C 683.339 209.277 684.263 208.661 684.472 207.561 L 683.537 207.561 C 683.394 208.188 682.888 208.485 682.283 208.485 L 682.195 208.485 C 681.447 208.485 680.644 207.902 680.6 206.549 L 684.483 206.549 L 684.483 205.999 C 684.483 204.569 683.592 203.557 682.184 203.557 C 680.897 203.557 679.665 204.492 679.665 206.406 C 679.665 208.32 680.842 209.277 682.206 209.277 Z M 680.644 205.79 C 680.831 204.701 681.524 204.349 682.14 204.349 L 682.228 204.349 C 682.943 204.349 683.504 204.833 683.548 205.79 L 680.644 205.79 Z M 686.806 209.167 L 686.806 206.417 C 686.806 205.229 687.422 204.503 688.434 204.503 L 688.874 204.503 L 688.874 203.612 L 688.379 203.612 C 687.653 203.612 686.982 204.052 686.751 204.888 L 686.751 203.667 L 685.871 203.667 L 685.871 209.167 L 686.806 209.167 Z M 691.672 209.277 C 692.926 209.277 693.795 208.639 693.795 207.627 C 693.795 206.659 693.124 206.241 692.31 206.076 L 691.441 205.889 C 690.847 205.768 690.594 205.548 690.594 205.13 C 690.594 204.712 691.001 204.349 691.661 204.349 L 691.76 204.349 C 692.486 204.349 692.849 204.822 692.915 205.35 L 693.85 205.35 C 693.828 204.36 693.124 203.557 691.705 203.557 C 690.627 203.557 689.659 204.14 689.659 205.229 C 689.659 206.164 690.363 206.593 691.232 206.769 L 692.035 206.934 C 692.651 207.055 692.86 207.308 692.86 207.682 C 692.86 208.177 692.398 208.485 691.76 208.485 L 691.661 208.485 C 690.979 208.485 690.44 208.177 690.374 207.484 L 689.439 207.484 C 689.461 208.518 690.231 209.277 691.672 209.277 Z M 699.366 209.277 C 700.268 209.277 700.961 208.782 701.181 208.287 C 701.181 208.419 701.192 208.903 701.236 209.167 L 702.116 209.167 C 702.061 208.782 702.061 208.287 702.061 207.957 L 702.061 205.647 C 702.061 204.525 701.324 203.557 699.872 203.557 C 698.651 203.557 697.749 204.239 697.683 205.24 L 698.618 205.24 C 698.684 204.646 699.212 204.349 699.828 204.349 L 699.905 204.349 C 700.664 204.349 701.126 204.822 701.126 205.647 L 701.126 205.834 L 699.542 205.966 C 698.662 206.032 697.573 206.406 697.573 207.649 C 697.573 208.584 698.343 209.277 699.366 209.277 Z M 699.465 208.485 C 698.915 208.485 698.508 208.111 698.508 207.605 C 698.508 207.066 698.992 206.736 699.685 206.681 L 701.126 206.571 L 701.126 207.187 C 701.126 207.902 700.268 208.485 699.564 208.485 L 699.465 208.485 Z M 704.638 209.167 L 704.638 206.197 C 704.638 205.108 705.298 204.349 706.211 204.349 L 706.299 204.349 C 707.113 204.349 707.476 204.855 707.476 205.735 L 707.476 209.167 L 708.411 209.167 L 708.411 205.515 C 708.411 204.305 707.663 203.557 706.453 203.557 C 705.562 203.557 704.957 203.953 704.638 204.492 L 704.638 203.667 L 703.703 203.667 L 703.703 209.167 L 704.638 209.167 Z M 712.12 209.277 C 712.868 209.277 713.649 208.892 713.946 208.364 L 713.946 209.167 L 714.881 209.167 L 714.881 201.467 L 713.946 201.467 L 713.946 204.47 C 713.649 203.942 712.945 203.557 712.197 203.557 C 710.8 203.557 709.722 204.624 709.722 206.417 C 709.722 208.21 710.723 209.277 712.12 209.277 Z M 712.241 208.485 C 711.295 208.485 710.668 207.693 710.668 206.417 C 710.668 205.141 711.295 204.349 712.241 204.349 L 712.318 204.349 C 713.242 204.349 713.946 205.141 713.946 206.417 C 713.946 207.693 713.242 208.485 712.318 208.485 L 712.241 208.485 Z M 722.079 209.167 L 722.079 208.342 L 721.012 208.342 C 720.682 208.342 720.572 208.232 720.572 207.902 L 720.572 204.47 L 721.914 204.47 L 721.914 203.667 L 720.572 203.667 L 720.572 201.885 L 719.637 201.885 L 719.637 203.667 L 718.405 203.667 L 718.405 204.47 L 719.637 204.47 L 719.637 208.034 C 719.637 208.782 720.044 209.167 720.792 209.167 L 722.079 209.167 Z M 725.347 209.277 C 726.48 209.277 727.404 208.661 727.613 207.561 L 726.678 207.561 C 726.535 208.188 726.029 208.485 725.424 208.485 L 725.336 208.485 C 724.588 208.485 723.785 207.902 723.741 206.549 L 727.624 206.549 L 727.624 205.999 C 727.624 204.569 726.733 203.557 725.325 203.557 C 724.038 203.557 722.806 204.492 722.806 206.406 C 722.806 208.32 723.983 209.277 725.347 209.277 Z M 723.785 205.79 C 723.972 204.701 724.665 204.349 725.281 204.349 L 725.369 204.349 C 726.084 204.349 726.645 204.833 726.689 205.79 L 723.785 205.79 Z M 730.475 209.277 C 731.377 209.277 732.07 208.782 732.29 208.287 C 732.29 208.419 732.301 208.903 732.345 209.167 L 733.225 209.167 C 733.17 208.782 733.17 208.287 733.17 207.957 L 733.17 205.647 C 733.17 204.525 732.433 203.557 730.981 203.557 C 729.76 203.557 728.858 204.239 728.792 205.24 L 729.727 205.24 C 729.793 204.646 730.321 204.349 730.937 204.349 L 731.014 204.349 C 731.773 204.349 732.235 204.822 732.235 205.647 L 732.235 205.834 L 730.651 205.966 C 729.771 206.032 728.682 206.406 728.682 207.649 C 728.682 208.584 729.452 209.277 730.475 209.277 Z M 730.574 208.485 C 730.024 208.485 729.617 208.111 729.617 207.605 C 729.617 207.066 730.101 206.736 730.794 206.681 L 732.235 206.571 L 732.235 207.187 C 732.235 207.902 731.377 208.485 730.673 208.485 L 730.574 208.485 Z M 735.748 209.167 L 735.748 206.197 C 735.748 205.108 736.397 204.349 737.211 204.349 L 737.299 204.349 C 738.102 204.349 738.454 204.855 738.454 205.735 L 738.454 209.167 L 739.389 209.167 L 739.389 206.197 C 739.389 205.108 740.049 204.349 740.863 204.349 L 740.94 204.349 C 741.743 204.349 742.106 204.855 742.106 205.735 L 742.106 209.167 L 743.041 209.167 L 743.041 205.515 C 743.041 204.305 742.293 203.557 741.094 203.557 C 740.357 203.557 739.653 203.865 739.235 204.624 C 738.905 203.898 738.245 203.557 737.453 203.557 C 736.65 203.557 736.078 203.953 735.748 204.47 L 735.748 203.667 L 734.813 203.667 L 734.813 209.167 L 735.748 209.167 Z M 746.489 209.277 C 747.743 209.277 748.612 208.639 748.612 207.627 C 748.612 206.659 747.941 206.241 747.127 206.076 L 746.258 205.889 C 745.664 205.768 745.411 205.548 745.411 205.13 C 745.411 204.712 745.818 204.349 746.478 204.349 L 746.577 204.349 C 747.303 204.349 747.666 204.822 747.732 205.35 L 748.667 205.35 C 748.645 204.36 747.941 203.557 746.522 203.557 C 745.444 203.557 744.476 204.14 744.476 205.229 C 744.476 206.164 745.18 206.593 746.049 206.769 L 746.852 206.934 C 747.468 207.055 747.677 207.308 747.677 207.682 C 747.677 208.177 747.215 208.485 746.577 208.485 L 746.478 208.485 C 745.796 208.485 745.257 208.177 745.191 207.484 L 744.256 207.484 C 744.278 208.518 745.048 209.277 746.489 209.277 Z" fill="black"/>
    <path d="M 449.01 213.167 L 449.01 211.907 L 443.535 211.907 L 447.075 208.772 C 448.08 207.902 448.785 206.927 448.785 205.502 C 448.785 203.852 447.63 202.517 445.455 202.517 C 443.46 202.517 442.095 203.762 441.9 205.637 L 443.325 205.637 C 443.505 204.362 444.3 203.717 445.35 203.717 L 445.5 203.717 C 446.55 203.717 447.36 204.482 447.36 205.637 C 447.36 206.867 446.415 207.587 445.53 208.442 L 441.96 211.667 L 441.96 213.167 L 449.01 213.167 Z" fill="black"/>
    <path d="M 456.05 259.167 L 457.55 259.167 L 457.55 254.967 L 460.025 254.967 C 462.02 254.967 463.4 253.842 463.4 251.817 C 463.4 249.792 462.02 248.667 460.025 248.667 L 456.05 248.667 L 456.05 259.167 Z M 457.55 253.617 L 457.55 250.017 L 459.8 250.017 C 461.15 250.017 461.9 250.617 461.9 251.817 C 461.9 253.092 461.15 253.617 459.8 253.617 L 457.55 253.617 Z M 468.494 248.517 C 465.944 248.517 464.594 250.542 464.594 253.917 C 464.594 257.292 465.944 259.317 468.494 259.317 C 471.044 259.317 472.394 257.292 472.394 253.917 C 472.394 250.542 471.044 248.517 468.494 248.517 Z M 468.419 257.967 C 466.919 257.967 466.094 256.467 466.094 253.917 C 466.094 251.367 466.919 249.867 468.419 249.867 L 468.569 249.867 C 470.069 249.867 470.894 251.367 470.894 253.917 C 470.894 256.467 470.069 257.967 468.569 257.967 L 468.419 257.967 Z M 479.738 251.817 L 481.238 251.817 C 481.163 249.792 479.963 248.517 477.638 248.517 C 475.538 248.517 474.188 249.642 474.188 251.442 C 474.188 253.092 474.998 253.962 476.513 254.367 L 477.638 254.667 C 479.153 255.072 479.588 255.492 479.588 256.467 C 479.588 257.367 478.988 257.967 477.713 257.967 L 477.563 257.967 C 475.988 257.967 475.163 257.217 475.163 255.792 L 473.663 255.792 C 473.738 258.042 475.013 259.317 477.563 259.317 C 480.038 259.317 481.088 258.117 481.088 256.392 C 481.088 254.742 480.203 253.842 478.538 253.392 L 476.888 252.942 C 476.048 252.717 475.688 252.267 475.688 251.442 C 475.688 250.542 476.288 249.867 477.563 249.867 L 477.713 249.867 C 478.988 249.867 479.663 250.617 479.738 251.817 Z M 485.732 259.167 L 487.232 259.167 L 487.232 250.017 L 490.532 250.017 L 490.532 248.667 L 482.432 248.667 L 482.432 250.017 L 485.732 250.017 L 485.732 259.167 Z M 501.246 259.167 L 502.671 259.167 L 502.671 255.117 C 502.671 253.617 503.646 252.717 504.621 252.717 L 504.771 252.717 C 505.746 252.717 506.346 253.392 506.346 254.517 L 506.346 259.167 L 507.771 259.167 L 507.771 254.367 C 507.771 252.717 506.946 251.517 505.221 251.517 C 503.871 251.517 502.971 252.267 502.671 253.092 L 502.671 248.667 L 501.246 248.667 L 501.246 259.167 Z M 513.72 259.167 L 516.72 259.167 L 516.72 257.922 L 514.17 257.922 C 513.72 257.922 513.57 257.772 513.57 257.322 L 513.57 252.897 L 516.195 252.897 L 516.195 251.667 L 513.57 251.667 L 513.57 249.237 L 512.145 249.237 L 512.145 251.667 L 510.045 251.667 L 510.045 252.897 L 512.145 252.897 L 512.145 257.592 C 512.145 258.642 512.67 259.167 513.72 259.167 Z M 522.714 259.167 L 525.714 259.167 L 525.714 257.922 L 523.164 257.922 C 522.714 257.922 522.564 257.772 522.564 257.322 L 522.564 252.897 L 525.189 252.897 L 525.189 251.667 L 522.564 251.667 L 522.564 249.237 L 521.139 249.237 L 521.139 251.667 L 519.039 251.667 L 519.039 252.897 L 521.139 252.897 L 521.139 257.592 C 521.139 258.642 521.664 259.167 522.714 259.167 Z M 531.618 252.717 L 531.693 252.717 C 532.818 252.717 533.628 253.617 533.628 255.417 C 533.628 257.217 532.818 258.117 531.693 258.117 L 531.618 258.117 C 530.493 258.117 529.653 257.142 529.653 255.417 C 529.653 253.692 530.493 252.717 531.618 252.717 Z M 531.993 251.517 C 531.018 251.517 530.103 251.967 529.578 252.867 L 529.578 251.667 L 528.228 251.667 L 528.228 262.167 L 529.653 262.167 L 529.653 258.042 C 530.103 258.867 530.943 259.317 531.918 259.317 C 533.943 259.317 535.053 257.817 535.053 255.417 C 535.053 253.017 533.943 251.517 531.993 251.517 Z M 540.492 259.317 C 542.217 259.317 543.492 258.417 543.492 257.067 C 543.492 255.717 542.442 255.117 541.317 254.892 L 540.192 254.667 C 539.442 254.517 539.067 254.142 539.067 253.692 C 539.067 253.167 539.667 252.717 540.492 252.717 L 540.642 252.717 C 541.542 252.717 542.142 253.317 542.217 253.992 L 543.642 253.992 C 543.567 252.717 542.517 251.517 540.567 251.517 C 538.692 251.517 537.642 252.567 537.642 253.767 C 537.642 255.042 538.767 255.792 540.117 256.017 L 540.942 256.167 C 541.692 256.317 542.067 256.617 542.067 257.142 C 542.067 257.742 541.392 258.117 540.642 258.117 L 540.492 258.117 C 539.592 258.117 538.767 257.667 538.692 256.842 L 537.267 256.842 C 537.342 258.222 538.467 259.317 540.492 259.317 Z M 548.541 253.467 L 550.341 253.467 L 550.341 251.667 L 548.541 251.667 L 548.541 253.467 Z M 548.541 259.167 L 550.341 259.167 L 550.341 257.367 L 548.541 257.367 L 548.541 259.167 Z M 555.661 259.167 L 557.161 259.167 L 561.211 248.667 L 559.711 248.667 L 555.661 259.167 Z M 564.655 259.167 L 566.155 259.167 L 570.205 248.667 L 568.705 248.667 L 564.655 259.167 Z M 575.899 258.117 C 575.209 258.117 574.699 257.652 574.699 257.037 C 574.699 256.347 575.329 255.927 576.199 255.852 L 578.074 255.702 L 578.074 256.467 C 578.074 257.367 576.949 258.117 576.049 258.117 L 575.899 258.117 Z M 575.749 259.317 C 576.949 259.317 577.849 258.642 578.149 257.967 C 578.149 258.042 578.149 258.792 578.224 259.167 L 579.574 259.167 C 579.499 258.642 579.499 257.967 579.499 257.517 L 579.499 254.367 C 579.499 252.837 578.449 251.517 576.454 251.517 C 574.759 251.517 573.514 252.462 573.424 253.842 L 574.849 253.842 C 574.939 253.092 575.614 252.717 576.424 252.717 L 576.499 252.717 C 577.474 252.717 578.074 253.317 578.074 254.367 L 578.074 254.607 L 576.004 254.772 C 574.789 254.877 573.274 255.387 573.274 257.097 C 573.274 258.372 574.324 259.317 575.749 259.317 Z M 585.583 252.717 L 585.658 252.717 C 586.783 252.717 587.593 253.617 587.593 255.417 C 587.593 257.217 586.783 258.117 585.658 258.117 L 585.583 258.117 C 584.458 258.117 583.618 257.142 583.618 255.417 C 583.618 253.692 584.458 252.717 585.583 252.717 Z M 585.958 251.517 C 584.983 251.517 584.068 251.967 583.543 252.867 L 583.543 251.667 L 582.193 251.667 L 582.193 262.167 L 583.618 262.167 L 583.618 258.042 C 584.068 258.867 584.908 259.317 585.883 259.317 C 587.908 259.317 589.018 257.817 589.018 255.417 C 589.018 253.017 587.908 251.517 585.958 251.517 Z M 595.207 250.317 L 595.207 248.667 L 593.632 248.667 L 593.632 250.317 L 595.207 250.317 Z M 597.847 259.167 L 597.847 257.937 L 595.132 257.937 L 595.132 251.667 L 591.457 251.667 L 591.457 252.897 L 593.707 252.897 L 593.707 257.937 L 590.992 257.937 L 590.992 259.167 L 597.847 259.167 Z M 602.506 259.167 L 604.306 259.167 L 604.306 257.367 L 602.506 257.367 L 602.506 259.167 Z M 612.43 259.317 C 614.305 259.317 615.7 258.267 615.85 256.767 L 614.425 256.767 C 614.275 257.517 613.555 258.117 612.505 258.117 L 612.355 258.117 C 611.305 258.117 610.225 257.367 610.225 255.417 C 610.225 253.767 611.23 252.717 612.43 252.717 L 612.58 252.717 C 613.405 252.717 614.2 253.242 614.35 254.142 L 615.775 254.142 C 615.625 252.567 614.155 251.517 612.58 251.517 C 610.405 251.517 608.8 253.092 608.8 255.417 C 608.8 257.742 610.255 259.317 612.43 259.317 Z M 621.395 259.317 C 623.495 259.317 624.995 257.817 624.995 255.417 C 624.995 253.092 623.42 251.517 621.395 251.517 C 619.37 251.517 617.795 253.092 617.795 255.417 C 617.795 257.817 619.295 259.317 621.395 259.317 Z M 621.47 258.117 L 621.32 258.117 C 620.12 258.117 619.22 257.142 619.22 255.417 C 619.22 253.692 620.12 252.717 621.32 252.717 L 621.47 252.717 C 622.67 252.717 623.57 253.692 623.57 255.417 C 623.57 257.142 622.67 258.117 621.47 258.117 Z M 629.759 259.167 L 629.759 255.417 C 629.759 253.917 630.584 253.017 631.934 253.017 L 633.509 253.017 L 633.509 251.592 L 631.934 251.592 C 630.959 251.592 629.984 252.192 629.684 253.317 L 629.684 251.667 L 628.334 251.667 L 628.334 259.167 L 629.759 259.167 Z M 639.218 258.117 L 639.143 258.117 C 638.018 258.117 637.208 257.217 637.208 255.417 C 637.208 253.617 638.018 252.717 639.143 252.717 L 639.218 252.717 C 640.343 252.717 641.183 253.692 641.183 255.417 C 641.183 257.142 640.343 258.117 639.218 258.117 Z M 638.843 259.317 C 639.818 259.317 640.733 258.867 641.258 257.967 L 641.258 259.167 L 642.608 259.167 L 642.608 248.667 L 641.183 248.667 L 641.183 252.792 C 640.733 251.967 639.893 251.517 638.918 251.517 C 636.893 251.517 635.783 253.017 635.783 255.417 C 635.783 257.817 636.893 259.317 638.843 259.317 Z M 647.477 259.167 L 649.277 259.167 L 649.277 257.367 L 647.477 257.367 L 647.477 259.167 Z M 657.401 259.317 C 659.276 259.317 660.671 258.267 660.821 256.767 L 659.396 256.767 C 659.246 257.517 658.526 258.117 657.476 258.117 L 657.326 258.117 C 656.276 258.117 655.196 257.367 655.196 255.417 C 655.196 253.767 656.201 252.717 657.401 252.717 L 657.551 252.717 C 658.376 252.717 659.171 253.242 659.321 254.142 L 660.746 254.142 C 660.596 252.567 659.126 251.517 657.551 251.517 C 655.376 251.517 653.771 253.092 653.771 255.417 C 653.771 257.742 655.226 259.317 657.401 259.317 Z M 666.365 259.317 C 668.465 259.317 669.965 257.817 669.965 255.417 C 669.965 253.092 668.39 251.517 666.365 251.517 C 664.34 251.517 662.765 253.092 662.765 255.417 C 662.765 257.817 664.265 259.317 666.365 259.317 Z M 666.44 258.117 L 666.29 258.117 C 665.09 258.117 664.19 257.142 664.19 255.417 C 664.19 253.692 665.09 252.717 666.29 252.717 L 666.44 252.717 C 667.64 252.717 668.54 253.692 668.54 255.417 C 668.54 257.142 667.64 258.117 666.44 258.117 Z M 671.639 259.167 L 673.064 259.167 L 673.064 254.817 C 673.064 253.317 673.334 252.717 674.009 252.717 L 674.039 252.717 C 674.699 252.717 674.789 253.392 674.789 254.517 L 674.789 259.167 L 676.214 259.167 L 676.214 254.817 C 676.214 253.317 676.559 252.717 677.159 252.717 L 677.189 252.717 C 678.014 252.717 677.939 253.392 677.939 254.517 L 677.939 259.167 L 679.364 259.167 L 679.364 254.367 C 679.364 252.717 679.229 251.517 677.654 251.517 C 676.679 251.517 676.349 252.042 676.049 252.777 C 675.839 251.982 675.374 251.517 674.564 251.517 C 673.784 251.517 673.364 251.967 673.064 252.777 L 673.064 251.667 L 671.639 251.667 L 671.639 259.167 Z M 681.579 259.167 L 683.079 259.167 L 687.129 248.667 L 685.629 248.667 L 681.579 259.167 Z M 694.218 259.167 L 696.993 251.667 L 695.493 251.667 L 693.363 257.667 L 691.218 251.667 L 689.718 251.667 L 692.493 259.167 L 694.218 259.167 Z M 706.317 259.167 L 706.317 257.907 L 703.317 257.907 L 703.317 248.667 L 702.192 248.667 L 699.492 251.292 L 699.492 253.017 L 701.892 250.692 L 701.892 257.907 L 698.667 257.907 L 698.667 259.167 L 706.317 259.167 Z M 708.561 259.167 L 710.061 259.167 L 714.111 248.667 L 712.611 248.667 L 708.561 259.167 Z M 723.93 255.417 C 723.93 253.017 722.82 251.517 720.795 251.517 C 719.82 251.517 718.98 251.967 718.53 252.792 L 718.53 248.667 L 717.105 248.667 L 717.105 259.167 L 718.455 259.167 L 718.455 257.967 C 718.98 258.867 719.895 259.317 720.87 259.317 C 722.82 259.317 723.93 257.817 723.93 255.417 Z M 718.53 255.417 C 718.53 253.692 719.37 252.717 720.495 252.717 L 720.57 252.717 C 721.695 252.717 722.505 253.617 722.505 255.417 C 722.505 257.217 721.695 258.117 720.57 258.117 L 720.495 258.117 C 719.37 258.117 718.53 257.142 718.53 255.417 Z M 728.799 258.117 C 728.109 258.117 727.599 257.652 727.599 257.037 C 727.599 256.347 728.229 255.927 729.099 255.852 L 730.974 255.702 L 730.974 256.467 C 730.974 257.367 729.849 258.117 728.949 258.117 L 728.799 258.117 Z M 728.649 259.317 C 729.849 259.317 730.749 258.642 731.049 257.967 C 731.049 258.042 731.049 258.792 731.124 259.167 L 732.474 259.167 C 732.399 258.642 732.399 257.967 732.399 257.517 L 732.399 254.367 C 732.399 252.837 731.349 251.517 729.354 251.517 C 727.659 251.517 726.414 252.462 726.324 253.842 L 727.749 253.842 C 727.839 253.092 728.514 252.717 729.324 252.717 L 729.399 252.717 C 730.374 252.717 730.974 253.317 730.974 254.367 L 730.974 254.607 L 728.904 254.772 C 727.689 254.877 726.174 255.387 726.174 257.097 C 726.174 258.372 727.224 259.317 728.649 259.317 Z M 738.573 259.167 L 741.573 259.167 L 741.573 257.922 L 739.023 257.922 C 738.573 257.922 738.423 257.772 738.423 257.322 L 738.423 252.897 L 741.048 252.897 L 741.048 251.667 L 738.423 251.667 L 738.423 249.237 L 736.998 249.237 L 736.998 251.667 L 734.898 251.667 L 734.898 252.897 L 736.998 252.897 L 736.998 257.592 C 736.998 258.642 737.523 259.167 738.573 259.167 Z M 747.343 259.317 C 749.218 259.317 750.613 258.267 750.763 256.767 L 749.338 256.767 C 749.188 257.517 748.468 258.117 747.418 258.117 L 747.268 258.117 C 746.218 258.117 745.138 257.367 745.138 255.417 C 745.138 253.767 746.143 252.717 747.343 252.717 L 747.493 252.717 C 748.318 252.717 749.113 253.242 749.263 254.142 L 750.688 254.142 C 750.538 252.567 749.068 251.517 747.493 251.517 C 745.318 251.517 743.713 253.092 743.713 255.417 C 743.713 257.742 745.168 259.317 747.343 259.317 Z M 753.082 259.167 L 754.507 259.167 L 754.507 255.117 C 754.507 253.617 755.482 252.717 756.457 252.717 L 756.607 252.717 C 757.582 252.717 758.182 253.392 758.182 254.517 L 758.182 259.167 L 759.607 259.167 L 759.607 254.367 C 759.607 252.717 758.782 251.517 757.057 251.517 C 755.707 251.517 754.807 252.267 754.507 253.092 L 754.507 248.667 L 753.082 248.667 L 753.082 259.167 Z" fill="black"/>
    <rect x="223.5" y="124.667" width="85" height="39" rx="5.5" fill="#71BC8F" stroke="black"/>
    <rect x="323.5" y="124.667" width="85" height="39" rx="5.5" fill="#F2FFA1" stroke="black"/>
    <path d="M 239.2 151.367 C 240.84 151.367 242.1 150.467 242.5 149.567 C 242.5 149.807 242.52 150.687 242.6 151.167 L 244.2 151.167 C 244.1 150.467 244.1 149.567 244.1 148.967 L 244.1 144.767 C 244.1 142.727 242.76 140.967 240.12 140.967 C 237.9 140.967 236.26 142.207 236.14 144.027 L 237.84 144.027 C 237.96 142.947 238.92 142.407 240.04 142.407 L 240.18 142.407 C 241.56 142.407 242.4 143.267 242.4 144.767 L 242.4 145.107 L 239.52 145.347 C 237.92 145.467 235.94 146.147 235.94 148.407 C 235.94 150.107 237.34 151.367 239.2 151.367 Z M 239.38 149.927 C 238.38 149.927 237.64 149.247 237.64 148.327 C 237.64 147.347 238.52 146.747 239.78 146.647 L 242.4 146.447 L 242.4 147.567 C 242.4 148.867 240.84 149.927 239.56 149.927 L 239.38 149.927 Z M 248.787 155.167 L 248.787 149.707 C 249.307 150.667 250.587 151.367 251.967 151.367 C 254.487 151.367 256.447 149.427 256.447 146.167 C 256.447 142.907 254.627 140.967 252.087 140.967 C 250.727 140.967 249.307 141.667 248.787 142.627 L 248.787 141.167 L 247.087 141.167 L 247.087 155.167 L 248.787 155.167 Z M 251.727 149.927 C 250.067 149.927 248.787 148.487 248.787 146.167 C 248.787 143.847 250.067 142.407 251.727 142.407 L 251.867 142.407 C 253.587 142.407 254.747 143.847 254.747 146.167 C 254.747 148.487 253.587 149.927 251.867 149.927 L 251.727 149.927 Z M 260.623 155.167 L 260.623 149.707 C 261.143 150.667 262.423 151.367 263.803 151.367 C 266.323 151.367 268.283 149.427 268.283 146.167 C 268.283 142.907 266.463 140.967 263.923 140.967 C 262.563 140.967 261.143 141.667 260.623 142.627 L 260.623 141.167 L 258.923 141.167 L 258.923 155.167 L 260.623 155.167 Z M 263.563 149.927 C 261.903 149.927 260.623 148.487 260.623 146.167 C 260.623 143.847 261.903 142.407 263.563 142.407 L 263.703 142.407 C 265.423 142.407 266.583 143.847 266.583 146.167 C 266.583 148.487 265.423 149.927 263.703 149.927 L 263.563 149.927 Z M 278.679 152.667 L 278.679 151.167 L 269.819 151.167 L 269.819 152.667 L 278.679 152.667 Z M 282.617 139.367 L 282.617 137.327 L 280.717 137.327 L 280.717 139.367 L 282.617 139.367 Z M 282.517 151.167 L 282.517 141.167 L 280.817 141.167 L 280.817 151.167 L 282.517 151.167 Z M 289.343 151.367 C 290.703 151.367 292.123 150.667 292.663 149.707 L 292.663 151.167 L 294.363 151.167 L 294.363 137.167 L 292.663 137.167 L 292.663 142.627 C 292.123 141.667 290.843 140.967 289.483 140.967 C 286.943 140.967 284.983 142.907 284.983 146.167 C 284.983 149.427 286.803 151.367 289.343 151.367 Z M 289.563 149.927 C 287.843 149.927 286.703 148.487 286.703 146.167 C 286.703 143.847 287.843 142.407 289.563 142.407 L 289.703 142.407 C 291.383 142.407 292.663 143.847 292.663 146.167 C 292.663 148.487 291.383 149.927 289.703 149.927 L 289.563 149.927 Z" fill="black"/>
    <path d="M 343.22 151.367 C 346.3 151.367 348.3 149.847 348.3 147.387 C 348.3 145.167 346.94 143.927 344.56 143.447 L 342.32 143.007 C 341.06 142.747 340.26 142.087 340.26 140.947 C 340.26 139.607 341.48 138.607 343.3 138.607 L 343.5 138.607 C 345.28 138.607 346.6 139.647 346.72 141.327 L 348.52 141.327 C 348.42 138.647 346.46 136.967 343.4 136.967 C 340.38 136.967 338.46 138.767 338.46 140.967 C 338.46 143.127 339.74 144.347 341.94 144.807 L 344.18 145.267 C 345.74 145.587 346.5 146.267 346.5 147.467 C 346.5 148.727 345.44 149.727 343.48 149.727 L 343.28 149.727 C 341.1 149.727 339.56 148.667 339.56 146.707 L 337.76 146.707 C 337.82 149.747 339.9 151.367 343.22 151.367 Z M 355.021 151.367 C 357.081 151.367 358.761 150.247 359.141 148.247 L 357.441 148.247 C 357.181 149.387 356.261 149.927 355.161 149.927 L 355.001 149.927 C 353.641 149.927 352.181 148.867 352.101 146.407 L 359.161 146.407 L 359.161 145.407 C 359.161 142.807 357.541 140.967 354.981 140.967 C 352.641 140.967 350.401 142.667 350.401 146.147 C 350.401 149.627 352.541 151.367 355.021 151.367 Z M 352.181 145.027 C 352.521 143.047 353.781 142.407 354.901 142.407 L 355.061 142.407 C 356.361 142.407 357.381 143.287 357.461 145.027 L 352.181 145.027 Z M 365.805 151.367 C 368.045 151.367 369.585 150.027 369.845 147.907 L 368.145 147.907 C 367.945 149.067 367.105 149.927 365.905 149.927 L 365.725 149.927 C 363.725 149.927 362.785 148.167 362.785 146.167 C 362.785 144.167 363.725 142.407 365.725 142.407 L 365.905 142.407 C 367.105 142.407 367.945 143.247 368.145 144.427 L 369.845 144.427 C 369.645 142.287 368.045 140.967 365.805 140.967 C 362.765 140.967 361.085 143.227 361.085 146.167 C 361.085 149.107 362.765 151.367 365.805 151.367 Z M 373.951 151.167 L 373.951 146.167 C 373.951 144.007 375.071 142.687 376.911 142.687 L 377.711 142.687 L 377.711 141.067 L 376.811 141.067 C 375.491 141.067 374.271 141.867 373.851 143.387 L 373.851 141.167 L 372.251 141.167 L 372.251 151.167 L 373.951 151.167 Z M 383.302 151.367 C 385.362 151.367 387.042 150.247 387.422 148.247 L 385.722 148.247 C 385.462 149.387 384.542 149.927 383.442 149.927 L 383.282 149.927 C 381.922 149.927 380.462 148.867 380.382 146.407 L 387.442 146.407 L 387.442 145.407 C 387.442 142.807 385.822 140.967 383.262 140.967 C 380.922 140.967 378.682 142.667 378.682 146.147 C 378.682 149.627 380.822 151.367 383.302 151.367 Z M 380.462 145.027 C 380.802 143.047 382.062 142.407 383.182 142.407 L 383.342 142.407 C 384.642 142.407 385.662 143.287 385.742 145.027 L 380.462 145.027 Z M 395.27 151.167 L 395.27 149.667 L 393.33 149.667 C 392.73 149.667 392.53 149.467 392.53 148.867 L 392.53 142.627 L 394.97 142.627 L 394.97 141.167 L 392.53 141.167 L 392.53 137.927 L 390.83 137.927 L 390.83 141.167 L 388.59 141.167 L 388.59 142.627 L 390.83 142.627 L 390.83 149.107 C 390.83 150.467 391.57 151.167 392.93 151.167 L 395.27 151.167 Z" fill="black"/>
    <path d="M 265.646 202.521 C 265.842 202.716 266.158 202.716 266.354 202.521 L 269.536 199.339 C 269.731 199.143 269.731 198.827 269.536 198.631 C 269.34 198.436 269.024 198.436 268.828 198.631 L 266 201.46 L 263.172 198.631 C 262.976 198.436 262.66 198.436 262.465 198.631 C 262.269 198.827 262.269 199.143 262.465 199.339 L 265.646 202.521 Z M 265.5 164.167 L 265.5 202.167 L 266.5 202.167 L 266.5 164.167 L 265.5 164.167 Z" fill="black"/>
    <path d="M 365.646 202.521 C 365.842 202.716 366.158 202.716 366.354 202.521 L 369.536 199.339 C 369.731 199.143 369.731 198.827 369.536 198.631 C 369.34 198.436 369.024 198.436 368.828 198.631 L 366 201.46 L 363.172 198.631 C 362.976 198.436 362.66 198.436 362.464 198.631 C 362.269 198.827 362.269 199.143 362.464 199.339 L 365.646 202.521 Z M 365.5 164.167 L 365.5 202.167 L 366.5 202.167 L 366.5 164.167 L 365.5 164.167 Z" fill="black"/>
    <path d="M 439.354 255.521 C 439.549 255.325 439.549 255.009 439.354 254.813 L 436.172 251.631 C 435.976 251.436 435.66 251.436 435.464 251.631 C 435.269 251.827 435.269 252.143 435.464 252.339 L 438.293 255.167 L 435.464 257.995 C 435.269 258.191 435.269 258.507 435.464 258.703 C 435.66 258.898 435.976 258.898 436.172 258.703 L 439.354 255.521 Z M 417 255.667 L 439 255.667 L 439 254.667 L 417 254.667 L 417 255.667 Z" fill="black"/>
  </g>
  <defs>
    <clipPath id="clip0_406_3510">
      <rect width="1000" height="600" fill="white"/>
    </clipPath>
  </defs>
</svg>