<svg width="46" height="55" viewBox="0 0 46 55" fill="none" xmlns="http://www.w3.org/2000/svg">
<path d="M23.0073 55C35.0923 55 44.8892 45.2384 44.8892 33.1969C44.8892 21.1554 35.0923 11.3939 23.0073 11.3939C10.9223 11.3939 1.12549 21.1554 1.12549 33.1969C1.12549 45.2384 10.9223 55 23.0073 55Z" fill="#F4FFA0"/>
<path d="M27.7653 41.763C26.7866 41.763 25.7476 41.631 24.6641 41.3636C21.279 40.5289 17.9027 38.5628 14.9546 35.6249L16.9203 33.6657C20.3931 37.1264 24.5125 38.9879 27.7586 38.9896C29.2725 38.9896 30.5708 38.5611 31.4804 37.6543C32.8174 36.3225 33.1838 34.6753 32.6019 32.6167C31.9709 30.3883 30.2215 27.8001 27.5401 25.1279L29.508 23.167C32.5677 26.2163 34.5096 29.1423 35.2802 31.8625C36.1371 34.8861 35.5024 37.5669 33.4483 39.6135C32.0244 41.0345 30.0632 41.763 27.7653 41.763Z" fill="black"/>
<path d="M14.9679 35.6403C13.1293 33.808 11.6415 31.7888 10.8017 29.9804C9.4774 27.1231 10.1069 25.6181 10.8708 24.8588C11.6326 24.0994 13.1427 23.4704 16.0106 24.7919C17.8247 25.6267 19.8357 27.0957 21.6743 28.928L19.7086 30.889C18.2119 29.3976 16.5903 28.1773 15.1381 27.4505C13.7417 26.7511 13.0193 26.7717 12.844 26.8266C12.789 27.0014 12.7681 27.7213 13.4697 29.1132C14.1987 30.5598 15.4391 32.1917 16.9358 33.6811L14.9679 35.6403Z" fill="black"/>
<path d="M20.0097 45.0059C19.2769 45.0059 18.504 44.9117 17.6992 44.7232C15.107 44.113 12.4495 42.5514 10.2207 40.33L12.1886 38.3691C14.0577 40.2323 16.2426 41.5316 18.3391 42.0252C20.8473 42.6166 22.1062 41.8212 22.6361 41.295C23.1637 40.7688 23.9619 39.5124 23.3688 37.0133C22.8731 34.9238 21.5778 32.7521 19.7087 30.8889L21.6692 28.9228C23.9002 31.1459 25.4638 33.7925 26.0762 36.3756C26.745 39.197 26.2226 41.6413 24.6017 43.2542C23.4424 44.4095 21.8565 45.0059 20.0097 45.0059Z" fill="black"/>
<path d="M28.9484 31.7065H26.1675V22.0117H35.8963V24.7833H28.9484V31.7065Z" fill="black"/>
<ellipse cx="24.9525" cy="14.7977" rx="6.24041" ry="4.80819" transform="rotate(-23.2811 24.9525 14.7977)" fill="white"/>
<ellipse cx="24.8182" cy="14.7441" rx="3.27366" ry="2.65985" transform="rotate(-23.2811 24.8182 14.7441)" fill="#010101"/>
<ellipse cx="10.4214" cy="19.2855" rx="6.24041" ry="4.80819" transform="rotate(-22.9738 10.4214 19.2855)" fill="white"/>
<ellipse cx="10.6357" cy="19.5282" rx="3.27366" ry="2.65985" transform="rotate(-22.9738 10.6357 19.5282)" fill="#010101"/>
<path d="M21.7383 8.97552C24.9906 6.62356 28.2521 8.36771 29.3445 9.33156C24.866 4.18225 21.3249 7.10965 20.8252 7.25963C19.9009 7.53708 19.3116 10.7305 21.7383 8.97552Z" fill="black"/>
<path d="M10.5996 11.8721C6.58913 12.0306 5.10097 15.4167 4.83706 16.8493C5.17948 10.0335 9.77246 10.1492 10.2581 9.95855C11.1564 9.60594 13.5921 11.7537 10.5996 11.8721Z" fill="black"/>
</svg>
