<svg width="16" height="16" viewBox="0 0 16 16" fill="none" xmlns="http://www.w3.org/2000/svg">
<path d="M3.98304 6.76728L7.73304 10.5173C7.80414 10.5877 7.90016 10.6272 8.00023 10.6272C8.1003 10.6272 8.19632 10.5877 8.26742 10.5173L12.0174 6.76727C12.0683 6.71306 12.1028 6.64554 12.1169 6.57254C12.131 6.49954 12.1241 6.42404 12.0971 6.35477C12.0684 6.28652 12.0202 6.22829 11.9584 6.18742C11.8967 6.14654 11.8243 6.12486 11.7502 6.12509L4.25023 6.12509C4.1762 6.12486 4.10375 6.14654 4.04202 6.18742C3.98029 6.22829 3.93204 6.28653 3.90336 6.35478C3.87634 6.42404 3.86949 6.49954 3.88359 6.57254C3.89769 6.64554 3.93217 6.71306 3.98304 6.76728Z" fill="#121314"/>
</svg>
