<svg
  width="24"
  height="24"
  viewBox="0 0 24 24"
  fill="none"
  xmlns="http://www.w3.org/2000/svg"
>
  <path
    d="M12 12.1875C12 11.2427 12.3753 10.3365 13.0434 9.66843C13.7115 9.00033 14.6177 8.625 15.5625 8.625C16.5073 8.625 17.4135 9.00033 18.0816 9.66843C18.7497 10.3365 19.125 11.2427 19.125 12.1875C19.125 13.1323 18.7497 14.0385 18.0816 14.7066C17.4135 15.3747 16.5073 15.75 15.5625 15.75C14.6177 15.75 13.7115 15.3747 13.0434 14.7066C12.3753 14.0385 12 13.1323 12 12.1875V12.1875Z"
    stroke="#1E1E1E"
    stroke-width="1.3125"
  />
  <path
    d="M4.875 19.3125C4.875 18.3677 5.25033 17.4615 5.91843 16.7934C6.58653 16.1253 7.49267 15.75 8.4375 15.75H12V19.3125C12 20.2573 11.6247 21.1635 10.9566 21.8316C10.2885 22.4997 9.38233 22.875 8.4375 22.875C7.49267 22.875 6.58653 22.4997 5.91843 21.8316C5.25033 21.1635 4.875 20.2573 4.875 19.3125Z"
    stroke="#1E1E1E"
    stroke-width="1.3125"
  />
  <path
    d="M12 1.5V8.625H15.5625C16.5073 8.625 17.4135 8.24967 18.0816 7.58157C18.7497 6.91347 19.125 6.00733 19.125 5.0625C19.125 4.11767 18.7497 3.21153 18.0816 2.54343C17.4135 1.87533 16.5073 1.5 15.5625 1.5L12 1.5Z"
    stroke="#1E1E1E"
    stroke-width="1.3125"
  />
  <path
    d="M4.875 5.0625C4.875 6.00733 5.25033 6.91347 5.91843 7.58157C6.58653 8.24967 7.49267 8.625 8.4375 8.625H12V1.5H8.4375C7.49267 1.5 6.58653 1.87533 5.91843 2.54343C5.25033 3.21153 4.875 4.11767 4.875 5.0625Z"
    stroke="#1E1E1E"
    stroke-width="1.3125"
  />
  <path
    d="M4.875 12.1875C4.875 13.1323 5.25033 14.0385 5.91843 14.7066C6.58653 15.3747 7.49267 15.75 8.4375 15.75H12V8.625H8.4375C7.49267 8.625 6.58653 9.00033 5.91843 9.66843C5.25033 10.3365 4.875 11.2427 4.875 12.1875Z"
    stroke="#1E1E1E"
    stroke-width="1.3125"
  />
</svg>
