<svg
  width="24"
  height="24"
  viewBox="0 0 24 24"
  fill="none"
  xmlns="http://www.w3.org/2000/svg"
>
  <path
    fill-rule="evenodd"
    clip-rule="evenodd"
    d="M12 0C5.37017 0 0 5.3402 0 11.933C0 17.2073 3.44015 21.6758 8.20626 23.2581C8.80295 23.368 9.02394 23.0017 9.02394 22.6794C9.02394 22.3937 9.01657 21.6465 9.00921 20.6502C5.67219 21.3681 4.96501 19.0533 4.96501 19.0533C4.41989 17.6761 3.63168 17.3025 3.63168 17.3025C2.54144 16.5627 3.71271 16.5773 3.71271 16.5773C4.91344 16.6652 5.55433 17.808 5.55433 17.808C6.62247 19.632 8.36096 19.1046 9.04604 18.7969C9.15654 18.0278 9.46593 17.5003 9.80479 17.2C7.14549 16.907 4.34622 15.8814 4.34622 11.3104C4.34622 10.0065 4.81031 8.94429 5.58379 8.10919C5.45856 7.80153 5.04604 6.59284 5.69429 4.95196C5.69429 4.95196 6.7035 4.62964 8.99447 6.17529C9.95212 5.91158 10.9761 5.77972 12 5.7724C13.0166 5.77972 14.0479 5.91158 15.0055 6.17529C17.2965 4.62964 18.3057 4.95196 18.3057 4.95196C18.9613 6.59284 18.5488 7.80885 18.4236 8.10919C19.1897 8.94429 19.6538 10.0065 19.6538 11.3104C19.6538 15.8961 16.8471 16.8996 14.1731 17.2C14.6004 17.5663 14.9908 18.2988 14.9908 19.4123C14.9908 21.0092 14.9761 22.2911 14.9761 22.6867C14.9761 23.009 15.1897 23.3753 15.8011 23.2581C20.5672 21.6758 24 17.2073 24 11.9404C24 5.3402 18.6298 0 12 0Z"
    fill="#231E1B"
  />
</svg>
