<svg width="20" height="20" viewBox="0 0 20 20" fill="none" xmlns="http://www.w3.org/2000/svg">
<path d="M4.99986 16.8751C4.8341 16.8751 4.67513 16.8093 4.55792 16.6921C4.44071 16.5748 4.37486 16.4159 4.37486 16.2501V12.9142C4.03198 13.0777 3.65197 13.1478 3.2733 13.1173C2.95267 13.0937 2.64118 12.9998 2.36098 12.8422C2.08079 12.6845 1.83879 12.4671 1.6522 12.2052C1.46561 11.9434 1.33903 11.6437 1.28146 11.3274C1.22388 11.0111 1.23674 10.686 1.3191 10.3753C1.40146 10.0645 1.55132 9.7757 1.75799 9.52944C1.96466 9.28318 2.22308 9.0855 2.51484 8.95047C2.8066 8.81544 3.12454 8.74638 3.44603 8.74821C3.76752 8.75004 4.08465 8.82271 4.37486 8.96105V5.62511C4.37486 5.45935 4.44071 5.30038 4.55792 5.18317C4.67513 5.06596 4.8341 5.00011 4.99986 5.00011H8.6483C8.48474 4.65723 8.41466 4.27722 8.44518 3.89855C8.46873 3.57792 8.56268 3.26642 8.72032 2.98623C8.87796 2.70603 9.09542 2.46403 9.35723 2.27745C9.61904 2.09086 9.91876 1.96427 10.2351 1.9067C10.5514 1.84913 10.8765 1.86198 11.1872 1.94434C11.498 2.02671 11.7868 2.17656 12.033 2.38323C12.2793 2.58991 12.477 2.84832 12.612 3.14008C12.747 3.43185 12.8161 3.74979 12.8143 4.07128C12.8124 4.39276 12.7398 4.7099 12.6014 5.00011H16.2499C16.4156 5.00011 16.5746 5.06596 16.6918 5.18317C16.809 5.30038 16.8749 5.45935 16.8749 5.62511V8.96105C16.532 8.79748 16.152 8.72741 15.7733 8.75792C15.4527 8.78148 15.1412 8.87542 14.861 9.03306C14.5808 9.1907 14.3388 9.40816 14.1522 9.66997C13.9656 9.93178 13.839 10.2315 13.7815 10.5478C13.7239 10.8641 13.7367 11.1892 13.8191 11.5C13.9015 11.8107 14.0513 12.0995 14.258 12.3458C14.4647 12.592 14.7231 12.7897 15.0148 12.9247C15.3066 13.0598 15.6245 13.1288 15.946 13.127C16.2675 13.1252 16.5847 13.0525 16.8749 12.9142V16.2501C16.8749 16.4159 16.809 16.5748 16.6918 16.6921C16.5746 16.8093 16.4156 16.8751 16.2499 16.8751H4.99986Z" fill="#121314" stroke="#121314" stroke-linecap="round" stroke-linejoin="round"/>
</svg>
