<svg width="16" height="16" viewBox="0 0 16 16" fill="none" xmlns="http://www.w3.org/2000/svg">
<path d="M12.017 10.2327L8.26696 6.48273C8.19586 6.41231 8.09984 6.3728 7.99977 6.3728C7.8997 6.3728 7.80368 6.41231 7.73258 6.48273L3.98258 10.2327C3.93171 10.2869 3.89723 10.3545 3.88312 10.4275C3.86902 10.5005 3.87588 10.576 3.90289 10.6452C3.93158 10.7135 3.97983 10.7717 4.04156 10.8126C4.10329 10.8535 4.17573 10.8751 4.24977 10.8749H11.7498C11.8238 10.8751 11.8962 10.8535 11.958 10.8126C12.0197 10.7717 12.068 10.7135 12.0966 10.6452C12.1237 10.576 12.1305 10.5005 12.1164 10.4275C12.1023 10.3545 12.0678 10.2869 12.017 10.2327Z" fill="#121314"/>
</svg>
